 0
SECTION
 2
HEADER
 9
$ACADVER
 1
AC1009
 0
ENDSEC
 0
SECTION
 2
TABLES
 0
TABLE
 2
LTYPE
 70
1
 0
LTYPE
 2
CONTINUOUS
 70
64
 3
solid line
 72
65
 73
0
 40
0.0
 0
ENDTAB
 0
TABLE
 2
LAYER
 70
6
 0
LAYER
 2
0
 70
0
 62
7
 6
CONTINUOUS
 0
LAYER
 2
ST__-VOO-VOO-VV-TS1
 70
64
 62
7
 6
CONTINUOUS
 0
LAYER
 2
RECTANGLE0
 70
64
 62
29
 6
CONTINUOUS
 0
LAYER
 2
RECTANGLE1
 70
64
 62
251
 6
CONTINUOUS
 0
LAYER
 2
RECTANGLE2
 70
64
 62
29
 6
CONTINUOUS
 0
ENDTAB
 0
ENDSEC
 0
SECTION
 2
BLOCKS
 0
ENDSEC
 0
SECTION
 2
ENTITIES
 0
POLYLINE
 8
RECTANGLE0
 66
1
 10
0.0
 20
0.0
 30
0.0
 70
64
 71
276
 72
196
 0
VERTEX
 8
RECTANGLE0
 10
181.6354
 20
111.9111
 30
52.7
 70
192
 0
VERTEX
 8
RECTANGLE0
 10
181.5931
 20
112.2777
 30
52.7
 70
192
 0
VERTEX
 8
RECTANGLE0
 10
181.4726
 20
112.6144
 30
52.7
 70
192
 0
VERTEX
 8
RECTANGLE0
 10
181.2836
 20
112.9115
 30
52.7
 70
192
 0
VERTEX
 8
RECTANGLE0
 10
181.0357
 20
113.1594
 30
52.7
 70
192
 0
VERTEX
 8
RECTANGLE0
 10
180.7387
 20
113.3484
 30
52.7
 70
192
 0
VERTEX
 8
RECTANGLE0
 10
180.402
 20
113.4688
 30
52.7
 70
192
 0
VERTEX
 8
RECTANGLE0
 10
180.0354
 20
113.5111
 30
52.7
 70
192
 0
VERTEX
 8
RECTANGLE0
 10
53.2354
 20
113.5111
 30
52.7
 70
192
 0
VERTEX
 8
RECTANGLE0
 10
52.8687
 20
113.4688
 30
52.7
 70
192
 0
VERTEX
 8
RECTANGLE0
 10
52.5321
 20
113.3484
 30
52.7
 70
192
 0
VERTEX
 8
RECTANGLE0
 10
52.235
 20
113.1594
 30
52.7
 70
192
 0
VERTEX
 8
RECTANGLE0
 10
51.9871
 20
112.9115
 30
52.7
 70
192
 0
VERTEX
 8
RECTANGLE0
 10
51.7981
 20
112.6144
 30
52.7
 70
192
 0
VERTEX
 8
RECTANGLE0
 10
51.6777
 20
112.2777
 30
52.7
 70
192
 0
VERTEX
 8
RECTANGLE0
 10
51.6354
 20
111.9111
 30
52.7
 70
192
 0
VERTEX
 8
RECTANGLE0
 10
51.6354
 20
45.1111
 30
52.7
 70
192
 0
VERTEX
 8
RECTANGLE0
 10
51.6777
 20
44.7445
 30
52.7
 70
192
 0
VERTEX
 8
RECTANGLE0
 10
51.7981
 20
44.4078
 30
52.7
 70
192
 0
VERTEX
 8
RECTANGLE0
 10
51.9871
 20
44.1107
 30
52.7
 70
192
 0
VERTEX
 8
RECTANGLE0
 10
52.235
 20
43.8629
 30
52.7
 70
192
 0
VERTEX
 8
RECTANGLE0
 10
52.5321
 20
43.6739
 30
52.7
 70
192
 0
VERTEX
 8
RECTANGLE0
 10
52.8687
 20
43.5534
 30
52.7
 70
192
 0
VERTEX
 8
RECTANGLE0
 10
53.2354
 20
43.5111
 30
52.7
 70
192
 0
VERTEX
 8
RECTANGLE0
 10
180.0354
 20
43.5111
 30
52.7
 70
192
 0
VERTEX
 8
RECTANGLE0
 10
180.402
 20
43.5534
 30
52.7
 70
192
 0
VERTEX
 8
RECTANGLE0
 10
180.7387
 20
43.6739
 30
52.7
 70
192
 0
VERTEX
 8
RECTANGLE0
 10
181.0357
 20
43.8629
 30
52.7
 70
192
 0
VERTEX
 8
RECTANGLE0
 10
181.2836
 20
44.1107
 30
52.7
 70
192
 0
VERTEX
 8
RECTANGLE0
 10
181.4726
 20
44.4078
 30
52.7
 70
192
 0
VERTEX
 8
RECTANGLE0
 10
181.5931
 20
44.7445
 30
52.7
 70
192
 0
VERTEX
 8
RECTANGLE0
 10
181.6354
 20
45.1111
 30
52.7
 70
192
 0
VERTEX
 8
RECTANGLE0
 10
181.6354
 20
111.9111
 30
53.95
 70
192
 0
VERTEX
 8
RECTANGLE0
 10
181.5931
 20
112.2777
 30
53.95
 70
192
 0
VERTEX
 8
RECTANGLE0
 10
181.4726
 20
112.6144
 30
53.95
 70
192
 0
VERTEX
 8
RECTANGLE0
 10
181.2836
 20
112.9115
 30
53.95
 70
192
 0
VERTEX
 8
RECTANGLE0
 10
181.0357
 20
113.1594
 30
53.95
 70
192
 0
VERTEX
 8
RECTANGLE0
 10
180.7387
 20
113.3484
 30
53.95
 70
192
 0
VERTEX
 8
RECTANGLE0
 10
180.402
 20
113.4688
 30
53.95
 70
192
 0
VERTEX
 8
RECTANGLE0
 10
180.0354
 20
113.5111
 30
53.95
 70
192
 0
VERTEX
 8
RECTANGLE0
 10
53.2354
 20
113.5111
 30
53.95
 70
192
 0
VERTEX
 8
RECTANGLE0
 10
52.8687
 20
113.4688
 30
53.95
 70
192
 0
VERTEX
 8
RECTANGLE0
 10
52.5321
 20
113.3484
 30
53.95
 70
192
 0
VERTEX
 8
RECTANGLE0
 10
52.235
 20
113.1594
 30
53.95
 70
192
 0
VERTEX
 8
RECTANGLE0
 10
51.9871
 20
112.9115
 30
53.95
 70
192
 0
VERTEX
 8
RECTANGLE0
 10
51.7981
 20
112.6144
 30
53.95
 70
192
 0
VERTEX
 8
RECTANGLE0
 10
51.6777
 20
112.2777
 30
53.95
 70
192
 0
VERTEX
 8
RECTANGLE0
 10
51.6354
 20
111.9111
 30
53.95
 70
192
 0
VERTEX
 8
RECTANGLE0
 10
51.6354
 20
45.1111
 30
53.95
 70
192
 0
VERTEX
 8
RECTANGLE0
 10
51.6777
 20
44.7445
 30
53.95
 70
192
 0
VERTEX
 8
RECTANGLE0
 10
51.7981
 20
44.4078
 30
53.95
 70
192
 0
VERTEX
 8
RECTANGLE0
 10
51.9871
 20
44.1107
 30
53.95
 70
192
 0
VERTEX
 8
RECTANGLE0
 10
52.235
 20
43.8629
 30
53.95
 70
192
 0
VERTEX
 8
RECTANGLE0
 10
52.5321
 20
43.6739
 30
53.95
 70
192
 0
VERTEX
 8
RECTANGLE0
 10
52.8687
 20
43.5534
 30
53.95
 70
192
 0
VERTEX
 8
RECTANGLE0
 10
53.2354
 20
43.5111
 30
53.95
 70
192
 0
VERTEX
 8
RECTANGLE0
 10
180.0354
 20
43.5111
 30
53.95
 70
192
 0
VERTEX
 8
RECTANGLE0
 10
180.402
 20
43.5534
 30
53.95
 70
192
 0
VERTEX
 8
RECTANGLE0
 10
180.7387
 20
43.6739
 30
53.95
 70
192
 0
VERTEX
 8
RECTANGLE0
 10
181.0357
 20
43.8629
 30
53.95
 70
192
 0
VERTEX
 8
RECTANGLE0
 10
181.2836
 20
44.1107
 30
53.95
 70
192
 0
VERTEX
 8
RECTANGLE0
 10
181.4726
 20
44.4078
 30
53.95
 70
192
 0
VERTEX
 8
RECTANGLE0
 10
181.5931
 20
44.7445
 30
53.95
 70
192
 0
VERTEX
 8
RECTANGLE0
 10
181.6354
 20
45.1111
 30
53.95
 70
192
 0
VERTEX
 8
RECTANGLE0
 10
176.5752
 20
46.7735
 30
51.1429
 70
192
 0
VERTEX
 8
RECTANGLE0
 10
56.6955
 20
46.7735
 30
51.1429
 70
192
 0
VERTEX
 8
RECTANGLE0
 10
56.6955
 20
110.2488
 30
51.1429
 70
192
 0
VERTEX
 8
RECTANGLE0
 10
176.5752
 20
110.2488
 30
51.1429
 70
192
 0
VERTEX
 8
RECTANGLE0
 10
181.5854
 20
111.9082
 30
54
 70
192
 0
VERTEX
 8
RECTANGLE0
 10
181.5441
 20
112.2663
 30
54
 70
192
 0
VERTEX
 8
RECTANGLE0
 10
181.4274
 20
112.5923
 30
54
 70
192
 0
VERTEX
 8
RECTANGLE0
 10
181.2444
 20
112.88
 30
54
 70
192
 0
VERTEX
 8
RECTANGLE0
 10
181.0043
 20
113.1201
 30
54
 70
192
 0
VERTEX
 8
RECTANGLE0
 10
180.7165
 20
113.3032
 30
54
 70
192
 0
VERTEX
 8
RECTANGLE0
 10
180.3905
 20
113.4198
 30
54
 70
192
 0
VERTEX
 8
RECTANGLE0
 10
180.0325
 20
113.4611
 30
54
 70
192
 0
VERTEX
 8
RECTANGLE0
 10
53.2382
 20
113.4611
 30
54
 70
192
 0
VERTEX
 8
RECTANGLE0
 10
52.8802
 20
113.4198
 30
54
 70
192
 0
VERTEX
 8
RECTANGLE0
 10
52.5542
 20
113.3032
 30
54
 70
192
 0
VERTEX
 8
RECTANGLE0
 10
52.2665
 20
113.1201
 30
54
 70
192
 0
VERTEX
 8
RECTANGLE0
 10
52.0264
 20
112.88
 30
54
 70
192
 0
VERTEX
 8
RECTANGLE0
 10
51.8433
 20
112.5923
 30
54
 70
192
 0
VERTEX
 8
RECTANGLE0
 10
51.7267
 20
112.2663
 30
54
 70
192
 0
VERTEX
 8
RECTANGLE0
 10
51.6854
 20
111.9082
 30
54
 70
192
 0
VERTEX
 8
RECTANGLE0
 10
51.6854
 20
45.114
 30
54
 70
192
 0
VERTEX
 8
RECTANGLE0
 10
51.7267
 20
44.7559
 30
54
 70
192
 0
VERTEX
 8
RECTANGLE0
 10
51.8433
 20
44.4299
 30
54
 70
192
 0
VERTEX
 8
RECTANGLE0
 10
52.0264
 20
44.1422
 30
54
 70
192
 0
VERTEX
 8
RECTANGLE0
 10
52.2665
 20
43.9021
 30
54
 70
192
 0
VERTEX
 8
RECTANGLE0
 10
52.5542
 20
43.7191
 30
54
 70
192
 0
VERTEX
 8
RECTANGLE0
 10
52.8802
 20
43.6024
 30
54
 70
192
 0
VERTEX
 8
RECTANGLE0
 10
53.2382
 20
43.5611
 30
54
 70
192
 0
VERTEX
 8
RECTANGLE0
 10
180.0325
 20
43.5611
 30
54
 70
192
 0
VERTEX
 8
RECTANGLE0
 10
180.3905
 20
43.6024
 30
54
 70
192
 0
VERTEX
 8
RECTANGLE0
 10
180.7165
 20
43.7191
 30
54
 70
192
 0
VERTEX
 8
RECTANGLE0
 10
181.0043
 20
43.9021
 30
54
 70
192
 0
VERTEX
 8
RECTANGLE0
 10
181.2444
 20
44.1422
 30
54
 70
192
 0
VERTEX
 8
RECTANGLE0
 10
181.4274
 20
44.4299
 30
54
 70
192
 0
VERTEX
 8
RECTANGLE0
 10
181.5441
 20
44.7559
 30
54
 70
192
 0
VERTEX
 8
RECTANGLE0
 10
181.5854
 20
45.114
 30
54
 70
192
 0
VERTEX
 8
RECTANGLE0
 10
181.4726
 20
112.6144
 30
53.95
 70
192
 0
VERTEX
 8
RECTANGLE0
 10
181.4726
 20
112.6144
 30
52.7
 70
192
 0
VERTEX
 8
RECTANGLE0
 10
181.4726
 20
112.6144
 30
52.7
 70
192
 0
VERTEX
 8
RECTANGLE0
 10
51.7981
 20
112.6144
 30
53.95
 70
192
 0
VERTEX
 8
RECTANGLE0
 10
51.7981
 20
112.6144
 30
52.7
 70
192
 0
VERTEX
 8
RECTANGLE0
 10
51.7981
 20
112.6144
 30
52.7
 70
192
 0
VERTEX
 8
RECTANGLE0
 10
51.7981
 20
44.4078
 30
53.95
 70
192
 0
VERTEX
 8
RECTANGLE0
 10
51.7981
 20
44.4078
 30
52.7
 70
192
 0
VERTEX
 8
RECTANGLE0
 10
51.7981
 20
44.4078
 30
52.7
 70
192
 0
VERTEX
 8
RECTANGLE0
 10
181.4726
 20
44.4078
 30
53.95
 70
192
 0
VERTEX
 8
RECTANGLE0
 10
181.4726
 20
44.4078
 30
52.7
 70
192
 0
VERTEX
 8
RECTANGLE0
 10
181.4726
 20
44.4078
 30
52.7
 70
192
 0
VERTEX
 8
RECTANGLE0
 10
181.5931
 20
112.2777
 30
52.7
 70
192
 0
VERTEX
 8
RECTANGLE0
 10
181.6354
 20
111.9111
 30
52.7
 70
192
 0
VERTEX
 8
RECTANGLE0
 10
181.6354
 20
111.9111
 30
52.7
 70
192
 0
VERTEX
 8
RECTANGLE0
 10
181.6354
 20
45.1111
 30
52.7
 70
192
 0
VERTEX
 8
RECTANGLE0
 10
181.6354
 20
111.9111
 30
52.7
 70
192
 0
VERTEX
 8
RECTANGLE0
 10
181.6354
 20
45.1111
 30
52.7
 70
192
 0
VERTEX
 8
RECTANGLE0
 10
181.5931
 20
44.7445
 30
52.7
 70
192
 0
VERTEX
 8
RECTANGLE0
 10
181.5931
 20
44.7445
 30
52.7
 70
192
 0
VERTEX
 8
RECTANGLE0
 10
181.4726
 20
44.4078
 30
52.7
 70
192
 0
VERTEX
 8
RECTANGLE0
 10
181.4726
 20
44.4078
 30
52.7
 70
192
 0
VERTEX
 8
RECTANGLE0
 10
181.2836
 20
44.1107
 30
52.7
 70
192
 0
VERTEX
 8
RECTANGLE0
 10
181.2836
 20
44.1107
 30
52.7
 70
192
 0
VERTEX
 8
RECTANGLE0
 10
181.0357
 20
43.8629
 30
52.7
 70
192
 0
VERTEX
 8
RECTANGLE0
 10
181.0357
 20
43.8629
 30
52.7
 70
192
 0
VERTEX
 8
RECTANGLE0
 10
180.7387
 20
43.6739
 30
52.7
 70
192
 0
VERTEX
 8
RECTANGLE0
 10
180.7387
 20
43.6739
 30
52.7
 70
192
 0
VERTEX
 8
RECTANGLE0
 10
180.402
 20
43.5534
 30
52.7
 70
192
 0
VERTEX
 8
RECTANGLE0
 10
180.402
 20
43.5534
 30
52.7
 70
192
 0
VERTEX
 8
RECTANGLE0
 10
180.0354
 20
43.5111
 30
52.7
 70
192
 0
VERTEX
 8
RECTANGLE0
 10
180.0354
 20
43.5111
 30
52.7
 70
192
 0
VERTEX
 8
RECTANGLE0
 10
53.2354
 20
43.5111
 30
52.7
 70
192
 0
VERTEX
 8
RECTANGLE0
 10
180.0354
 20
43.5111
 30
52.7
 70
192
 0
VERTEX
 8
RECTANGLE0
 10
53.2354
 20
43.5111
 30
52.7
 70
192
 0
VERTEX
 8
RECTANGLE0
 10
52.8687
 20
43.5534
 30
52.7
 70
192
 0
VERTEX
 8
RECTANGLE0
 10
52.8687
 20
43.5534
 30
52.7
 70
192
 0
VERTEX
 8
RECTANGLE0
 10
52.5321
 20
43.6739
 30
52.7
 70
192
 0
VERTEX
 8
RECTANGLE0
 10
52.5321
 20
43.6739
 30
52.7
 70
192
 0
VERTEX
 8
RECTANGLE0
 10
52.235
 20
43.8629
 30
52.7
 70
192
 0
VERTEX
 8
RECTANGLE0
 10
52.235
 20
43.8629
 30
52.7
 70
192
 0
VERTEX
 8
RECTANGLE0
 10
51.9871
 20
44.1107
 30
52.7
 70
192
 0
VERTEX
 8
RECTANGLE0
 10
51.9871
 20
44.1107
 30
52.7
 70
192
 0
VERTEX
 8
RECTANGLE0
 10
51.7981
 20
44.4078
 30
52.7
 70
192
 0
VERTEX
 8
RECTANGLE0
 10
51.7981
 20
44.4078
 30
52.7
 70
192
 0
VERTEX
 8
RECTANGLE0
 10
51.6777
 20
44.7445
 30
52.7
 70
192
 0
VERTEX
 8
RECTANGLE0
 10
51.6777
 20
44.7445
 30
52.7
 70
192
 0
VERTEX
 8
RECTANGLE0
 10
51.6354
 20
45.1111
 30
52.7
 70
192
 0
VERTEX
 8
RECTANGLE0
 10
51.6354
 20
45.1111
 30
52.7
 70
192
 0
VERTEX
 8
RECTANGLE0
 10
51.6354
 20
111.9111
 30
52.7
 70
192
 0
VERTEX
 8
RECTANGLE0
 10
51.6354
 20
45.1111
 30
52.7
 70
192
 0
VERTEX
 8
RECTANGLE0
 10
51.6354
 20
111.9111
 30
52.7
 70
192
 0
VERTEX
 8
RECTANGLE0
 10
51.6777
 20
112.2777
 30
52.7
 70
192
 0
VERTEX
 8
RECTANGLE0
 10
51.6777
 20
112.2777
 30
52.7
 70
192
 0
VERTEX
 8
RECTANGLE0
 10
51.7981
 20
112.6144
 30
52.7
 70
192
 0
VERTEX
 8
RECTANGLE0
 10
51.7981
 20
112.6144
 30
52.7
 70
192
 0
VERTEX
 8
RECTANGLE0
 10
51.9871
 20
112.9115
 30
52.7
 70
192
 0
VERTEX
 8
RECTANGLE0
 10
51.9871
 20
112.9115
 30
52.7
 70
192
 0
VERTEX
 8
RECTANGLE0
 10
52.235
 20
113.1594
 30
52.7
 70
192
 0
VERTEX
 8
RECTANGLE0
 10
52.235
 20
113.1594
 30
52.7
 70
192
 0
VERTEX
 8
RECTANGLE0
 10
52.5321
 20
113.3484
 30
52.7
 70
192
 0
VERTEX
 8
RECTANGLE0
 10
52.5321
 20
113.3484
 30
52.7
 70
192
 0
VERTEX
 8
RECTANGLE0
 10
52.8687
 20
113.4688
 30
52.7
 70
192
 0
VERTEX
 8
RECTANGLE0
 10
52.8687
 20
113.4688
 30
52.7
 70
192
 0
VERTEX
 8
RECTANGLE0
 10
53.2354
 20
113.5111
 30
52.7
 70
192
 0
VERTEX
 8
RECTANGLE0
 10
53.2354
 20
113.5111
 30
52.7
 70
192
 0
VERTEX
 8
RECTANGLE0
 10
180.0354
 20
113.5111
 30
52.7
 70
192
 0
VERTEX
 8
RECTANGLE0
 10
53.2354
 20
113.5111
 30
52.7
 70
192
 0
VERTEX
 8
RECTANGLE0
 10
180.0354
 20
113.5111
 30
52.7
 70
192
 0
VERTEX
 8
RECTANGLE0
 10
180.402
 20
113.4688
 30
52.7
 70
192
 0
VERTEX
 8
RECTANGLE0
 10
180.402
 20
113.4688
 30
52.7
 70
192
 0
VERTEX
 8
RECTANGLE0
 10
180.7387
 20
113.3484
 30
52.7
 70
192
 0
VERTEX
 8
RECTANGLE0
 10
180.7387
 20
113.3484
 30
52.7
 70
192
 0
VERTEX
 8
RECTANGLE0
 10
181.0357
 20
113.1594
 30
52.7
 70
192
 0
VERTEX
 8
RECTANGLE0
 10
181.0357
 20
113.1594
 30
52.7
 70
192
 0
VERTEX
 8
RECTANGLE0
 10
181.2836
 20
112.9115
 30
52.7
 70
192
 0
VERTEX
 8
RECTANGLE0
 10
181.2836
 20
112.9115
 30
52.7
 70
192
 0
VERTEX
 8
RECTANGLE0
 10
181.4726
 20
112.6144
 30
52.7
 70
192
 0
VERTEX
 8
RECTANGLE0
 10
181.4726
 20
112.6144
 30
52.7
 70
192
 0
VERTEX
 8
RECTANGLE0
 10
181.5931
 20
112.2777
 30
52.7
 70
192
 0
VERTEX
 8
RECTANGLE0
 10
181.5931
 20
112.2777
 30
53.95
 70
192
 0
VERTEX
 8
RECTANGLE0
 10
181.6354
 20
111.9111
 30
53.95
 70
192
 0
VERTEX
 8
RECTANGLE0
 10
181.5931
 20
112.2777
 30
53.95
 70
192
 0
VERTEX
 8
RECTANGLE0
 10
181.4726
 20
112.6144
 30
53.95
 70
192
 0
VERTEX
 8
RECTANGLE0
 10
181.5931
 20
112.2777
 30
53.95
 70
192
 0
VERTEX
 8
RECTANGLE0
 10
181.4726
 20
112.6144
 30
53.95
 70
192
 0
VERTEX
 8
RECTANGLE0
 10
181.2836
 20
112.9115
 30
53.95
 70
192
 0
VERTEX
 8
RECTANGLE0
 10
181.4726
 20
112.6144
 30
53.95
 70
192
 0
VERTEX
 8
RECTANGLE0
 10
181.2836
 20
112.9115
 30
53.95
 70
192
 0
VERTEX
 8
RECTANGLE0
 10
181.0357
 20
113.1594
 30
53.95
 70
192
 0
VERTEX
 8
RECTANGLE0
 10
181.2836
 20
112.9115
 30
53.95
 70
192
 0
VERTEX
 8
RECTANGLE0
 10
181.0357
 20
113.1594
 30
53.95
 70
192
 0
VERTEX
 8
RECTANGLE0
 10
180.7387
 20
113.3484
 30
53.95
 70
192
 0
VERTEX
 8
RECTANGLE0
 10
181.0357
 20
113.1594
 30
53.95
 70
192
 0
VERTEX
 8
RECTANGLE0
 10
180.7387
 20
113.3484
 30
53.95
 70
192
 0
VERTEX
 8
RECTANGLE0
 10
180.402
 20
113.4688
 30
53.95
 70
192
 0
VERTEX
 8
RECTANGLE0
 10
180.7387
 20
113.3484
 30
53.95
 70
192
 0
VERTEX
 8
RECTANGLE0
 10
180.402
 20
113.4688
 30
53.95
 70
192
 0
VERTEX
 8
RECTANGLE0
 10
180.0354
 20
113.5111
 30
53.95
 70
192
 0
VERTEX
 8
RECTANGLE0
 10
180.402
 20
113.4688
 30
53.95
 70
192
 0
VERTEX
 8
RECTANGLE0
 10
180.0354
 20
113.5111
 30
53.95
 70
192
 0
VERTEX
 8
RECTANGLE0
 10
53.2354
 20
113.5111
 30
53.95
 70
192
 0
VERTEX
 8
RECTANGLE0
 10
180.0354
 20
113.5111
 30
53.95
 70
192
 0
VERTEX
 8
RECTANGLE0
 10
53.2354
 20
113.5111
 30
53.95
 70
192
 0
VERTEX
 8
RECTANGLE0
 10
52.8687
 20
113.4688
 30
53.95
 70
192
 0
VERTEX
 8
RECTANGLE0
 10
53.2354
 20
113.5111
 30
53.95
 70
192
 0
VERTEX
 8
RECTANGLE0
 10
52.8687
 20
113.4688
 30
53.95
 70
192
 0
VERTEX
 8
RECTANGLE0
 10
52.5321
 20
113.3484
 30
53.95
 70
192
 0
VERTEX
 8
RECTANGLE0
 10
52.8687
 20
113.4688
 30
53.95
 70
192
 0
VERTEX
 8
RECTANGLE0
 10
52.5321
 20
113.3484
 30
53.95
 70
192
 0
VERTEX
 8
RECTANGLE0
 10
52.235
 20
113.1594
 30
53.95
 70
192
 0
VERTEX
 8
RECTANGLE0
 10
52.5321
 20
113.3484
 30
53.95
 70
192
 0
VERTEX
 8
RECTANGLE0
 10
52.235
 20
113.1594
 30
53.95
 70
192
 0
VERTEX
 8
RECTANGLE0
 10
51.9871
 20
112.9115
 30
53.95
 70
192
 0
VERTEX
 8
RECTANGLE0
 10
52.235
 20
113.1594
 30
53.95
 70
192
 0
VERTEX
 8
RECTANGLE0
 10
51.9871
 20
112.9115
 30
53.95
 70
192
 0
VERTEX
 8
RECTANGLE0
 10
51.7981
 20
112.6144
 30
53.95
 70
192
 0
VERTEX
 8
RECTANGLE0
 10
51.9871
 20
112.9115
 30
53.95
 70
192
 0
VERTEX
 8
RECTANGLE0
 10
51.7981
 20
112.6144
 30
53.95
 70
192
 0
VERTEX
 8
RECTANGLE0
 10
51.6777
 20
112.2777
 30
53.95
 70
192
 0
VERTEX
 8
RECTANGLE0
 10
51.7981
 20
112.6144
 30
53.95
 70
192
 0
VERTEX
 8
RECTANGLE0
 10
51.6777
 20
112.2777
 30
53.95
 70
192
 0
VERTEX
 8
RECTANGLE0
 10
51.6354
 20
111.9111
 30
53.95
 70
192
 0
VERTEX
 8
RECTANGLE0
 10
51.6777
 20
112.2777
 30
53.95
 70
192
 0
VERTEX
 8
RECTANGLE0
 10
51.6354
 20
111.9111
 30
53.95
 70
192
 0
VERTEX
 8
RECTANGLE0
 10
51.6354
 20
45.1111
 30
53.95
 70
192
 0
VERTEX
 8
RECTANGLE0
 10
51.6354
 20
111.9111
 30
53.95
 70
192
 0
VERTEX
 8
RECTANGLE0
 10
51.6354
 20
45.1111
 30
53.95
 70
192
 0
VERTEX
 8
RECTANGLE0
 10
51.6777
 20
44.7445
 30
53.95
 70
192
 0
VERTEX
 8
RECTANGLE0
 10
51.6354
 20
45.1111
 30
53.95
 70
192
 0
VERTEX
 8
RECTANGLE0
 10
51.6777
 20
44.7445
 30
53.95
 70
192
 0
VERTEX
 8
RECTANGLE0
 10
51.7981
 20
44.4078
 30
53.95
 70
192
 0
VERTEX
 8
RECTANGLE0
 10
51.6777
 20
44.7445
 30
53.95
 70
192
 0
VERTEX
 8
RECTANGLE0
 10
51.7981
 20
44.4078
 30
53.95
 70
192
 0
VERTEX
 8
RECTANGLE0
 10
51.9871
 20
44.1107
 30
53.95
 70
192
 0
VERTEX
 8
RECTANGLE0
 10
51.7981
 20
44.4078
 30
53.95
 70
192
 0
VERTEX
 8
RECTANGLE0
 10
51.9871
 20
44.1107
 30
53.95
 70
192
 0
VERTEX
 8
RECTANGLE0
 10
52.235
 20
43.8629
 30
53.95
 70
192
 0
VERTEX
 8
RECTANGLE0
 10
51.9871
 20
44.1107
 30
53.95
 70
192
 0
VERTEX
 8
RECTANGLE0
 10
52.235
 20
43.8629
 30
53.95
 70
192
 0
VERTEX
 8
RECTANGLE0
 10
52.5321
 20
43.6739
 30
53.95
 70
192
 0
VERTEX
 8
RECTANGLE0
 10
52.235
 20
43.8629
 30
53.95
 70
192
 0
VERTEX
 8
RECTANGLE0
 10
52.5321
 20
43.6739
 30
53.95
 70
192
 0
VERTEX
 8
RECTANGLE0
 10
52.8687
 20
43.5534
 30
53.95
 70
192
 0
VERTEX
 8
RECTANGLE0
 10
52.5321
 20
43.6739
 30
53.95
 70
192
 0
VERTEX
 8
RECTANGLE0
 10
52.8687
 20
43.5534
 30
53.95
 70
192
 0
VERTEX
 8
RECTANGLE0
 10
53.2354
 20
43.5111
 30
53.95
 70
192
 0
VERTEX
 8
RECTANGLE0
 10
52.8687
 20
43.5534
 30
53.95
 70
192
 0
VERTEX
 8
RECTANGLE0
 10
53.2354
 20
43.5111
 30
53.95
 70
192
 0
VERTEX
 8
RECTANGLE0
 10
180.0354
 20
43.5111
 30
53.95
 70
192
 0
VERTEX
 8
RECTANGLE0
 10
53.2354
 20
43.5111
 30
53.95
 70
192
 0
VERTEX
 8
RECTANGLE0
 10
180.0354
 20
43.5111
 30
53.95
 70
192
 0
VERTEX
 8
RECTANGLE0
 10
180.402
 20
43.5534
 30
53.95
 70
192
 0
VERTEX
 8
RECTANGLE0
 10
180.0354
 20
43.5111
 30
53.95
 70
192
 0
VERTEX
 8
RECTANGLE0
 10
180.402
 20
43.5534
 30
53.95
 70
192
 0
VERTEX
 8
RECTANGLE0
 10
180.7387
 20
43.6739
 30
53.95
 70
192
 0
VERTEX
 8
RECTANGLE0
 10
180.402
 20
43.5534
 30
53.95
 70
192
 0
VERTEX
 8
RECTANGLE0
 10
180.7387
 20
43.6739
 30
53.95
 70
192
 0
VERTEX
 8
RECTANGLE0
 10
181.0357
 20
43.8629
 30
53.95
 70
192
 0
VERTEX
 8
RECTANGLE0
 10
180.7387
 20
43.6739
 30
53.95
 70
192
 0
VERTEX
 8
RECTANGLE0
 10
181.0357
 20
43.8629
 30
53.95
 70
192
 0
VERTEX
 8
RECTANGLE0
 10
181.2836
 20
44.1107
 30
53.95
 70
192
 0
VERTEX
 8
RECTANGLE0
 10
181.0357
 20
43.8629
 30
53.95
 70
192
 0
VERTEX
 8
RECTANGLE0
 10
181.2836
 20
44.1107
 30
53.95
 70
192
 0
VERTEX
 8
RECTANGLE0
 10
181.4726
 20
44.4078
 30
53.95
 70
192
 0
VERTEX
 8
RECTANGLE0
 10
181.2836
 20
44.1107
 30
53.95
 70
192
 0
VERTEX
 8
RECTANGLE0
 10
181.4726
 20
44.4078
 30
53.95
 70
192
 0
VERTEX
 8
RECTANGLE0
 10
181.5931
 20
44.7445
 30
53.95
 70
192
 0
VERTEX
 8
RECTANGLE0
 10
181.4726
 20
44.4078
 30
53.95
 70
192
 0
VERTEX
 8
RECTANGLE0
 10
181.5931
 20
44.7445
 30
53.95
 70
192
 0
VERTEX
 8
RECTANGLE0
 10
181.6354
 20
45.1111
 30
53.95
 70
192
 0
VERTEX
 8
RECTANGLE0
 10
181.5931
 20
44.7445
 30
53.95
 70
192
 0
VERTEX
 8
RECTANGLE0
 10
181.6354
 20
45.1111
 30
53.95
 70
192
 0
VERTEX
 8
RECTANGLE0
 10
181.6354
 20
111.9111
 30
53.95
 70
192
 0
VERTEX
 8
RECTANGLE0
 10
181.6354
 20
45.1111
 30
53.95
 70
192
 0
VERTEX
 8
RECTANGLE0
 10
181.6354
 20
111.9111
 30
53.95
 70
192
 0
VERTEX
 8
RECTANGLE0
 10
0
 20
0
 30
0
 70
128
 71
1
 72
33
 73
34
 74
34
 0
VERTEX
 8
RECTANGLE0
 10
0
 20
0
 30
0
 70
128
 71
34
 72
2
 73
1
 74
1
 0
VERTEX
 8
RECTANGLE0
 10
0
 20
0
 30
0
 70
128
 71
2
 72
34
 73
35
 74
35
 0
VERTEX
 8
RECTANGLE0
 10
0
 20
0
 30
0
 70
128
 71
35
 72
3
 73
2
 74
2
 0
VERTEX
 8
RECTANGLE0
 10
0
 20
0
 30
0
 70
128
 71
102
 72
101
 73
36
 74
36
 0
VERTEX
 8
RECTANGLE0
 10
0
 20
0
 30
0
 70
128
 71
36
 72
4
 73
103
 74
103
 0
VERTEX
 8
RECTANGLE0
 10
0
 20
0
 30
0
 70
128
 71
4
 72
36
 73
37
 74
37
 0
VERTEX
 8
RECTANGLE0
 10
0
 20
0
 30
0
 70
128
 71
37
 72
5
 73
4
 74
4
 0
VERTEX
 8
RECTANGLE0
 10
0
 20
0
 30
0
 70
128
 71
5
 72
37
 73
38
 74
38
 0
VERTEX
 8
RECTANGLE0
 10
0
 20
0
 30
0
 70
128
 71
38
 72
6
 73
5
 74
5
 0
VERTEX
 8
RECTANGLE0
 10
0
 20
0
 30
0
 70
128
 71
6
 72
38
 73
39
 74
39
 0
VERTEX
 8
RECTANGLE0
 10
0
 20
0
 30
0
 70
128
 71
39
 72
7
 73
6
 74
6
 0
VERTEX
 8
RECTANGLE0
 10
0
 20
0
 30
0
 70
128
 71
7
 72
39
 73
40
 74
40
 0
VERTEX
 8
RECTANGLE0
 10
0
 20
0
 30
0
 70
128
 71
40
 72
8
 73
7
 74
7
 0
VERTEX
 8
RECTANGLE0
 10
0
 20
0
 30
0
 70
128
 71
8
 72
40
 73
41
 74
41
 0
VERTEX
 8
RECTANGLE0
 10
0
 20
0
 30
0
 70
128
 71
41
 72
9
 73
8
 74
8
 0
VERTEX
 8
RECTANGLE0
 10
0
 20
0
 30
0
 70
128
 71
9
 72
41
 73
42
 74
42
 0
VERTEX
 8
RECTANGLE0
 10
0
 20
0
 30
0
 70
128
 71
42
 72
10
 73
9
 74
9
 0
VERTEX
 8
RECTANGLE0
 10
0
 20
0
 30
0
 70
128
 71
10
 72
42
 73
43
 74
43
 0
VERTEX
 8
RECTANGLE0
 10
0
 20
0
 30
0
 70
128
 71
43
 72
11
 73
10
 74
10
 0
VERTEX
 8
RECTANGLE0
 10
0
 20
0
 30
0
 70
128
 71
11
 72
43
 73
44
 74
44
 0
VERTEX
 8
RECTANGLE0
 10
0
 20
0
 30
0
 70
128
 71
44
 72
12
 73
11
 74
11
 0
VERTEX
 8
RECTANGLE0
 10
0
 20
0
 30
0
 70
128
 71
12
 72
44
 73
45
 74
45
 0
VERTEX
 8
RECTANGLE0
 10
0
 20
0
 30
0
 70
128
 71
45
 72
13
 73
12
 74
12
 0
VERTEX
 8
RECTANGLE0
 10
0
 20
0
 30
0
 70
128
 71
13
 72
45
 73
46
 74
46
 0
VERTEX
 8
RECTANGLE0
 10
0
 20
0
 30
0
 70
128
 71
46
 72
14
 73
13
 74
13
 0
VERTEX
 8
RECTANGLE0
 10
0
 20
0
 30
0
 70
128
 71
105
 72
104
 73
47
 74
47
 0
VERTEX
 8
RECTANGLE0
 10
0
 20
0
 30
0
 70
128
 71
47
 72
15
 73
106
 74
106
 0
VERTEX
 8
RECTANGLE0
 10
0
 20
0
 30
0
 70
128
 71
15
 72
47
 73
48
 74
48
 0
VERTEX
 8
RECTANGLE0
 10
0
 20
0
 30
0
 70
128
 71
48
 72
16
 73
15
 74
15
 0
VERTEX
 8
RECTANGLE0
 10
0
 20
0
 30
0
 70
128
 71
16
 72
48
 73
49
 74
49
 0
VERTEX
 8
RECTANGLE0
 10
0
 20
0
 30
0
 70
128
 71
49
 72
17
 73
16
 74
16
 0
VERTEX
 8
RECTANGLE0
 10
0
 20
0
 30
0
 70
128
 71
17
 72
49
 73
50
 74
50
 0
VERTEX
 8
RECTANGLE0
 10
0
 20
0
 30
0
 70
128
 71
50
 72
18
 73
17
 74
17
 0
VERTEX
 8
RECTANGLE0
 10
0
 20
0
 30
0
 70
128
 71
18
 72
50
 73
51
 74
51
 0
VERTEX
 8
RECTANGLE0
 10
0
 20
0
 30
0
 70
128
 71
51
 72
19
 73
18
 74
18
 0
VERTEX
 8
RECTANGLE0
 10
0
 20
0
 30
0
 70
128
 71
108
 72
107
 73
52
 74
52
 0
VERTEX
 8
RECTANGLE0
 10
0
 20
0
 30
0
 70
128
 71
52
 72
20
 73
109
 74
109
 0
VERTEX
 8
RECTANGLE0
 10
0
 20
0
 30
0
 70
128
 71
20
 72
52
 73
53
 74
53
 0
VERTEX
 8
RECTANGLE0
 10
0
 20
0
 30
0
 70
128
 71
53
 72
21
 73
20
 74
20
 0
VERTEX
 8
RECTANGLE0
 10
0
 20
0
 30
0
 70
128
 71
21
 72
53
 73
54
 74
54
 0
VERTEX
 8
RECTANGLE0
 10
0
 20
0
 30
0
 70
128
 71
54
 72
22
 73
21
 74
21
 0
VERTEX
 8
RECTANGLE0
 10
0
 20
0
 30
0
 70
128
 71
22
 72
54
 73
55
 74
55
 0
VERTEX
 8
RECTANGLE0
 10
0
 20
0
 30
0
 70
128
 71
55
 72
23
 73
22
 74
22
 0
VERTEX
 8
RECTANGLE0
 10
0
 20
0
 30
0
 70
128
 71
23
 72
55
 73
56
 74
56
 0
VERTEX
 8
RECTANGLE0
 10
0
 20
0
 30
0
 70
128
 71
56
 72
24
 73
23
 74
23
 0
VERTEX
 8
RECTANGLE0
 10
0
 20
0
 30
0
 70
128
 71
24
 72
56
 73
57
 74
57
 0
VERTEX
 8
RECTANGLE0
 10
0
 20
0
 30
0
 70
128
 71
57
 72
25
 73
24
 74
24
 0
VERTEX
 8
RECTANGLE0
 10
0
 20
0
 30
0
 70
128
 71
25
 72
57
 73
58
 74
58
 0
VERTEX
 8
RECTANGLE0
 10
0
 20
0
 30
0
 70
128
 71
58
 72
26
 73
25
 74
25
 0
VERTEX
 8
RECTANGLE0
 10
0
 20
0
 30
0
 70
128
 71
26
 72
58
 73
59
 74
59
 0
VERTEX
 8
RECTANGLE0
 10
0
 20
0
 30
0
 70
128
 71
59
 72
27
 73
26
 74
26
 0
VERTEX
 8
RECTANGLE0
 10
0
 20
0
 30
0
 70
128
 71
27
 72
59
 73
60
 74
60
 0
VERTEX
 8
RECTANGLE0
 10
0
 20
0
 30
0
 70
128
 71
60
 72
28
 73
27
 74
27
 0
VERTEX
 8
RECTANGLE0
 10
0
 20
0
 30
0
 70
128
 71
28
 72
60
 73
61
 74
61
 0
VERTEX
 8
RECTANGLE0
 10
0
 20
0
 30
0
 70
128
 71
61
 72
29
 73
28
 74
28
 0
VERTEX
 8
RECTANGLE0
 10
0
 20
0
 30
0
 70
128
 71
29
 72
61
 73
62
 74
62
 0
VERTEX
 8
RECTANGLE0
 10
0
 20
0
 30
0
 70
128
 71
62
 72
30
 73
29
 74
29
 0
VERTEX
 8
RECTANGLE0
 10
0
 20
0
 30
0
 70
128
 71
111
 72
110
 73
63
 74
63
 0
VERTEX
 8
RECTANGLE0
 10
0
 20
0
 30
0
 70
128
 71
63
 72
31
 73
112
 74
112
 0
VERTEX
 8
RECTANGLE0
 10
0
 20
0
 30
0
 70
128
 71
31
 72
63
 73
64
 74
64
 0
VERTEX
 8
RECTANGLE0
 10
0
 20
0
 30
0
 70
128
 71
64
 72
32
 73
31
 74
31
 0
VERTEX
 8
RECTANGLE0
 10
0
 20
0
 30
0
 70
128
 71
32
 72
64
 73
33
 74
33
 0
VERTEX
 8
RECTANGLE0
 10
0
 20
0
 30
0
 70
128
 71
33
 72
1
 73
32
 74
32
 0
VERTEX
 8
RECTANGLE0
 10
0
 20
0
 30
0
 70
128
 71
65
 72
68
 73
67
 74
67
 0
VERTEX
 8
RECTANGLE0
 10
0
 20
0
 30
0
 70
128
 71
67
 72
66
 73
65
 74
65
 0
VERTEX
 8
RECTANGLE0
 10
0
 20
0
 30
0
 70
128
 71
87
 72
86
 73
85
 74
85
 0
VERTEX
 8
RECTANGLE0
 10
0
 20
0
 30
0
 70
128
 71
88
 72
87
 73
85
 74
85
 0
VERTEX
 8
RECTANGLE0
 10
0
 20
0
 30
0
 70
128
 71
89
 72
88
 73
85
 74
85
 0
VERTEX
 8
RECTANGLE0
 10
0
 20
0
 30
0
 70
128
 71
90
 72
89
 73
85
 74
85
 0
VERTEX
 8
RECTANGLE0
 10
0
 20
0
 30
0
 70
128
 71
91
 72
90
 73
85
 74
85
 0
VERTEX
 8
RECTANGLE0
 10
0
 20
0
 30
0
 70
128
 71
92
 72
91
 73
85
 74
85
 0
VERTEX
 8
RECTANGLE0
 10
0
 20
0
 30
0
 70
128
 71
98
 72
97
 73
96
 74
96
 0
VERTEX
 8
RECTANGLE0
 10
0
 20
0
 30
0
 70
128
 71
98
 72
96
 73
95
 74
95
 0
VERTEX
 8
RECTANGLE0
 10
0
 20
0
 30
0
 70
128
 71
98
 72
95
 73
94
 74
94
 0
VERTEX
 8
RECTANGLE0
 10
0
 20
0
 30
0
 70
128
 71
99
 72
98
 73
94
 74
94
 0
VERTEX
 8
RECTANGLE0
 10
0
 20
0
 30
0
 70
128
 71
100
 72
99
 73
94
 74
94
 0
VERTEX
 8
RECTANGLE0
 10
0
 20
0
 30
0
 70
128
 71
100
 72
94
 73
93
 74
93
 0
VERTEX
 8
RECTANGLE0
 10
0
 20
0
 30
0
 70
128
 71
69
 72
100
 73
93
 74
93
 0
VERTEX
 8
RECTANGLE0
 10
0
 20
0
 30
0
 70
128
 71
70
 72
69
 73
93
 74
93
 0
VERTEX
 8
RECTANGLE0
 10
0
 20
0
 30
0
 70
128
 71
71
 72
70
 73
93
 74
93
 0
VERTEX
 8
RECTANGLE0
 10
0
 20
0
 30
0
 70
128
 71
72
 72
71
 73
93
 74
93
 0
VERTEX
 8
RECTANGLE0
 10
0
 20
0
 30
0
 70
128
 71
73
 72
72
 73
93
 74
93
 0
VERTEX
 8
RECTANGLE0
 10
0
 20
0
 30
0
 70
128
 71
74
 72
73
 73
93
 74
93
 0
VERTEX
 8
RECTANGLE0
 10
0
 20
0
 30
0
 70
128
 71
75
 72
74
 73
93
 74
93
 0
VERTEX
 8
RECTANGLE0
 10
0
 20
0
 30
0
 70
128
 71
76
 72
75
 73
93
 74
93
 0
VERTEX
 8
RECTANGLE0
 10
0
 20
0
 30
0
 70
128
 71
77
 72
76
 73
93
 74
93
 0
VERTEX
 8
RECTANGLE0
 10
0
 20
0
 30
0
 70
128
 71
78
 72
77
 73
93
 74
93
 0
VERTEX
 8
RECTANGLE0
 10
0
 20
0
 30
0
 70
128
 71
79
 72
78
 73
93
 74
93
 0
VERTEX
 8
RECTANGLE0
 10
0
 20
0
 30
0
 70
128
 71
80
 72
79
 73
93
 74
93
 0
VERTEX
 8
RECTANGLE0
 10
0
 20
0
 30
0
 70
128
 71
81
 72
80
 73
93
 74
93
 0
VERTEX
 8
RECTANGLE0
 10
0
 20
0
 30
0
 70
128
 71
82
 72
81
 73
93
 74
93
 0
VERTEX
 8
RECTANGLE0
 10
0
 20
0
 30
0
 70
128
 71
83
 72
82
 73
93
 74
93
 0
VERTEX
 8
RECTANGLE0
 10
0
 20
0
 30
0
 70
128
 71
84
 72
83
 73
93
 74
93
 0
VERTEX
 8
RECTANGLE0
 10
0
 20
0
 30
0
 70
128
 71
84
 72
93
 73
92
 74
92
 0
VERTEX
 8
RECTANGLE0
 10
0
 20
0
 30
0
 70
128
 71
84
 72
92
 73
85
 74
85
 0
VERTEX
 8
RECTANGLE0
 10
0
 20
0
 30
0
 70
128
 71
68
 72
114
 73
113
 74
113
 0
VERTEX
 8
RECTANGLE0
 10
0
 20
0
 30
0
 70
128
 71
65
 72
116
 73
115
 74
115
 0
VERTEX
 8
RECTANGLE0
 10
0
 20
0
 30
0
 70
128
 71
117
 72
68
 73
65
 74
65
 0
VERTEX
 8
RECTANGLE0
 10
0
 20
0
 30
0
 70
128
 71
65
 72
119
 73
118
 74
118
 0
VERTEX
 8
RECTANGLE0
 10
0
 20
0
 30
0
 70
128
 71
65
 72
121
 73
120
 74
120
 0
VERTEX
 8
RECTANGLE0
 10
0
 20
0
 30
0
 70
128
 71
65
 72
123
 73
122
 74
122
 0
VERTEX
 8
RECTANGLE0
 10
0
 20
0
 30
0
 70
128
 71
65
 72
125
 73
124
 74
124
 0
VERTEX
 8
RECTANGLE0
 10
0
 20
0
 30
0
 70
128
 71
65
 72
127
 73
126
 74
126
 0
VERTEX
 8
RECTANGLE0
 10
0
 20
0
 30
0
 70
128
 71
65
 72
129
 73
128
 74
128
 0
VERTEX
 8
RECTANGLE0
 10
0
 20
0
 30
0
 70
128
 71
65
 72
131
 73
130
 74
130
 0
VERTEX
 8
RECTANGLE0
 10
0
 20
0
 30
0
 70
128
 71
66
 72
133
 73
132
 74
132
 0
VERTEX
 8
RECTANGLE0
 10
0
 20
0
 30
0
 70
128
 71
134
 72
65
 73
66
 74
66
 0
VERTEX
 8
RECTANGLE0
 10
0
 20
0
 30
0
 70
128
 71
66
 72
136
 73
135
 74
135
 0
VERTEX
 8
RECTANGLE0
 10
0
 20
0
 30
0
 70
128
 71
66
 72
138
 73
137
 74
137
 0
VERTEX
 8
RECTANGLE0
 10
0
 20
0
 30
0
 70
128
 71
66
 72
140
 73
139
 74
139
 0
VERTEX
 8
RECTANGLE0
 10
0
 20
0
 30
0
 70
128
 71
66
 72
142
 73
141
 74
141
 0
VERTEX
 8
RECTANGLE0
 10
0
 20
0
 30
0
 70
128
 71
66
 72
144
 73
143
 74
143
 0
VERTEX
 8
RECTANGLE0
 10
0
 20
0
 30
0
 70
128
 71
66
 72
146
 73
145
 74
145
 0
VERTEX
 8
RECTANGLE0
 10
0
 20
0
 30
0
 70
128
 71
66
 72
148
 73
147
 74
147
 0
VERTEX
 8
RECTANGLE0
 10
0
 20
0
 30
0
 70
128
 71
67
 72
150
 73
149
 74
149
 0
VERTEX
 8
RECTANGLE0
 10
0
 20
0
 30
0
 70
128
 71
151
 72
66
 73
67
 74
67
 0
VERTEX
 8
RECTANGLE0
 10
0
 20
0
 30
0
 70
128
 71
67
 72
153
 73
152
 74
152
 0
VERTEX
 8
RECTANGLE0
 10
0
 20
0
 30
0
 70
128
 71
67
 72
155
 73
154
 74
154
 0
VERTEX
 8
RECTANGLE0
 10
0
 20
0
 30
0
 70
128
 71
67
 72
157
 73
156
 74
156
 0
VERTEX
 8
RECTANGLE0
 10
0
 20
0
 30
0
 70
128
 71
67
 72
159
 73
158
 74
158
 0
VERTEX
 8
RECTANGLE0
 10
0
 20
0
 30
0
 70
128
 71
67
 72
161
 73
160
 74
160
 0
VERTEX
 8
RECTANGLE0
 10
0
 20
0
 30
0
 70
128
 71
67
 72
163
 73
162
 74
162
 0
VERTEX
 8
RECTANGLE0
 10
0
 20
0
 30
0
 70
128
 71
67
 72
165
 73
164
 74
164
 0
VERTEX
 8
RECTANGLE0
 10
0
 20
0
 30
0
 70
128
 71
68
 72
167
 73
166
 74
166
 0
VERTEX
 8
RECTANGLE0
 10
0
 20
0
 30
0
 70
128
 71
168
 72
67
 73
68
 74
68
 0
VERTEX
 8
RECTANGLE0
 10
0
 20
0
 30
0
 70
128
 71
68
 72
170
 73
169
 74
169
 0
VERTEX
 8
RECTANGLE0
 10
0
 20
0
 30
0
 70
128
 71
68
 72
172
 73
171
 74
171
 0
VERTEX
 8
RECTANGLE0
 10
0
 20
0
 30
0
 70
128
 71
68
 72
174
 73
173
 74
173
 0
VERTEX
 8
RECTANGLE0
 10
0
 20
0
 30
0
 70
128
 71
68
 72
176
 73
175
 74
175
 0
VERTEX
 8
RECTANGLE0
 10
0
 20
0
 30
0
 70
128
 71
68
 72
178
 73
177
 74
177
 0
VERTEX
 8
RECTANGLE0
 10
0
 20
0
 30
0
 70
128
 71
68
 72
180
 73
179
 74
179
 0
VERTEX
 8
RECTANGLE0
 10
0
 20
0
 30
0
 70
128
 71
69
 72
70
 73
181
 74
181
 0
VERTEX
 8
RECTANGLE0
 10
0
 20
0
 30
0
 70
128
 71
183
 72
182
 73
69
 74
69
 0
VERTEX
 8
RECTANGLE0
 10
0
 20
0
 30
0
 70
128
 71
70
 72
71
 73
184
 74
184
 0
VERTEX
 8
RECTANGLE0
 10
0
 20
0
 30
0
 70
128
 71
186
 72
185
 73
70
 74
70
 0
VERTEX
 8
RECTANGLE0
 10
0
 20
0
 30
0
 70
128
 71
71
 72
72
 73
187
 74
187
 0
VERTEX
 8
RECTANGLE0
 10
0
 20
0
 30
0
 70
128
 71
189
 72
188
 73
71
 74
71
 0
VERTEX
 8
RECTANGLE0
 10
0
 20
0
 30
0
 70
128
 71
72
 72
73
 73
190
 74
190
 0
VERTEX
 8
RECTANGLE0
 10
0
 20
0
 30
0
 70
128
 71
192
 72
191
 73
72
 74
72
 0
VERTEX
 8
RECTANGLE0
 10
0
 20
0
 30
0
 70
128
 71
73
 72
74
 73
193
 74
193
 0
VERTEX
 8
RECTANGLE0
 10
0
 20
0
 30
0
 70
128
 71
195
 72
194
 73
73
 74
73
 0
VERTEX
 8
RECTANGLE0
 10
0
 20
0
 30
0
 70
128
 71
74
 72
75
 73
196
 74
196
 0
VERTEX
 8
RECTANGLE0
 10
0
 20
0
 30
0
 70
128
 71
198
 72
197
 73
74
 74
74
 0
VERTEX
 8
RECTANGLE0
 10
0
 20
0
 30
0
 70
128
 71
75
 72
76
 73
199
 74
199
 0
VERTEX
 8
RECTANGLE0
 10
0
 20
0
 30
0
 70
128
 71
201
 72
200
 73
75
 74
75
 0
VERTEX
 8
RECTANGLE0
 10
0
 20
0
 30
0
 70
128
 71
76
 72
77
 73
202
 74
202
 0
VERTEX
 8
RECTANGLE0
 10
0
 20
0
 30
0
 70
128
 71
204
 72
203
 73
76
 74
76
 0
VERTEX
 8
RECTANGLE0
 10
0
 20
0
 30
0
 70
128
 71
77
 72
78
 73
205
 74
205
 0
VERTEX
 8
RECTANGLE0
 10
0
 20
0
 30
0
 70
128
 71
207
 72
206
 73
77
 74
77
 0
VERTEX
 8
RECTANGLE0
 10
0
 20
0
 30
0
 70
128
 71
78
 72
79
 73
208
 74
208
 0
VERTEX
 8
RECTANGLE0
 10
0
 20
0
 30
0
 70
128
 71
210
 72
209
 73
78
 74
78
 0
VERTEX
 8
RECTANGLE0
 10
0
 20
0
 30
0
 70
128
 71
79
 72
80
 73
211
 74
211
 0
VERTEX
 8
RECTANGLE0
 10
0
 20
0
 30
0
 70
128
 71
213
 72
212
 73
79
 74
79
 0
VERTEX
 8
RECTANGLE0
 10
0
 20
0
 30
0
 70
128
 71
80
 72
81
 73
214
 74
214
 0
VERTEX
 8
RECTANGLE0
 10
0
 20
0
 30
0
 70
128
 71
216
 72
215
 73
80
 74
80
 0
VERTEX
 8
RECTANGLE0
 10
0
 20
0
 30
0
 70
128
 71
81
 72
82
 73
217
 74
217
 0
VERTEX
 8
RECTANGLE0
 10
0
 20
0
 30
0
 70
128
 71
219
 72
218
 73
81
 74
81
 0
VERTEX
 8
RECTANGLE0
 10
0
 20
0
 30
0
 70
128
 71
82
 72
83
 73
220
 74
220
 0
VERTEX
 8
RECTANGLE0
 10
0
 20
0
 30
0
 70
128
 71
222
 72
221
 73
82
 74
82
 0
VERTEX
 8
RECTANGLE0
 10
0
 20
0
 30
0
 70
128
 71
83
 72
84
 73
223
 74
223
 0
VERTEX
 8
RECTANGLE0
 10
0
 20
0
 30
0
 70
128
 71
225
 72
224
 73
83
 74
83
 0
VERTEX
 8
RECTANGLE0
 10
0
 20
0
 30
0
 70
128
 71
84
 72
85
 73
226
 74
226
 0
VERTEX
 8
RECTANGLE0
 10
0
 20
0
 30
0
 70
128
 71
228
 72
227
 73
84
 74
84
 0
VERTEX
 8
RECTANGLE0
 10
0
 20
0
 30
0
 70
128
 71
85
 72
86
 73
229
 74
229
 0
VERTEX
 8
RECTANGLE0
 10
0
 20
0
 30
0
 70
128
 71
231
 72
230
 73
85
 74
85
 0
VERTEX
 8
RECTANGLE0
 10
0
 20
0
 30
0
 70
128
 71
86
 72
87
 73
232
 74
232
 0
VERTEX
 8
RECTANGLE0
 10
0
 20
0
 30
0
 70
128
 71
234
 72
233
 73
86
 74
86
 0
VERTEX
 8
RECTANGLE0
 10
0
 20
0
 30
0
 70
128
 71
87
 72
88
 73
235
 74
235
 0
VERTEX
 8
RECTANGLE0
 10
0
 20
0
 30
0
 70
128
 71
237
 72
236
 73
87
 74
87
 0
VERTEX
 8
RECTANGLE0
 10
0
 20
0
 30
0
 70
128
 71
88
 72
89
 73
238
 74
238
 0
VERTEX
 8
RECTANGLE0
 10
0
 20
0
 30
0
 70
128
 71
240
 72
239
 73
88
 74
88
 0
VERTEX
 8
RECTANGLE0
 10
0
 20
0
 30
0
 70
128
 71
89
 72
90
 73
241
 74
241
 0
VERTEX
 8
RECTANGLE0
 10
0
 20
0
 30
0
 70
128
 71
243
 72
242
 73
89
 74
89
 0
VERTEX
 8
RECTANGLE0
 10
0
 20
0
 30
0
 70
128
 71
90
 72
91
 73
244
 74
244
 0
VERTEX
 8
RECTANGLE0
 10
0
 20
0
 30
0
 70
128
 71
246
 72
245
 73
90
 74
90
 0
VERTEX
 8
RECTANGLE0
 10
0
 20
0
 30
0
 70
128
 71
91
 72
92
 73
247
 74
247
 0
VERTEX
 8
RECTANGLE0
 10
0
 20
0
 30
0
 70
128
 71
249
 72
248
 73
91
 74
91
 0
VERTEX
 8
RECTANGLE0
 10
0
 20
0
 30
0
 70
128
 71
92
 72
93
 73
250
 74
250
 0
VERTEX
 8
RECTANGLE0
 10
0
 20
0
 30
0
 70
128
 71
252
 72
251
 73
92
 74
92
 0
VERTEX
 8
RECTANGLE0
 10
0
 20
0
 30
0
 70
128
 71
93
 72
94
 73
253
 74
253
 0
VERTEX
 8
RECTANGLE0
 10
0
 20
0
 30
0
 70
128
 71
255
 72
254
 73
93
 74
93
 0
VERTEX
 8
RECTANGLE0
 10
0
 20
0
 30
0
 70
128
 71
94
 72
95
 73
256
 74
256
 0
VERTEX
 8
RECTANGLE0
 10
0
 20
0
 30
0
 70
128
 71
258
 72
257
 73
94
 74
94
 0
VERTEX
 8
RECTANGLE0
 10
0
 20
0
 30
0
 70
128
 71
95
 72
96
 73
259
 74
259
 0
VERTEX
 8
RECTANGLE0
 10
0
 20
0
 30
0
 70
128
 71
261
 72
260
 73
95
 74
95
 0
VERTEX
 8
RECTANGLE0
 10
0
 20
0
 30
0
 70
128
 71
96
 72
97
 73
262
 74
262
 0
VERTEX
 8
RECTANGLE0
 10
0
 20
0
 30
0
 70
128
 71
264
 72
263
 73
96
 74
96
 0
VERTEX
 8
RECTANGLE0
 10
0
 20
0
 30
0
 70
128
 71
97
 72
98
 73
265
 74
265
 0
VERTEX
 8
RECTANGLE0
 10
0
 20
0
 30
0
 70
128
 71
267
 72
266
 73
97
 74
97
 0
VERTEX
 8
RECTANGLE0
 10
0
 20
0
 30
0
 70
128
 71
98
 72
99
 73
268
 74
268
 0
VERTEX
 8
RECTANGLE0
 10
0
 20
0
 30
0
 70
128
 71
270
 72
269
 73
98
 74
98
 0
VERTEX
 8
RECTANGLE0
 10
0
 20
0
 30
0
 70
128
 71
99
 72
100
 73
271
 74
271
 0
VERTEX
 8
RECTANGLE0
 10
0
 20
0
 30
0
 70
128
 71
273
 72
272
 73
99
 74
99
 0
VERTEX
 8
RECTANGLE0
 10
0
 20
0
 30
0
 70
128
 71
100
 72
69
 73
274
 74
274
 0
VERTEX
 8
RECTANGLE0
 10
0
 20
0
 30
0
 70
128
 71
276
 72
275
 73
100
 74
100
 0
SEQEND
 0
POLYLINE
 8
RECTANGLE1
 66
1
 10
0.0
 20
0.0
 30
0.0
 70
64
 71
424
 72
792
 0
VERTEX
 8
RECTANGLE1
 10
62.461
 20
47.7569
 30
51.1151
 70
192
 0
VERTEX
 8
RECTANGLE1
 10
62.461
 20
109.2653
 30
51.1151
 70
192
 0
VERTEX
 8
RECTANGLE1
 10
62.461
 20
109.6781
 30
51.0706
 70
192
 0
VERTEX
 8
RECTANGLE1
 10
62.461
 20
110.0612
 30
50.943
 70
192
 0
VERTEX
 8
RECTANGLE1
 10
62.461
 20
110.4046
 30
50.7415
 70
192
 0
VERTEX
 8
RECTANGLE1
 10
62.461
 20
110.6983
 30
50.4751
 70
192
 0
VERTEX
 8
RECTANGLE1
 10
62.461
 20
110.9323
 30
50.1529
 70
192
 0
VERTEX
 8
RECTANGLE1
 10
62.461
 20
111.0966
 30
49.7841
 70
192
 0
VERTEX
 8
RECTANGLE1
 10
62.461
 20
111.1811
 30
49.3776
 70
192
 0
VERTEX
 8
RECTANGLE1
 10
62.461
 20
115.8412
 30
1.7375
 70
192
 0
VERTEX
 8
RECTANGLE1
 10
62.461
 20
115.8315
 30
1.3485
 70
192
 0
VERTEX
 8
RECTANGLE1
 10
62.461
 20
115.732
 30
0.9864
 70
192
 0
VERTEX
 8
RECTANGLE1
 10
62.461
 20
115.5533
 30
0.6633
 70
192
 0
VERTEX
 8
RECTANGLE1
 10
62.461
 20
115.3064
 30
0.3911
 70
192
 0
VERTEX
 8
RECTANGLE1
 10
62.461
 20
115.0022
 30
0.1818
 70
192
 0
VERTEX
 8
RECTANGLE1
 10
62.461
 20
114.6516
 30
0.0474
 70
192
 0
VERTEX
 8
RECTANGLE1
 10
62.461
 20
114.2653
 30
0
 70
192
 0
VERTEX
 8
RECTANGLE1
 10
62.461
 20
42.7569
 30
0
 70
192
 0
VERTEX
 8
RECTANGLE1
 10
62.461
 20
42.3707
 30
0.0474
 70
192
 0
VERTEX
 8
RECTANGLE1
 10
62.461
 20
42.02
 30
0.1818
 70
192
 0
VERTEX
 8
RECTANGLE1
 10
62.461
 20
41.7158
 30
0.3911
 70
192
 0
VERTEX
 8
RECTANGLE1
 10
62.461
 20
41.4689
 30
0.6633
 70
192
 0
VERTEX
 8
RECTANGLE1
 10
62.461
 20
41.2903
 30
0.9864
 70
192
 0
VERTEX
 8
RECTANGLE1
 10
62.461
 20
41.1907
 30
1.3485
 70
192
 0
VERTEX
 8
RECTANGLE1
 10
62.461
 20
41.1811
 30
1.7375
 70
192
 0
VERTEX
 8
RECTANGLE1
 10
62.461
 20
45.8412
 30
49.3776
 70
192
 0
VERTEX
 8
RECTANGLE1
 10
62.461
 20
45.9257
 30
49.7841
 70
192
 0
VERTEX
 8
RECTANGLE1
 10
62.461
 20
46.09
 30
50.1529
 70
192
 0
VERTEX
 8
RECTANGLE1
 10
62.461
 20
46.324
 30
50.4751
 70
192
 0
VERTEX
 8
RECTANGLE1
 10
62.461
 20
46.6177
 30
50.7414
 70
192
 0
VERTEX
 8
RECTANGLE1
 10
62.461
 20
46.9611
 30
50.943
 70
192
 0
VERTEX
 8
RECTANGLE1
 10
62.461
 20
47.3442
 30
51.0706
 70
192
 0
VERTEX
 8
RECTANGLE1
 10
57.461
 20
47.7569
 30
51.1151
 70
192
 0
VERTEX
 8
RECTANGLE1
 10
57.461
 20
109.2653
 30
51.1151
 70
192
 0
VERTEX
 8
RECTANGLE1
 10
57.461
 20
109.6781
 30
51.0706
 70
192
 0
VERTEX
 8
RECTANGLE1
 10
57.461
 20
110.0612
 30
50.943
 70
192
 0
VERTEX
 8
RECTANGLE1
 10
57.461
 20
110.4046
 30
50.7415
 70
192
 0
VERTEX
 8
RECTANGLE1
 10
57.461
 20
110.6983
 30
50.4751
 70
192
 0
VERTEX
 8
RECTANGLE1
 10
57.461
 20
110.9323
 30
50.1529
 70
192
 0
VERTEX
 8
RECTANGLE1
 10
57.461
 20
111.0966
 30
49.7841
 70
192
 0
VERTEX
 8
RECTANGLE1
 10
57.461
 20
111.1811
 30
49.3776
 70
192
 0
VERTEX
 8
RECTANGLE1
 10
57.461
 20
115.8412
 30
1.7375
 70
192
 0
VERTEX
 8
RECTANGLE1
 10
57.461
 20
115.8315
 30
1.3485
 70
192
 0
VERTEX
 8
RECTANGLE1
 10
57.461
 20
115.732
 30
0.9864
 70
192
 0
VERTEX
 8
RECTANGLE1
 10
57.461
 20
115.5533
 30
0.6633
 70
192
 0
VERTEX
 8
RECTANGLE1
 10
57.461
 20
115.3064
 30
0.3911
 70
192
 0
VERTEX
 8
RECTANGLE1
 10
57.461
 20
115.0022
 30
0.1818
 70
192
 0
VERTEX
 8
RECTANGLE1
 10
57.461
 20
114.6516
 30
0.0474
 70
192
 0
VERTEX
 8
RECTANGLE1
 10
57.461
 20
114.2653
 30
0
 70
192
 0
VERTEX
 8
RECTANGLE1
 10
57.461
 20
42.7569
 30
0
 70
192
 0
VERTEX
 8
RECTANGLE1
 10
57.461
 20
42.3707
 30
0.0474
 70
192
 0
VERTEX
 8
RECTANGLE1
 10
57.461
 20
42.02
 30
0.1818
 70
192
 0
VERTEX
 8
RECTANGLE1
 10
57.461
 20
41.7158
 30
0.3911
 70
192
 0
VERTEX
 8
RECTANGLE1
 10
57.461
 20
41.4689
 30
0.6633
 70
192
 0
VERTEX
 8
RECTANGLE1
 10
57.461
 20
41.2903
 30
0.9864
 70
192
 0
VERTEX
 8
RECTANGLE1
 10
57.461
 20
41.1907
 30
1.3485
 70
192
 0
VERTEX
 8
RECTANGLE1
 10
57.461
 20
41.1811
 30
1.7375
 70
192
 0
VERTEX
 8
RECTANGLE1
 10
57.461
 20
45.8412
 30
49.3776
 70
192
 0
VERTEX
 8
RECTANGLE1
 10
57.461
 20
45.9257
 30
49.7841
 70
192
 0
VERTEX
 8
RECTANGLE1
 10
57.461
 20
46.09
 30
50.1529
 70
192
 0
VERTEX
 8
RECTANGLE1
 10
57.461
 20
46.324
 30
50.4751
 70
192
 0
VERTEX
 8
RECTANGLE1
 10
57.461
 20
46.6177
 30
50.7415
 70
192
 0
VERTEX
 8
RECTANGLE1
 10
57.461
 20
46.9611
 30
50.943
 70
192
 0
VERTEX
 8
RECTANGLE1
 10
57.461
 20
47.3442
 30
51.0706
 70
192
 0
VERTEX
 8
RECTANGLE1
 10
62.461
 20
47.4643
 30
50.5319
 70
192
 0
VERTEX
 8
RECTANGLE1
 10
62.461
 20
47.1906
 30
50.4406
 70
192
 0
VERTEX
 8
RECTANGLE1
 10
62.461
 20
46.9451
 30
50.2964
 70
192
 0
VERTEX
 8
RECTANGLE1
 10
62.461
 20
46.735
 30
50.1059
 70
192
 0
VERTEX
 8
RECTANGLE1
 10
62.461
 20
46.5676
 30
49.8756
 70
192
 0
VERTEX
 8
RECTANGLE1
 10
62.461
 20
46.4501
 30
49.6121
 70
192
 0
VERTEX
 8
RECTANGLE1
 10
62.461
 20
46.3896
 30
49.3219
 70
192
 0
VERTEX
 8
RECTANGLE1
 10
62.461
 20
41.73
 30
1.6862
 70
192
 0
VERTEX
 8
RECTANGLE1
 10
62.461
 20
41.7364
 30
1.4324
 70
192
 0
VERTEX
 8
RECTANGLE1
 10
62.461
 20
41.8016
 30
1.196
 70
192
 0
VERTEX
 8
RECTANGLE1
 10
62.461
 20
41.9184
 30
0.985
 70
192
 0
VERTEX
 8
RECTANGLE1
 10
62.461
 20
42.0798
 30
0.8071
 70
192
 0
VERTEX
 8
RECTANGLE1
 10
62.461
 20
42.2785
 30
0.6702
 70
192
 0
VERTEX
 8
RECTANGLE1
 10
62.461
 20
42.5074
 30
0.5823
 70
192
 0
VERTEX
 8
RECTANGLE1
 10
62.461
 20
42.7593
 30
0.5513
 70
192
 0
VERTEX
 8
RECTANGLE1
 10
62.461
 20
114.263
 30
0.5513
 70
192
 0
VERTEX
 8
RECTANGLE1
 10
62.461
 20
114.5149
 30
0.5823
 70
192
 0
VERTEX
 8
RECTANGLE1
 10
62.461
 20
114.7438
 30
0.6702
 70
192
 0
VERTEX
 8
RECTANGLE1
 10
62.461
 20
114.9425
 30
0.8071
 70
192
 0
VERTEX
 8
RECTANGLE1
 10
62.461
 20
115.1038
 30
0.985
 70
192
 0
VERTEX
 8
RECTANGLE1
 10
62.461
 20
115.2207
 30
1.1961
 70
192
 0
VERTEX
 8
RECTANGLE1
 10
62.461
 20
115.2859
 30
1.4324
 70
192
 0
VERTEX
 8
RECTANGLE1
 10
62.461
 20
115.2923
 30
1.6862
 70
192
 0
VERTEX
 8
RECTANGLE1
 10
62.461
 20
110.6326
 30
49.3219
 70
192
 0
VERTEX
 8
RECTANGLE1
 10
62.461
 20
110.5722
 30
49.6121
 70
192
 0
VERTEX
 8
RECTANGLE1
 10
62.461
 20
110.4546
 30
49.8756
 70
192
 0
VERTEX
 8
RECTANGLE1
 10
62.461
 20
110.2872
 30
50.1059
 70
192
 0
VERTEX
 8
RECTANGLE1
 10
62.461
 20
110.0771
 30
50.2964
 70
192
 0
VERTEX
 8
RECTANGLE1
 10
62.461
 20
109.8317
 30
50.4406
 70
192
 0
VERTEX
 8
RECTANGLE1
 10
62.461
 20
109.5579
 30
50.5319
 70
192
 0
VERTEX
 8
RECTANGLE1
 10
62.461
 20
109.2633
 30
50.5638
 70
192
 0
VERTEX
 8
RECTANGLE1
 10
62.461
 20
47.759
 30
50.5638
 70
192
 0
VERTEX
 8
RECTANGLE1
 10
57.461
 20
47.4643
 30
50.5319
 70
192
 0
VERTEX
 8
RECTANGLE1
 10
57.461
 20
47.1906
 30
50.4406
 70
192
 0
VERTEX
 8
RECTANGLE1
 10
57.461
 20
46.9451
 30
50.2964
 70
192
 0
VERTEX
 8
RECTANGLE1
 10
57.461
 20
46.735
 30
50.1059
 70
192
 0
VERTEX
 8
RECTANGLE1
 10
57.461
 20
46.5676
 30
49.8756
 70
192
 0
VERTEX
 8
RECTANGLE1
 10
57.461
 20
46.4501
 30
49.6121
 70
192
 0
VERTEX
 8
RECTANGLE1
 10
57.461
 20
46.3896
 30
49.3219
 70
192
 0
VERTEX
 8
RECTANGLE1
 10
57.461
 20
41.73
 30
1.6862
 70
192
 0
VERTEX
 8
RECTANGLE1
 10
57.461
 20
41.7364
 30
1.4324
 70
192
 0
VERTEX
 8
RECTANGLE1
 10
57.461
 20
41.8016
 30
1.196
 70
192
 0
VERTEX
 8
RECTANGLE1
 10
57.461
 20
41.9184
 30
0.985
 70
192
 0
VERTEX
 8
RECTANGLE1
 10
57.461
 20
42.0798
 30
0.8071
 70
192
 0
VERTEX
 8
RECTANGLE1
 10
57.461
 20
42.2785
 30
0.6702
 70
192
 0
VERTEX
 8
RECTANGLE1
 10
57.461
 20
42.5074
 30
0.5823
 70
192
 0
VERTEX
 8
RECTANGLE1
 10
57.461
 20
42.7593
 30
0.5513
 70
192
 0
VERTEX
 8
RECTANGLE1
 10
57.461
 20
114.263
 30
0.5513
 70
192
 0
VERTEX
 8
RECTANGLE1
 10
57.461
 20
114.5149
 30
0.5823
 70
192
 0
VERTEX
 8
RECTANGLE1
 10
57.461
 20
114.7438
 30
0.6702
 70
192
 0
VERTEX
 8
RECTANGLE1
 10
57.461
 20
114.9425
 30
0.8071
 70
192
 0
VERTEX
 8
RECTANGLE1
 10
57.461
 20
115.1038
 30
0.985
 70
192
 0
VERTEX
 8
RECTANGLE1
 10
57.461
 20
115.2207
 30
1.1961
 70
192
 0
VERTEX
 8
RECTANGLE1
 10
57.461
 20
115.2859
 30
1.4324
 70
192
 0
VERTEX
 8
RECTANGLE1
 10
57.461
 20
115.2923
 30
1.6862
 70
192
 0
VERTEX
 8
RECTANGLE1
 10
57.461
 20
110.6326
 30
49.3219
 70
192
 0
VERTEX
 8
RECTANGLE1
 10
57.461
 20
110.5722
 30
49.6121
 70
192
 0
VERTEX
 8
RECTANGLE1
 10
57.461
 20
110.4546
 30
49.8756
 70
192
 0
VERTEX
 8
RECTANGLE1
 10
57.461
 20
110.2872
 30
50.1059
 70
192
 0
VERTEX
 8
RECTANGLE1
 10
57.461
 20
110.0771
 30
50.2964
 70
192
 0
VERTEX
 8
RECTANGLE1
 10
57.461
 20
109.8317
 30
50.4406
 70
192
 0
VERTEX
 8
RECTANGLE1
 10
57.461
 20
109.5579
 30
50.5319
 70
192
 0
VERTEX
 8
RECTANGLE1
 10
57.461
 20
109.2633
 30
50.5638
 70
192
 0
VERTEX
 8
RECTANGLE1
 10
57.461
 20
47.759
 30
50.5638
 70
192
 0
VERTEX
 8
RECTANGLE1
 10
70.4088
 20
78.5111
 30
51.1151
 70
192
 0
VERTEX
 8
RECTANGLE1
 10
66.5803
 20
78.5111
 30
0
 70
192
 0
VERTEX
 8
RECTANGLE1
 10
66.9666
 20
78.5111
 30
0.0474
 70
192
 0
VERTEX
 8
RECTANGLE1
 10
67.3172
 20
78.5111
 30
0.1818
 70
192
 0
VERTEX
 8
RECTANGLE1
 10
67.6214
 20
78.5111
 30
0.3911
 70
192
 0
VERTEX
 8
RECTANGLE1
 10
67.8683
 20
78.5111
 30
0.6633
 70
192
 0
VERTEX
 8
RECTANGLE1
 10
68.0469
 20
78.5111
 30
0.9864
 70
192
 0
VERTEX
 8
RECTANGLE1
 10
68.1465
 20
78.5111
 30
1.3485
 70
192
 0
VERTEX
 8
RECTANGLE1
 10
68.1561
 20
78.5111
 30
1.7375
 70
192
 0
VERTEX
 8
RECTANGLE1
 10
72.3245
 20
78.5111
 30
49.3776
 70
192
 0
VERTEX
 8
RECTANGLE1
 10
72.24
 20
78.5111
 30
49.7841
 70
192
 0
VERTEX
 8
RECTANGLE1
 10
72.0757
 20
78.5111
 30
50.1529
 70
192
 0
VERTEX
 8
RECTANGLE1
 10
71.8417
 20
78.5111
 30
50.4751
 70
192
 0
VERTEX
 8
RECTANGLE1
 10
71.548
 20
78.5111
 30
50.7415
 70
192
 0
VERTEX
 8
RECTANGLE1
 10
71.2046
 20
78.5111
 30
50.943
 70
192
 0
VERTEX
 8
RECTANGLE1
 10
70.8215
 20
78.5111
 30
51.0706
 70
192
 0
VERTEX
 8
RECTANGLE1
 10
70.4088
 20
73.5111
 30
51.1151
 70
192
 0
VERTEX
 8
RECTANGLE1
 10
66.5803
 20
73.5111
 30
0
 70
192
 0
VERTEX
 8
RECTANGLE1
 10
66.9666
 20
73.5111
 30
0.0474
 70
192
 0
VERTEX
 8
RECTANGLE1
 10
67.3172
 20
73.5111
 30
0.1818
 70
192
 0
VERTEX
 8
RECTANGLE1
 10
67.6214
 20
73.5111
 30
0.3911
 70
192
 0
VERTEX
 8
RECTANGLE1
 10
67.8683
 20
73.5111
 30
0.6633
 70
192
 0
VERTEX
 8
RECTANGLE1
 10
68.0469
 20
73.5111
 30
0.9864
 70
192
 0
VERTEX
 8
RECTANGLE1
 10
68.1465
 20
73.5111
 30
1.3485
 70
192
 0
VERTEX
 8
RECTANGLE1
 10
68.1561
 20
73.5111
 30
1.7375
 70
192
 0
VERTEX
 8
RECTANGLE1
 10
72.3245
 20
73.5111
 30
49.3776
 70
192
 0
VERTEX
 8
RECTANGLE1
 10
72.24
 20
73.5111
 30
49.7841
 70
192
 0
VERTEX
 8
RECTANGLE1
 10
72.0757
 20
73.5111
 30
50.1529
 70
192
 0
VERTEX
 8
RECTANGLE1
 10
71.8417
 20
73.5111
 30
50.4751
 70
192
 0
VERTEX
 8
RECTANGLE1
 10
71.548
 20
73.5111
 30
50.7415
 70
192
 0
VERTEX
 8
RECTANGLE1
 10
71.2046
 20
73.5111
 30
50.943
 70
192
 0
VERTEX
 8
RECTANGLE1
 10
70.8215
 20
73.5111
 30
51.0706
 70
192
 0
VERTEX
 8
RECTANGLE1
 10
70.7014
 20
78.5111
 30
50.5319
 70
192
 0
VERTEX
 8
RECTANGLE1
 10
70.9751
 20
78.5111
 30
50.4406
 70
192
 0
VERTEX
 8
RECTANGLE1
 10
71.2206
 20
78.5111
 30
50.2964
 70
192
 0
VERTEX
 8
RECTANGLE1
 10
71.4306
 20
78.5111
 30
50.1059
 70
192
 0
VERTEX
 8
RECTANGLE1
 10
71.5981
 20
78.5111
 30
49.8756
 70
192
 0
VERTEX
 8
RECTANGLE1
 10
71.7156
 20
78.5111
 30
49.6121
 70
192
 0
VERTEX
 8
RECTANGLE1
 10
71.776
 20
78.5111
 30
49.3219
 70
192
 0
VERTEX
 8
RECTANGLE1
 10
67.6072
 20
78.5111
 30
1.6862
 70
192
 0
VERTEX
 8
RECTANGLE1
 10
67.6008
 20
78.5111
 30
1.4324
 70
192
 0
VERTEX
 8
RECTANGLE1
 10
67.5356
 20
78.5111
 30
1.196
 70
192
 0
VERTEX
 8
RECTANGLE1
 10
67.4188
 20
78.5111
 30
0.985
 70
192
 0
VERTEX
 8
RECTANGLE1
 10
67.2574
 20
78.5111
 30
0.8071
 70
192
 0
VERTEX
 8
RECTANGLE1
 10
67.0587
 20
78.5111
 30
0.6702
 70
192
 0
VERTEX
 8
RECTANGLE1
 10
66.8298
 20
78.5111
 30
0.5823
 70
192
 0
VERTEX
 8
RECTANGLE1
 10
66.5779
 20
78.5111
 30
0.5513
 70
192
 0
VERTEX
 8
RECTANGLE1
 10
70.4067
 20
78.5111
 30
50.5638
 70
192
 0
VERTEX
 8
RECTANGLE1
 10
70.7014
 20
73.5111
 30
50.5319
 70
192
 0
VERTEX
 8
RECTANGLE1
 10
70.9751
 20
73.5111
 30
50.4406
 70
192
 0
VERTEX
 8
RECTANGLE1
 10
71.2206
 20
73.5111
 30
50.2964
 70
192
 0
VERTEX
 8
RECTANGLE1
 10
71.4306
 20
73.5111
 30
50.1059
 70
192
 0
VERTEX
 8
RECTANGLE1
 10
71.5981
 20
73.5111
 30
49.8756
 70
192
 0
VERTEX
 8
RECTANGLE1
 10
71.7156
 20
73.5111
 30
49.6121
 70
192
 0
VERTEX
 8
RECTANGLE1
 10
71.776
 20
73.5111
 30
49.3219
 70
192
 0
VERTEX
 8
RECTANGLE1
 10
67.6072
 20
73.5111
 30
1.6862
 70
192
 0
VERTEX
 8
RECTANGLE1
 10
67.6008
 20
73.5111
 30
1.4324
 70
192
 0
VERTEX
 8
RECTANGLE1
 10
67.5356
 20
73.5111
 30
1.196
 70
192
 0
VERTEX
 8
RECTANGLE1
 10
67.4188
 20
73.5111
 30
0.985
 70
192
 0
VERTEX
 8
RECTANGLE1
 10
67.2574
 20
73.5111
 30
0.8071
 70
192
 0
VERTEX
 8
RECTANGLE1
 10
67.0587
 20
73.5111
 30
0.6702
 70
192
 0
VERTEX
 8
RECTANGLE1
 10
66.8298
 20
73.5111
 30
0.5823
 70
192
 0
VERTEX
 8
RECTANGLE1
 10
66.5779
 20
73.5111
 30
0.5513
 70
192
 0
VERTEX
 8
RECTANGLE1
 10
70.4067
 20
73.5111
 30
50.5638
 70
192
 0
VERTEX
 8
RECTANGLE1
 10
62.4745
 20
78.5111
 30
51.1151
 70
192
 0
VERTEX
 8
RECTANGLE1
 10
62.4745
 20
73.5111
 30
51.1151
 70
192
 0
VERTEX
 8
RECTANGLE1
 10
62.4745
 20
73.5111
 30
0
 70
192
 0
VERTEX
 8
RECTANGLE1
 10
62.4745
 20
78.5111
 30
0
 70
192
 0
VERTEX
 8
RECTANGLE1
 10
62.4745
 20
78.5111
 30
0.5513
 70
192
 0
VERTEX
 8
RECTANGLE1
 10
62.4745
 20
73.5111
 30
0.5513
 70
192
 0
VERTEX
 8
RECTANGLE1
 10
62.4745
 20
73.5111
 30
50.5638
 70
192
 0
VERTEX
 8
RECTANGLE1
 10
62.4745
 20
78.5111
 30
50.5638
 70
192
 0
VERTEX
 8
RECTANGLE1
 10
170.8097
 20
47.7569
 30
51.1151
 70
192
 0
VERTEX
 8
RECTANGLE1
 10
170.8097
 20
109.2653
 30
51.1151
 70
192
 0
VERTEX
 8
RECTANGLE1
 10
170.8097
 20
109.6781
 30
51.0706
 70
192
 0
VERTEX
 8
RECTANGLE1
 10
170.8097
 20
110.0611
 30
50.943
 70
192
 0
VERTEX
 8
RECTANGLE1
 10
170.8097
 20
110.4046
 30
50.7414
 70
192
 0
VERTEX
 8
RECTANGLE1
 10
170.8097
 20
110.6983
 30
50.4751
 70
192
 0
VERTEX
 8
RECTANGLE1
 10
170.8097
 20
110.9323
 30
50.1529
 70
192
 0
VERTEX
 8
RECTANGLE1
 10
170.8097
 20
111.0966
 30
49.7841
 70
192
 0
VERTEX
 8
RECTANGLE1
 10
170.8097
 20
111.1811
 30
49.3776
 70
192
 0
VERTEX
 8
RECTANGLE1
 10
170.8097
 20
115.8412
 30
1.7375
 70
192
 0
VERTEX
 8
RECTANGLE1
 10
170.8097
 20
115.8315
 30
1.3485
 70
192
 0
VERTEX
 8
RECTANGLE1
 10
170.8097
 20
115.732
 30
0.9864
 70
192
 0
VERTEX
 8
RECTANGLE1
 10
170.8097
 20
115.5533
 30
0.6633
 70
192
 0
VERTEX
 8
RECTANGLE1
 10
170.8097
 20
115.3064
 30
0.3911
 70
192
 0
VERTEX
 8
RECTANGLE1
 10
170.8097
 20
115.0022
 30
0.1818
 70
192
 0
VERTEX
 8
RECTANGLE1
 10
170.8097
 20
114.6516
 30
0.0474
 70
192
 0
VERTEX
 8
RECTANGLE1
 10
170.8097
 20
114.2653
 30
0
 70
192
 0
VERTEX
 8
RECTANGLE1
 10
170.8097
 20
42.7569
 30
0
 70
192
 0
VERTEX
 8
RECTANGLE1
 10
170.8097
 20
42.3707
 30
0.0474
 70
192
 0
VERTEX
 8
RECTANGLE1
 10
170.8097
 20
42.02
 30
0.1818
 70
192
 0
VERTEX
 8
RECTANGLE1
 10
170.8097
 20
41.7158
 30
0.3911
 70
192
 0
VERTEX
 8
RECTANGLE1
 10
170.8097
 20
41.4689
 30
0.6633
 70
192
 0
VERTEX
 8
RECTANGLE1
 10
170.8097
 20
41.2903
 30
0.9864
 70
192
 0
VERTEX
 8
RECTANGLE1
 10
170.8097
 20
41.1907
 30
1.3485
 70
192
 0
VERTEX
 8
RECTANGLE1
 10
170.8097
 20
41.1811
 30
1.7375
 70
192
 0
VERTEX
 8
RECTANGLE1
 10
170.8097
 20
45.8412
 30
49.3776
 70
192
 0
VERTEX
 8
RECTANGLE1
 10
170.8097
 20
45.9257
 30
49.7841
 70
192
 0
VERTEX
 8
RECTANGLE1
 10
170.8097
 20
46.0899
 30
50.1529
 70
192
 0
VERTEX
 8
RECTANGLE1
 10
170.8097
 20
46.324
 30
50.475
 70
192
 0
VERTEX
 8
RECTANGLE1
 10
170.8097
 20
46.6177
 30
50.7414
 70
192
 0
VERTEX
 8
RECTANGLE1
 10
170.8097
 20
46.9611
 30
50.943
 70
192
 0
VERTEX
 8
RECTANGLE1
 10
170.8097
 20
47.3442
 30
51.0706
 70
192
 0
VERTEX
 8
RECTANGLE1
 10
175.8097
 20
47.7569
 30
51.1151
 70
192
 0
VERTEX
 8
RECTANGLE1
 10
175.8097
 20
109.2653
 30
51.1151
 70
192
 0
VERTEX
 8
RECTANGLE1
 10
175.8097
 20
109.6781
 30
51.0706
 70
192
 0
VERTEX
 8
RECTANGLE1
 10
175.8097
 20
110.0612
 30
50.943
 70
192
 0
VERTEX
 8
RECTANGLE1
 10
175.8097
 20
110.4046
 30
50.7414
 70
192
 0
VERTEX
 8
RECTANGLE1
 10
175.8097
 20
110.6983
 30
50.4751
 70
192
 0
VERTEX
 8
RECTANGLE1
 10
175.8097
 20
110.9323
 30
50.1529
 70
192
 0
VERTEX
 8
RECTANGLE1
 10
175.8097
 20
111.0966
 30
49.7841
 70
192
 0
VERTEX
 8
RECTANGLE1
 10
175.8097
 20
111.1811
 30
49.3776
 70
192
 0
VERTEX
 8
RECTANGLE1
 10
175.8097
 20
115.8412
 30
1.7375
 70
192
 0
VERTEX
 8
RECTANGLE1
 10
175.8097
 20
115.8316
 30
1.3485
 70
192
 0
VERTEX
 8
RECTANGLE1
 10
175.8097
 20
115.732
 30
0.9864
 70
192
 0
VERTEX
 8
RECTANGLE1
 10
175.8097
 20
115.5533
 30
0.6633
 70
192
 0
VERTEX
 8
RECTANGLE1
 10
175.8097
 20
115.3064
 30
0.3911
 70
192
 0
VERTEX
 8
RECTANGLE1
 10
175.8097
 20
115.0022
 30
0.1818
 70
192
 0
VERTEX
 8
RECTANGLE1
 10
175.8097
 20
114.6516
 30
0.0474
 70
192
 0
VERTEX
 8
RECTANGLE1
 10
175.8097
 20
114.2653
 30
0
 70
192
 0
VERTEX
 8
RECTANGLE1
 10
175.8097
 20
42.7569
 30
0
 70
192
 0
VERTEX
 8
RECTANGLE1
 10
175.8097
 20
42.3707
 30
0.0474
 70
192
 0
VERTEX
 8
RECTANGLE1
 10
175.8097
 20
42.02
 30
0.1818
 70
192
 0
VERTEX
 8
RECTANGLE1
 10
175.8097
 20
41.7158
 30
0.3911
 70
192
 0
VERTEX
 8
RECTANGLE1
 10
175.8097
 20
41.4689
 30
0.6633
 70
192
 0
VERTEX
 8
RECTANGLE1
 10
175.8097
 20
41.2903
 30
0.9864
 70
192
 0
VERTEX
 8
RECTANGLE1
 10
175.8097
 20
41.1907
 30
1.3485
 70
192
 0
VERTEX
 8
RECTANGLE1
 10
175.8097
 20
41.1811
 30
1.7375
 70
192
 0
VERTEX
 8
RECTANGLE1
 10
175.8097
 20
45.8412
 30
49.3776
 70
192
 0
VERTEX
 8
RECTANGLE1
 10
175.8097
 20
45.9257
 30
49.7841
 70
192
 0
VERTEX
 8
RECTANGLE1
 10
175.8097
 20
46.09
 30
50.1529
 70
192
 0
VERTEX
 8
RECTANGLE1
 10
175.8097
 20
46.324
 30
50.475
 70
192
 0
VERTEX
 8
RECTANGLE1
 10
175.8097
 20
46.6177
 30
50.7414
 70
192
 0
VERTEX
 8
RECTANGLE1
 10
175.8097
 20
46.9611
 30
50.943
 70
192
 0
VERTEX
 8
RECTANGLE1
 10
175.8097
 20
47.3442
 30
51.0706
 70
192
 0
VERTEX
 8
RECTANGLE1
 10
170.8097
 20
47.4643
 30
50.5319
 70
192
 0
VERTEX
 8
RECTANGLE1
 10
170.8097
 20
47.1906
 30
50.4406
 70
192
 0
VERTEX
 8
RECTANGLE1
 10
170.8097
 20
46.9451
 30
50.2964
 70
192
 0
VERTEX
 8
RECTANGLE1
 10
170.8097
 20
46.735
 30
50.1059
 70
192
 0
VERTEX
 8
RECTANGLE1
 10
170.8097
 20
46.5676
 30
49.8756
 70
192
 0
VERTEX
 8
RECTANGLE1
 10
170.8097
 20
46.4501
 30
49.6121
 70
192
 0
VERTEX
 8
RECTANGLE1
 10
170.8097
 20
46.3896
 30
49.3219
 70
192
 0
VERTEX
 8
RECTANGLE1
 10
170.8097
 20
41.73
 30
1.6862
 70
192
 0
VERTEX
 8
RECTANGLE1
 10
170.8097
 20
41.7364
 30
1.4324
 70
192
 0
VERTEX
 8
RECTANGLE1
 10
170.8097
 20
41.8016
 30
1.196
 70
192
 0
VERTEX
 8
RECTANGLE1
 10
170.8097
 20
41.9184
 30
0.985
 70
192
 0
VERTEX
 8
RECTANGLE1
 10
170.8097
 20
42.0798
 30
0.8071
 70
192
 0
VERTEX
 8
RECTANGLE1
 10
170.8097
 20
42.2785
 30
0.6702
 70
192
 0
VERTEX
 8
RECTANGLE1
 10
170.8097
 20
42.5074
 30
0.5823
 70
192
 0
VERTEX
 8
RECTANGLE1
 10
170.8097
 20
42.7593
 30
0.5513
 70
192
 0
VERTEX
 8
RECTANGLE1
 10
170.8097
 20
114.263
 30
0.5513
 70
192
 0
VERTEX
 8
RECTANGLE1
 10
170.8097
 20
114.5149
 30
0.5823
 70
192
 0
VERTEX
 8
RECTANGLE1
 10
170.8097
 20
114.7438
 30
0.6702
 70
192
 0
VERTEX
 8
RECTANGLE1
 10
170.8097
 20
114.9425
 30
0.8071
 70
192
 0
VERTEX
 8
RECTANGLE1
 10
170.8097
 20
115.1038
 30
0.985
 70
192
 0
VERTEX
 8
RECTANGLE1
 10
170.8097
 20
115.2207
 30
1.1961
 70
192
 0
VERTEX
 8
RECTANGLE1
 10
170.8097
 20
115.2859
 30
1.4324
 70
192
 0
VERTEX
 8
RECTANGLE1
 10
170.8097
 20
115.2923
 30
1.6862
 70
192
 0
VERTEX
 8
RECTANGLE1
 10
170.8097
 20
110.6326
 30
49.3219
 70
192
 0
VERTEX
 8
RECTANGLE1
 10
170.8097
 20
110.5722
 30
49.6121
 70
192
 0
VERTEX
 8
RECTANGLE1
 10
170.8097
 20
110.4546
 30
49.8756
 70
192
 0
VERTEX
 8
RECTANGLE1
 10
170.8097
 20
110.2872
 30
50.1059
 70
192
 0
VERTEX
 8
RECTANGLE1
 10
170.8097
 20
110.0771
 30
50.2964
 70
192
 0
VERTEX
 8
RECTANGLE1
 10
170.8097
 20
109.8316
 30
50.4406
 70
192
 0
VERTEX
 8
RECTANGLE1
 10
170.8097
 20
109.5579
 30
50.5319
 70
192
 0
VERTEX
 8
RECTANGLE1
 10
170.8097
 20
109.2633
 30
50.5638
 70
192
 0
VERTEX
 8
RECTANGLE1
 10
170.8097
 20
47.759
 30
50.5638
 70
192
 0
VERTEX
 8
RECTANGLE1
 10
175.8097
 20
47.4643
 30
50.5319
 70
192
 0
VERTEX
 8
RECTANGLE1
 10
175.8097
 20
47.1906
 30
50.4406
 70
192
 0
VERTEX
 8
RECTANGLE1
 10
175.8097
 20
46.9451
 30
50.2964
 70
192
 0
VERTEX
 8
RECTANGLE1
 10
175.8097
 20
46.735
 30
50.1059
 70
192
 0
VERTEX
 8
RECTANGLE1
 10
175.8097
 20
46.5676
 30
49.8756
 70
192
 0
VERTEX
 8
RECTANGLE1
 10
175.8097
 20
46.4501
 30
49.6121
 70
192
 0
VERTEX
 8
RECTANGLE1
 10
175.8097
 20
46.3896
 30
49.3219
 70
192
 0
VERTEX
 8
RECTANGLE1
 10
175.8097
 20
41.73
 30
1.6862
 70
192
 0
VERTEX
 8
RECTANGLE1
 10
175.8097
 20
41.7364
 30
1.4324
 70
192
 0
VERTEX
 8
RECTANGLE1
 10
175.8097
 20
41.8016
 30
1.196
 70
192
 0
VERTEX
 8
RECTANGLE1
 10
175.8097
 20
41.9184
 30
0.985
 70
192
 0
VERTEX
 8
RECTANGLE1
 10
175.8097
 20
42.0798
 30
0.8071
 70
192
 0
VERTEX
 8
RECTANGLE1
 10
175.8097
 20
42.2785
 30
0.6702
 70
192
 0
VERTEX
 8
RECTANGLE1
 10
175.8097
 20
42.5074
 30
0.5823
 70
192
 0
VERTEX
 8
RECTANGLE1
 10
175.8097
 20
42.7593
 30
0.5513
 70
192
 0
VERTEX
 8
RECTANGLE1
 10
175.8097
 20
114.263
 30
0.5513
 70
192
 0
VERTEX
 8
RECTANGLE1
 10
175.8097
 20
114.5149
 30
0.5823
 70
192
 0
VERTEX
 8
RECTANGLE1
 10
175.8097
 20
114.7438
 30
0.6702
 70
192
 0
VERTEX
 8
RECTANGLE1
 10
175.8097
 20
114.9425
 30
0.8071
 70
192
 0
VERTEX
 8
RECTANGLE1
 10
175.8097
 20
115.1038
 30
0.985
 70
192
 0
VERTEX
 8
RECTANGLE1
 10
175.8097
 20
115.2207
 30
1.1961
 70
192
 0
VERTEX
 8
RECTANGLE1
 10
175.8097
 20
115.2859
 30
1.4324
 70
192
 0
VERTEX
 8
RECTANGLE1
 10
175.8097
 20
115.2923
 30
1.6862
 70
192
 0
VERTEX
 8
RECTANGLE1
 10
175.8097
 20
110.6326
 30
49.3219
 70
192
 0
VERTEX
 8
RECTANGLE1
 10
175.8097
 20
110.5722
 30
49.6121
 70
192
 0
VERTEX
 8
RECTANGLE1
 10
175.8097
 20
110.4546
 30
49.8756
 70
192
 0
VERTEX
 8
RECTANGLE1
 10
175.8097
 20
110.2872
 30
50.1059
 70
192
 0
VERTEX
 8
RECTANGLE1
 10
175.8097
 20
110.0771
 30
50.2964
 70
192
 0
VERTEX
 8
RECTANGLE1
 10
175.8097
 20
109.8317
 30
50.4406
 70
192
 0
VERTEX
 8
RECTANGLE1
 10
175.8097
 20
109.5579
 30
50.5319
 70
192
 0
VERTEX
 8
RECTANGLE1
 10
175.8097
 20
109.2633
 30
50.5638
 70
192
 0
VERTEX
 8
RECTANGLE1
 10
175.8097
 20
47.759
 30
50.5638
 70
192
 0
VERTEX
 8
RECTANGLE1
 10
162.862
 20
78.5111
 30
51.1151
 70
192
 0
VERTEX
 8
RECTANGLE1
 10
166.6904
 20
78.5111
 30
0
 70
192
 0
VERTEX
 8
RECTANGLE1
 10
166.3042
 20
78.5111
 30
0.0474
 70
192
 0
VERTEX
 8
RECTANGLE1
 10
165.9535
 20
78.5111
 30
0.1818
 70
192
 0
VERTEX
 8
RECTANGLE1
 10
165.6493
 20
78.5111
 30
0.3911
 70
192
 0
VERTEX
 8
RECTANGLE1
 10
165.4024
 20
78.5111
 30
0.6633
 70
192
 0
VERTEX
 8
RECTANGLE1
 10
165.2238
 20
78.5111
 30
0.9864
 70
192
 0
VERTEX
 8
RECTANGLE1
 10
165.1242
 20
78.5111
 30
1.3485
 70
192
 0
VERTEX
 8
RECTANGLE1
 10
165.1146
 20
78.5111
 30
1.7375
 70
192
 0
VERTEX
 8
RECTANGLE1
 10
160.9462
 20
78.5111
 30
49.3776
 70
192
 0
VERTEX
 8
RECTANGLE1
 10
161.0307
 20
78.5111
 30
49.7841
 70
192
 0
VERTEX
 8
RECTANGLE1
 10
161.195
 20
78.5111
 30
50.1529
 70
192
 0
VERTEX
 8
RECTANGLE1
 10
161.429
 20
78.5111
 30
50.4751
 70
192
 0
VERTEX
 8
RECTANGLE1
 10
161.7227
 20
78.5111
 30
50.7414
 70
192
 0
VERTEX
 8
RECTANGLE1
 10
162.0662
 20
78.5111
 30
50.943
 70
192
 0
VERTEX
 8
RECTANGLE1
 10
162.4492
 20
78.5111
 30
51.0706
 70
192
 0
VERTEX
 8
RECTANGLE1
 10
162.862
 20
73.5111
 30
51.1151
 70
192
 0
VERTEX
 8
RECTANGLE1
 10
166.6904
 20
73.5111
 30
0
 70
192
 0
VERTEX
 8
RECTANGLE1
 10
166.3042
 20
73.5111
 30
0.0474
 70
192
 0
VERTEX
 8
RECTANGLE1
 10
165.9535
 20
73.5111
 30
0.1818
 70
192
 0
VERTEX
 8
RECTANGLE1
 10
165.6493
 20
73.5111
 30
0.3911
 70
192
 0
VERTEX
 8
RECTANGLE1
 10
165.4024
 20
73.5111
 30
0.6633
 70
192
 0
VERTEX
 8
RECTANGLE1
 10
165.2238
 20
73.5111
 30
0.9864
 70
192
 0
VERTEX
 8
RECTANGLE1
 10
165.1242
 20
73.5111
 30
1.3485
 70
192
 0
VERTEX
 8
RECTANGLE1
 10
165.1146
 20
73.5111
 30
1.7375
 70
192
 0
VERTEX
 8
RECTANGLE1
 10
160.9462
 20
73.5111
 30
49.3776
 70
192
 0
VERTEX
 8
RECTANGLE1
 10
161.0307
 20
73.5111
 30
49.7841
 70
192
 0
VERTEX
 8
RECTANGLE1
 10
161.195
 20
73.5111
 30
50.1529
 70
192
 0
VERTEX
 8
RECTANGLE1
 10
161.429
 20
73.5111
 30
50.4751
 70
192
 0
VERTEX
 8
RECTANGLE1
 10
161.7227
 20
73.5111
 30
50.7414
 70
192
 0
VERTEX
 8
RECTANGLE1
 10
162.0662
 20
73.5111
 30
50.943
 70
192
 0
VERTEX
 8
RECTANGLE1
 10
162.4492
 20
73.5111
 30
51.0706
 70
192
 0
VERTEX
 8
RECTANGLE1
 10
162.5694
 20
78.5111
 30
50.5319
 70
192
 0
VERTEX
 8
RECTANGLE1
 10
162.2957
 20
78.5111
 30
50.4406
 70
192
 0
VERTEX
 8
RECTANGLE1
 10
162.0502
 20
78.5111
 30
50.2964
 70
192
 0
VERTEX
 8
RECTANGLE1
 10
161.8401
 20
78.5111
 30
50.1059
 70
192
 0
VERTEX
 8
RECTANGLE1
 10
161.6727
 20
78.5111
 30
49.8756
 70
192
 0
VERTEX
 8
RECTANGLE1
 10
161.5551
 20
78.5111
 30
49.6121
 70
192
 0
VERTEX
 8
RECTANGLE1
 10
161.4947
 20
78.5111
 30
49.3219
 70
192
 0
VERTEX
 8
RECTANGLE1
 10
165.6635
 20
78.5111
 30
1.6862
 70
192
 0
VERTEX
 8
RECTANGLE1
 10
165.6699
 20
78.5111
 30
1.4324
 70
192
 0
VERTEX
 8
RECTANGLE1
 10
165.7351
 20
78.5111
 30
1.196
 70
192
 0
VERTEX
 8
RECTANGLE1
 10
165.8519
 20
78.5111
 30
0.985
 70
192
 0
VERTEX
 8
RECTANGLE1
 10
166.0133
 20
78.5111
 30
0.8071
 70
192
 0
VERTEX
 8
RECTANGLE1
 10
166.212
 20
78.5111
 30
0.6702
 70
192
 0
VERTEX
 8
RECTANGLE1
 10
166.4409
 20
78.5111
 30
0.5823
 70
192
 0
VERTEX
 8
RECTANGLE1
 10
166.6928
 20
78.5111
 30
0.5513
 70
192
 0
VERTEX
 8
RECTANGLE1
 10
162.864
 20
78.5111
 30
50.5638
 70
192
 0
VERTEX
 8
RECTANGLE1
 10
162.5694
 20
73.5111
 30
50.5319
 70
192
 0
VERTEX
 8
RECTANGLE1
 10
162.2957
 20
73.5111
 30
50.4406
 70
192
 0
VERTEX
 8
RECTANGLE1
 10
162.0502
 20
73.5111
 30
50.2964
 70
192
 0
VERTEX
 8
RECTANGLE1
 10
161.8401
 20
73.5111
 30
50.1059
 70
192
 0
VERTEX
 8
RECTANGLE1
 10
161.6727
 20
73.5111
 30
49.8756
 70
192
 0
VERTEX
 8
RECTANGLE1
 10
161.5551
 20
73.5111
 30
49.6121
 70
192
 0
VERTEX
 8
RECTANGLE1
 10
161.4947
 20
73.5111
 30
49.3219
 70
192
 0
VERTEX
 8
RECTANGLE1
 10
165.6635
 20
73.5111
 30
1.6862
 70
192
 0
VERTEX
 8
RECTANGLE1
 10
165.6699
 20
73.5111
 30
1.4324
 70
192
 0
VERTEX
 8
RECTANGLE1
 10
165.7351
 20
73.5111
 30
1.196
 70
192
 0
VERTEX
 8
RECTANGLE1
 10
165.8519
 20
73.5111
 30
0.985
 70
192
 0
VERTEX
 8
RECTANGLE1
 10
166.0133
 20
73.5111
 30
0.8071
 70
192
 0
VERTEX
 8
RECTANGLE1
 10
166.212
 20
73.5111
 30
0.6702
 70
192
 0
VERTEX
 8
RECTANGLE1
 10
166.4409
 20
73.5111
 30
0.5823
 70
192
 0
VERTEX
 8
RECTANGLE1
 10
166.6928
 20
73.5111
 30
0.5513
 70
192
 0
VERTEX
 8
RECTANGLE1
 10
162.864
 20
73.5111
 30
50.5638
 70
192
 0
VERTEX
 8
RECTANGLE1
 10
170.7962
 20
78.5111
 30
51.1151
 70
192
 0
VERTEX
 8
RECTANGLE1
 10
170.7962
 20
73.5111
 30
51.1151
 70
192
 0
VERTEX
 8
RECTANGLE1
 10
170.7962
 20
73.5111
 30
0
 70
192
 0
VERTEX
 8
RECTANGLE1
 10
170.7962
 20
78.5111
 30
0
 70
192
 0
VERTEX
 8
RECTANGLE1
 10
170.7962
 20
78.5111
 30
0.5513
 70
192
 0
VERTEX
 8
RECTANGLE1
 10
170.7962
 20
73.5111
 30
0.5513
 70
192
 0
VERTEX
 8
RECTANGLE1
 10
170.7962
 20
73.5111
 30
50.5638
 70
192
 0
VERTEX
 8
RECTANGLE1
 10
170.7962
 20
78.5111
 30
50.5638
 70
192
 0
VERTEX
 8
RECTANGLE1
 10
62.4745
 20
78.5111
 30
0.5513
 70
192
 0
VERTEX
 8
RECTANGLE1
 10
62.4745
 20
78.5111
 30
0
 70
192
 0
VERTEX
 8
RECTANGLE1
 10
62.4745
 20
73.5111
 30
0
 70
192
 0
VERTEX
 8
RECTANGLE1
 10
62.4745
 20
73.5111
 30
0
 70
192
 0
VERTEX
 8
RECTANGLE1
 10
62.4745
 20
73.5111
 30
0.5513
 70
192
 0
VERTEX
 8
RECTANGLE1
 10
62.4745
 20
78.5111
 30
0.5513
 70
192
 0
VERTEX
 8
RECTANGLE1
 10
62.4745
 20
78.5111
 30
50.5638
 70
192
 0
VERTEX
 8
RECTANGLE1
 10
62.4745
 20
73.5111
 30
50.5638
 70
192
 0
VERTEX
 8
RECTANGLE1
 10
62.4745
 20
73.5111
 30
51.1151
 70
192
 0
VERTEX
 8
RECTANGLE1
 10
62.4745
 20
73.5111
 30
51.1151
 70
192
 0
VERTEX
 8
RECTANGLE1
 10
62.4745
 20
78.5111
 30
51.1151
 70
192
 0
VERTEX
 8
RECTANGLE1
 10
62.4745
 20
78.5111
 30
50.5638
 70
192
 0
VERTEX
 8
RECTANGLE1
 10
170.7962
 20
78.5111
 30
0.5513
 70
192
 0
VERTEX
 8
RECTANGLE1
 10
170.7962
 20
73.5111
 30
0.5513
 70
192
 0
VERTEX
 8
RECTANGLE1
 10
170.7962
 20
73.5111
 30
0
 70
192
 0
VERTEX
 8
RECTANGLE1
 10
170.7962
 20
73.5111
 30
0
 70
192
 0
VERTEX
 8
RECTANGLE1
 10
170.7962
 20
78.5111
 30
0
 70
192
 0
VERTEX
 8
RECTANGLE1
 10
170.7962
 20
78.5111
 30
0.5513
 70
192
 0
VERTEX
 8
RECTANGLE1
 10
170.7962
 20
78.5111
 30
50.5638
 70
192
 0
VERTEX
 8
RECTANGLE1
 10
170.7962
 20
78.5111
 30
51.1151
 70
192
 0
VERTEX
 8
RECTANGLE1
 10
170.7962
 20
73.5111
 30
51.1151
 70
192
 0
VERTEX
 8
RECTANGLE1
 10
170.7962
 20
73.5111
 30
51.1151
 70
192
 0
VERTEX
 8
RECTANGLE1
 10
170.7962
 20
73.5111
 30
50.5638
 70
192
 0
VERTEX
 8
RECTANGLE1
 10
170.7962
 20
78.5111
 30
50.5638
 70
192
 0
VERTEX
 8
RECTANGLE1
 10
0
 20
0
 30
0
 70
128
 71
1
 72
33
 73
34
 74
34
 0
VERTEX
 8
RECTANGLE1
 10
0
 20
0
 30
0
 70
128
 71
34
 72
2
 73
1
 74
1
 0
VERTEX
 8
RECTANGLE1
 10
0
 20
0
 30
0
 70
128
 71
2
 72
34
 73
35
 74
35
 0
VERTEX
 8
RECTANGLE1
 10
0
 20
0
 30
0
 70
128
 71
35
 72
3
 73
2
 74
2
 0
VERTEX
 8
RECTANGLE1
 10
0
 20
0
 30
0
 70
128
 71
3
 72
35
 73
36
 74
36
 0
VERTEX
 8
RECTANGLE1
 10
0
 20
0
 30
0
 70
128
 71
36
 72
4
 73
3
 74
3
 0
VERTEX
 8
RECTANGLE1
 10
0
 20
0
 30
0
 70
128
 71
4
 72
36
 73
37
 74
37
 0
VERTEX
 8
RECTANGLE1
 10
0
 20
0
 30
0
 70
128
 71
37
 72
5
 73
4
 74
4
 0
VERTEX
 8
RECTANGLE1
 10
0
 20
0
 30
0
 70
128
 71
5
 72
37
 73
38
 74
38
 0
VERTEX
 8
RECTANGLE1
 10
0
 20
0
 30
0
 70
128
 71
38
 72
6
 73
5
 74
5
 0
VERTEX
 8
RECTANGLE1
 10
0
 20
0
 30
0
 70
128
 71
6
 72
38
 73
39
 74
39
 0
VERTEX
 8
RECTANGLE1
 10
0
 20
0
 30
0
 70
128
 71
39
 72
7
 73
6
 74
6
 0
VERTEX
 8
RECTANGLE1
 10
0
 20
0
 30
0
 70
128
 71
7
 72
39
 73
40
 74
40
 0
VERTEX
 8
RECTANGLE1
 10
0
 20
0
 30
0
 70
128
 71
40
 72
8
 73
7
 74
7
 0
VERTEX
 8
RECTANGLE1
 10
0
 20
0
 30
0
 70
128
 71
8
 72
40
 73
41
 74
41
 0
VERTEX
 8
RECTANGLE1
 10
0
 20
0
 30
0
 70
128
 71
41
 72
9
 73
8
 74
8
 0
VERTEX
 8
RECTANGLE1
 10
0
 20
0
 30
0
 70
128
 71
9
 72
41
 73
42
 74
42
 0
VERTEX
 8
RECTANGLE1
 10
0
 20
0
 30
0
 70
128
 71
42
 72
10
 73
9
 74
9
 0
VERTEX
 8
RECTANGLE1
 10
0
 20
0
 30
0
 70
128
 71
10
 72
42
 73
43
 74
43
 0
VERTEX
 8
RECTANGLE1
 10
0
 20
0
 30
0
 70
128
 71
43
 72
11
 73
10
 74
10
 0
VERTEX
 8
RECTANGLE1
 10
0
 20
0
 30
0
 70
128
 71
11
 72
43
 73
44
 74
44
 0
VERTEX
 8
RECTANGLE1
 10
0
 20
0
 30
0
 70
128
 71
44
 72
12
 73
11
 74
11
 0
VERTEX
 8
RECTANGLE1
 10
0
 20
0
 30
0
 70
128
 71
12
 72
44
 73
45
 74
45
 0
VERTEX
 8
RECTANGLE1
 10
0
 20
0
 30
0
 70
128
 71
45
 72
13
 73
12
 74
12
 0
VERTEX
 8
RECTANGLE1
 10
0
 20
0
 30
0
 70
128
 71
13
 72
45
 73
46
 74
46
 0
VERTEX
 8
RECTANGLE1
 10
0
 20
0
 30
0
 70
128
 71
46
 72
14
 73
13
 74
13
 0
VERTEX
 8
RECTANGLE1
 10
0
 20
0
 30
0
 70
128
 71
14
 72
46
 73
47
 74
47
 0
VERTEX
 8
RECTANGLE1
 10
0
 20
0
 30
0
 70
128
 71
47
 72
15
 73
14
 74
14
 0
VERTEX
 8
RECTANGLE1
 10
0
 20
0
 30
0
 70
128
 71
15
 72
47
 73
48
 74
48
 0
VERTEX
 8
RECTANGLE1
 10
0
 20
0
 30
0
 70
128
 71
48
 72
16
 73
15
 74
15
 0
VERTEX
 8
RECTANGLE1
 10
0
 20
0
 30
0
 70
128
 71
16
 72
48
 73
49
 74
49
 0
VERTEX
 8
RECTANGLE1
 10
0
 20
0
 30
0
 70
128
 71
49
 72
17
 73
16
 74
16
 0
VERTEX
 8
RECTANGLE1
 10
0
 20
0
 30
0
 70
128
 71
17
 72
49
 73
50
 74
50
 0
VERTEX
 8
RECTANGLE1
 10
0
 20
0
 30
0
 70
128
 71
50
 72
18
 73
17
 74
17
 0
VERTEX
 8
RECTANGLE1
 10
0
 20
0
 30
0
 70
128
 71
18
 72
50
 73
51
 74
51
 0
VERTEX
 8
RECTANGLE1
 10
0
 20
0
 30
0
 70
128
 71
51
 72
19
 73
18
 74
18
 0
VERTEX
 8
RECTANGLE1
 10
0
 20
0
 30
0
 70
128
 71
19
 72
51
 73
52
 74
52
 0
VERTEX
 8
RECTANGLE1
 10
0
 20
0
 30
0
 70
128
 71
52
 72
20
 73
19
 74
19
 0
VERTEX
 8
RECTANGLE1
 10
0
 20
0
 30
0
 70
128
 71
20
 72
52
 73
53
 74
53
 0
VERTEX
 8
RECTANGLE1
 10
0
 20
0
 30
0
 70
128
 71
53
 72
21
 73
20
 74
20
 0
VERTEX
 8
RECTANGLE1
 10
0
 20
0
 30
0
 70
128
 71
21
 72
53
 73
54
 74
54
 0
VERTEX
 8
RECTANGLE1
 10
0
 20
0
 30
0
 70
128
 71
54
 72
22
 73
21
 74
21
 0
VERTEX
 8
RECTANGLE1
 10
0
 20
0
 30
0
 70
128
 71
22
 72
54
 73
55
 74
55
 0
VERTEX
 8
RECTANGLE1
 10
0
 20
0
 30
0
 70
128
 71
55
 72
23
 73
22
 74
22
 0
VERTEX
 8
RECTANGLE1
 10
0
 20
0
 30
0
 70
128
 71
23
 72
55
 73
56
 74
56
 0
VERTEX
 8
RECTANGLE1
 10
0
 20
0
 30
0
 70
128
 71
56
 72
24
 73
23
 74
23
 0
VERTEX
 8
RECTANGLE1
 10
0
 20
0
 30
0
 70
128
 71
24
 72
56
 73
57
 74
57
 0
VERTEX
 8
RECTANGLE1
 10
0
 20
0
 30
0
 70
128
 71
57
 72
25
 73
24
 74
24
 0
VERTEX
 8
RECTANGLE1
 10
0
 20
0
 30
0
 70
128
 71
25
 72
57
 73
58
 74
58
 0
VERTEX
 8
RECTANGLE1
 10
0
 20
0
 30
0
 70
128
 71
58
 72
26
 73
25
 74
25
 0
VERTEX
 8
RECTANGLE1
 10
0
 20
0
 30
0
 70
128
 71
26
 72
58
 73
59
 74
59
 0
VERTEX
 8
RECTANGLE1
 10
0
 20
0
 30
0
 70
128
 71
59
 72
27
 73
26
 74
26
 0
VERTEX
 8
RECTANGLE1
 10
0
 20
0
 30
0
 70
128
 71
27
 72
59
 73
60
 74
60
 0
VERTEX
 8
RECTANGLE1
 10
0
 20
0
 30
0
 70
128
 71
60
 72
28
 73
27
 74
27
 0
VERTEX
 8
RECTANGLE1
 10
0
 20
0
 30
0
 70
128
 71
28
 72
60
 73
61
 74
61
 0
VERTEX
 8
RECTANGLE1
 10
0
 20
0
 30
0
 70
128
 71
61
 72
29
 73
28
 74
28
 0
VERTEX
 8
RECTANGLE1
 10
0
 20
0
 30
0
 70
128
 71
29
 72
61
 73
62
 74
62
 0
VERTEX
 8
RECTANGLE1
 10
0
 20
0
 30
0
 70
128
 71
62
 72
30
 73
29
 74
29
 0
VERTEX
 8
RECTANGLE1
 10
0
 20
0
 30
0
 70
128
 71
30
 72
62
 73
63
 74
63
 0
VERTEX
 8
RECTANGLE1
 10
0
 20
0
 30
0
 70
128
 71
63
 72
31
 73
30
 74
30
 0
VERTEX
 8
RECTANGLE1
 10
0
 20
0
 30
0
 70
128
 71
31
 72
63
 73
64
 74
64
 0
VERTEX
 8
RECTANGLE1
 10
0
 20
0
 30
0
 70
128
 71
64
 72
32
 73
31
 74
31
 0
VERTEX
 8
RECTANGLE1
 10
0
 20
0
 30
0
 70
128
 71
32
 72
64
 73
33
 74
33
 0
VERTEX
 8
RECTANGLE1
 10
0
 20
0
 30
0
 70
128
 71
33
 72
1
 73
32
 74
32
 0
VERTEX
 8
RECTANGLE1
 10
0
 20
0
 30
0
 70
128
 71
65
 72
97
 73
98
 74
98
 0
VERTEX
 8
RECTANGLE1
 10
0
 20
0
 30
0
 70
128
 71
98
 72
66
 73
65
 74
65
 0
VERTEX
 8
RECTANGLE1
 10
0
 20
0
 30
0
 70
128
 71
66
 72
98
 73
99
 74
99
 0
VERTEX
 8
RECTANGLE1
 10
0
 20
0
 30
0
 70
128
 71
99
 72
67
 73
66
 74
66
 0
VERTEX
 8
RECTANGLE1
 10
0
 20
0
 30
0
 70
128
 71
67
 72
99
 73
100
 74
100
 0
VERTEX
 8
RECTANGLE1
 10
0
 20
0
 30
0
 70
128
 71
100
 72
68
 73
67
 74
67
 0
VERTEX
 8
RECTANGLE1
 10
0
 20
0
 30
0
 70
128
 71
68
 72
100
 73
101
 74
101
 0
VERTEX
 8
RECTANGLE1
 10
0
 20
0
 30
0
 70
128
 71
101
 72
69
 73
68
 74
68
 0
VERTEX
 8
RECTANGLE1
 10
0
 20
0
 30
0
 70
128
 71
69
 72
101
 73
102
 74
102
 0
VERTEX
 8
RECTANGLE1
 10
0
 20
0
 30
0
 70
128
 71
102
 72
70
 73
69
 74
69
 0
VERTEX
 8
RECTANGLE1
 10
0
 20
0
 30
0
 70
128
 71
70
 72
102
 73
103
 74
103
 0
VERTEX
 8
RECTANGLE1
 10
0
 20
0
 30
0
 70
128
 71
103
 72
71
 73
70
 74
70
 0
VERTEX
 8
RECTANGLE1
 10
0
 20
0
 30
0
 70
128
 71
71
 72
103
 73
104
 74
104
 0
VERTEX
 8
RECTANGLE1
 10
0
 20
0
 30
0
 70
128
 71
104
 72
72
 73
71
 74
71
 0
VERTEX
 8
RECTANGLE1
 10
0
 20
0
 30
0
 70
128
 71
72
 72
104
 73
105
 74
105
 0
VERTEX
 8
RECTANGLE1
 10
0
 20
0
 30
0
 70
128
 71
105
 72
73
 73
72
 74
72
 0
VERTEX
 8
RECTANGLE1
 10
0
 20
0
 30
0
 70
128
 71
73
 72
105
 73
106
 74
106
 0
VERTEX
 8
RECTANGLE1
 10
0
 20
0
 30
0
 70
128
 71
106
 72
74
 73
73
 74
73
 0
VERTEX
 8
RECTANGLE1
 10
0
 20
0
 30
0
 70
128
 71
74
 72
106
 73
107
 74
107
 0
VERTEX
 8
RECTANGLE1
 10
0
 20
0
 30
0
 70
128
 71
107
 72
75
 73
74
 74
74
 0
VERTEX
 8
RECTANGLE1
 10
0
 20
0
 30
0
 70
128
 71
75
 72
107
 73
108
 74
108
 0
VERTEX
 8
RECTANGLE1
 10
0
 20
0
 30
0
 70
128
 71
108
 72
76
 73
75
 74
75
 0
VERTEX
 8
RECTANGLE1
 10
0
 20
0
 30
0
 70
128
 71
76
 72
108
 73
109
 74
109
 0
VERTEX
 8
RECTANGLE1
 10
0
 20
0
 30
0
 70
128
 71
109
 72
77
 73
76
 74
76
 0
VERTEX
 8
RECTANGLE1
 10
0
 20
0
 30
0
 70
128
 71
77
 72
109
 73
110
 74
110
 0
VERTEX
 8
RECTANGLE1
 10
0
 20
0
 30
0
 70
128
 71
110
 72
78
 73
77
 74
77
 0
VERTEX
 8
RECTANGLE1
 10
0
 20
0
 30
0
 70
128
 71
78
 72
110
 73
111
 74
111
 0
VERTEX
 8
RECTANGLE1
 10
0
 20
0
 30
0
 70
128
 71
111
 72
79
 73
78
 74
78
 0
VERTEX
 8
RECTANGLE1
 10
0
 20
0
 30
0
 70
128
 71
79
 72
111
 73
112
 74
112
 0
VERTEX
 8
RECTANGLE1
 10
0
 20
0
 30
0
 70
128
 71
112
 72
80
 73
79
 74
79
 0
VERTEX
 8
RECTANGLE1
 10
0
 20
0
 30
0
 70
128
 71
80
 72
112
 73
113
 74
113
 0
VERTEX
 8
RECTANGLE1
 10
0
 20
0
 30
0
 70
128
 71
113
 72
81
 73
80
 74
80
 0
VERTEX
 8
RECTANGLE1
 10
0
 20
0
 30
0
 70
128
 71
81
 72
113
 73
114
 74
114
 0
VERTEX
 8
RECTANGLE1
 10
0
 20
0
 30
0
 70
128
 71
114
 72
82
 73
81
 74
81
 0
VERTEX
 8
RECTANGLE1
 10
0
 20
0
 30
0
 70
128
 71
82
 72
114
 73
115
 74
115
 0
VERTEX
 8
RECTANGLE1
 10
0
 20
0
 30
0
 70
128
 71
115
 72
83
 73
82
 74
82
 0
VERTEX
 8
RECTANGLE1
 10
0
 20
0
 30
0
 70
128
 71
83
 72
115
 73
116
 74
116
 0
VERTEX
 8
RECTANGLE1
 10
0
 20
0
 30
0
 70
128
 71
116
 72
84
 73
83
 74
83
 0
VERTEX
 8
RECTANGLE1
 10
0
 20
0
 30
0
 70
128
 71
84
 72
116
 73
117
 74
117
 0
VERTEX
 8
RECTANGLE1
 10
0
 20
0
 30
0
 70
128
 71
117
 72
85
 73
84
 74
84
 0
VERTEX
 8
RECTANGLE1
 10
0
 20
0
 30
0
 70
128
 71
85
 72
117
 73
118
 74
118
 0
VERTEX
 8
RECTANGLE1
 10
0
 20
0
 30
0
 70
128
 71
118
 72
86
 73
85
 74
85
 0
VERTEX
 8
RECTANGLE1
 10
0
 20
0
 30
0
 70
128
 71
86
 72
118
 73
119
 74
119
 0
VERTEX
 8
RECTANGLE1
 10
0
 20
0
 30
0
 70
128
 71
119
 72
87
 73
86
 74
86
 0
VERTEX
 8
RECTANGLE1
 10
0
 20
0
 30
0
 70
128
 71
87
 72
119
 73
120
 74
120
 0
VERTEX
 8
RECTANGLE1
 10
0
 20
0
 30
0
 70
128
 71
120
 72
88
 73
87
 74
87
 0
VERTEX
 8
RECTANGLE1
 10
0
 20
0
 30
0
 70
128
 71
88
 72
120
 73
121
 74
121
 0
VERTEX
 8
RECTANGLE1
 10
0
 20
0
 30
0
 70
128
 71
121
 72
89
 73
88
 74
88
 0
VERTEX
 8
RECTANGLE1
 10
0
 20
0
 30
0
 70
128
 71
89
 72
121
 73
122
 74
122
 0
VERTEX
 8
RECTANGLE1
 10
0
 20
0
 30
0
 70
128
 71
122
 72
90
 73
89
 74
89
 0
VERTEX
 8
RECTANGLE1
 10
0
 20
0
 30
0
 70
128
 71
90
 72
122
 73
123
 74
123
 0
VERTEX
 8
RECTANGLE1
 10
0
 20
0
 30
0
 70
128
 71
123
 72
91
 73
90
 74
90
 0
VERTEX
 8
RECTANGLE1
 10
0
 20
0
 30
0
 70
128
 71
91
 72
123
 73
124
 74
124
 0
VERTEX
 8
RECTANGLE1
 10
0
 20
0
 30
0
 70
128
 71
124
 72
92
 73
91
 74
91
 0
VERTEX
 8
RECTANGLE1
 10
0
 20
0
 30
0
 70
128
 71
92
 72
124
 73
125
 74
125
 0
VERTEX
 8
RECTANGLE1
 10
0
 20
0
 30
0
 70
128
 71
125
 72
93
 73
92
 74
92
 0
VERTEX
 8
RECTANGLE1
 10
0
 20
0
 30
0
 70
128
 71
93
 72
125
 73
126
 74
126
 0
VERTEX
 8
RECTANGLE1
 10
0
 20
0
 30
0
 70
128
 71
126
 72
94
 73
93
 74
93
 0
VERTEX
 8
RECTANGLE1
 10
0
 20
0
 30
0
 70
128
 71
94
 72
126
 73
127
 74
127
 0
VERTEX
 8
RECTANGLE1
 10
0
 20
0
 30
0
 70
128
 71
127
 72
95
 73
94
 74
94
 0
VERTEX
 8
RECTANGLE1
 10
0
 20
0
 30
0
 70
128
 71
95
 72
127
 73
128
 74
128
 0
VERTEX
 8
RECTANGLE1
 10
0
 20
0
 30
0
 70
128
 71
128
 72
96
 73
95
 74
95
 0
VERTEX
 8
RECTANGLE1
 10
0
 20
0
 30
0
 70
128
 71
96
 72
128
 73
97
 74
97
 0
VERTEX
 8
RECTANGLE1
 10
0
 20
0
 30
0
 70
128
 71
97
 72
65
 73
96
 74
96
 0
VERTEX
 8
RECTANGLE1
 10
0
 20
0
 30
0
 70
128
 71
9
 72
87
 73
88
 74
88
 0
VERTEX
 8
RECTANGLE1
 10
0
 20
0
 30
0
 70
128
 71
9
 72
88
 73
89
 74
89
 0
VERTEX
 8
RECTANGLE1
 10
0
 20
0
 30
0
 70
128
 71
8
 72
9
 73
89
 74
89
 0
VERTEX
 8
RECTANGLE1
 10
0
 20
0
 30
0
 70
128
 71
8
 72
89
 73
90
 74
90
 0
VERTEX
 8
RECTANGLE1
 10
0
 20
0
 30
0
 70
128
 71
7
 72
8
 73
90
 74
90
 0
VERTEX
 8
RECTANGLE1
 10
0
 20
0
 30
0
 70
128
 71
7
 72
90
 73
91
 74
91
 0
VERTEX
 8
RECTANGLE1
 10
0
 20
0
 30
0
 70
128
 71
6
 72
7
 73
91
 74
91
 0
VERTEX
 8
RECTANGLE1
 10
0
 20
0
 30
0
 70
128
 71
6
 72
91
 73
92
 74
92
 0
VERTEX
 8
RECTANGLE1
 10
0
 20
0
 30
0
 70
128
 71
5
 72
6
 73
92
 74
92
 0
VERTEX
 8
RECTANGLE1
 10
0
 20
0
 30
0
 70
128
 71
5
 72
92
 73
93
 74
93
 0
VERTEX
 8
RECTANGLE1
 10
0
 20
0
 30
0
 70
128
 71
4
 72
5
 73
93
 74
93
 0
VERTEX
 8
RECTANGLE1
 10
0
 20
0
 30
0
 70
128
 71
4
 72
93
 73
94
 74
94
 0
VERTEX
 8
RECTANGLE1
 10
0
 20
0
 30
0
 70
128
 71
3
 72
4
 73
94
 74
94
 0
VERTEX
 8
RECTANGLE1
 10
0
 20
0
 30
0
 70
128
 71
3
 72
94
 73
95
 74
95
 0
VERTEX
 8
RECTANGLE1
 10
0
 20
0
 30
0
 70
128
 71
2
 72
3
 73
95
 74
95
 0
VERTEX
 8
RECTANGLE1
 10
0
 20
0
 30
0
 70
128
 71
1
 72
2
 73
95
 74
95
 0
VERTEX
 8
RECTANGLE1
 10
0
 20
0
 30
0
 70
128
 71
87
 72
9
 73
10
 74
10
 0
VERTEX
 8
RECTANGLE1
 10
0
 20
0
 30
0
 70
128
 71
86
 72
87
 73
10
 74
10
 0
VERTEX
 8
RECTANGLE1
 10
0
 20
0
 30
0
 70
128
 71
86
 72
10
 73
11
 74
11
 0
VERTEX
 8
RECTANGLE1
 10
0
 20
0
 30
0
 70
128
 71
85
 72
86
 73
11
 74
11
 0
VERTEX
 8
RECTANGLE1
 10
0
 20
0
 30
0
 70
128
 71
85
 72
11
 73
12
 74
12
 0
VERTEX
 8
RECTANGLE1
 10
0
 20
0
 30
0
 70
128
 71
84
 72
85
 73
12
 74
12
 0
VERTEX
 8
RECTANGLE1
 10
0
 20
0
 30
0
 70
128
 71
84
 72
12
 73
13
 74
13
 0
VERTEX
 8
RECTANGLE1
 10
0
 20
0
 30
0
 70
128
 71
83
 72
84
 73
13
 74
13
 0
VERTEX
 8
RECTANGLE1
 10
0
 20
0
 30
0
 70
128
 71
83
 72
13
 73
14
 74
14
 0
VERTEX
 8
RECTANGLE1
 10
0
 20
0
 30
0
 70
128
 71
82
 72
83
 73
14
 74
14
 0
VERTEX
 8
RECTANGLE1
 10
0
 20
0
 30
0
 70
128
 71
82
 72
14
 73
15
 74
15
 0
VERTEX
 8
RECTANGLE1
 10
0
 20
0
 30
0
 70
128
 71
81
 72
82
 73
15
 74
15
 0
VERTEX
 8
RECTANGLE1
 10
0
 20
0
 30
0
 70
128
 71
81
 72
15
 73
16
 74
16
 0
VERTEX
 8
RECTANGLE1
 10
0
 20
0
 30
0
 70
128
 71
80
 72
81
 73
16
 74
16
 0
VERTEX
 8
RECTANGLE1
 10
0
 20
0
 30
0
 70
128
 71
80
 72
16
 73
17
 74
17
 0
VERTEX
 8
RECTANGLE1
 10
0
 20
0
 30
0
 70
128
 71
79
 72
80
 73
17
 74
17
 0
VERTEX
 8
RECTANGLE1
 10
0
 20
0
 30
0
 70
128
 71
79
 72
17
 73
18
 74
18
 0
VERTEX
 8
RECTANGLE1
 10
0
 20
0
 30
0
 70
128
 71
78
 72
79
 73
18
 74
18
 0
VERTEX
 8
RECTANGLE1
 10
0
 20
0
 30
0
 70
128
 71
78
 72
18
 73
19
 74
19
 0
VERTEX
 8
RECTANGLE1
 10
0
 20
0
 30
0
 70
128
 71
77
 72
78
 73
19
 74
19
 0
VERTEX
 8
RECTANGLE1
 10
0
 20
0
 30
0
 70
128
 71
77
 72
19
 73
20
 74
20
 0
VERTEX
 8
RECTANGLE1
 10
0
 20
0
 30
0
 70
128
 71
76
 72
77
 73
20
 74
20
 0
VERTEX
 8
RECTANGLE1
 10
0
 20
0
 30
0
 70
128
 71
76
 72
20
 73
21
 74
21
 0
VERTEX
 8
RECTANGLE1
 10
0
 20
0
 30
0
 70
128
 71
75
 72
76
 73
21
 74
21
 0
VERTEX
 8
RECTANGLE1
 10
0
 20
0
 30
0
 70
128
 71
75
 72
21
 73
22
 74
22
 0
VERTEX
 8
RECTANGLE1
 10
0
 20
0
 30
0
 70
128
 71
74
 72
75
 73
22
 74
22
 0
VERTEX
 8
RECTANGLE1
 10
0
 20
0
 30
0
 70
128
 71
74
 72
22
 73
23
 74
23
 0
VERTEX
 8
RECTANGLE1
 10
0
 20
0
 30
0
 70
128
 71
73
 72
74
 73
23
 74
23
 0
VERTEX
 8
RECTANGLE1
 10
0
 20
0
 30
0
 70
128
 71
73
 72
23
 73
24
 74
24
 0
VERTEX
 8
RECTANGLE1
 10
0
 20
0
 30
0
 70
128
 71
72
 72
73
 73
24
 74
24
 0
VERTEX
 8
RECTANGLE1
 10
0
 20
0
 30
0
 70
128
 71
72
 72
24
 73
25
 74
25
 0
VERTEX
 8
RECTANGLE1
 10
0
 20
0
 30
0
 70
128
 71
71
 72
72
 73
25
 74
25
 0
VERTEX
 8
RECTANGLE1
 10
0
 20
0
 30
0
 70
128
 71
71
 72
25
 73
26
 74
26
 0
VERTEX
 8
RECTANGLE1
 10
0
 20
0
 30
0
 70
128
 71
70
 72
71
 73
26
 74
26
 0
VERTEX
 8
RECTANGLE1
 10
0
 20
0
 30
0
 70
128
 71
70
 72
26
 73
27
 74
27
 0
VERTEX
 8
RECTANGLE1
 10
0
 20
0
 30
0
 70
128
 71
69
 72
70
 73
27
 74
27
 0
VERTEX
 8
RECTANGLE1
 10
0
 20
0
 30
0
 70
128
 71
69
 72
27
 73
28
 74
28
 0
VERTEX
 8
RECTANGLE1
 10
0
 20
0
 30
0
 70
128
 71
68
 72
69
 73
28
 74
28
 0
VERTEX
 8
RECTANGLE1
 10
0
 20
0
 30
0
 70
128
 71
68
 72
28
 73
29
 74
29
 0
VERTEX
 8
RECTANGLE1
 10
0
 20
0
 30
0
 70
128
 71
67
 72
68
 73
29
 74
29
 0
VERTEX
 8
RECTANGLE1
 10
0
 20
0
 30
0
 70
128
 71
67
 72
29
 73
30
 74
30
 0
VERTEX
 8
RECTANGLE1
 10
0
 20
0
 30
0
 70
128
 71
66
 72
67
 73
30
 74
30
 0
VERTEX
 8
RECTANGLE1
 10
0
 20
0
 30
0
 70
128
 71
66
 72
30
 73
31
 74
31
 0
VERTEX
 8
RECTANGLE1
 10
0
 20
0
 30
0
 70
128
 71
65
 72
66
 73
31
 74
31
 0
VERTEX
 8
RECTANGLE1
 10
0
 20
0
 30
0
 70
128
 71
65
 72
31
 73
32
 74
32
 0
VERTEX
 8
RECTANGLE1
 10
0
 20
0
 30
0
 70
128
 71
96
 72
65
 73
32
 74
32
 0
VERTEX
 8
RECTANGLE1
 10
0
 20
0
 30
0
 70
128
 71
96
 72
32
 73
1
 74
1
 0
VERTEX
 8
RECTANGLE1
 10
0
 20
0
 30
0
 70
128
 71
96
 72
1
 73
95
 74
95
 0
VERTEX
 8
RECTANGLE1
 10
0
 20
0
 30
0
 70
128
 71
42
 72
41
 73
119
 74
119
 0
VERTEX
 8
RECTANGLE1
 10
0
 20
0
 30
0
 70
128
 71
42
 72
119
 73
118
 74
118
 0
VERTEX
 8
RECTANGLE1
 10
0
 20
0
 30
0
 70
128
 71
43
 72
42
 73
118
 74
118
 0
VERTEX
 8
RECTANGLE1
 10
0
 20
0
 30
0
 70
128
 71
43
 72
118
 73
117
 74
117
 0
VERTEX
 8
RECTANGLE1
 10
0
 20
0
 30
0
 70
128
 71
44
 72
43
 73
117
 74
117
 0
VERTEX
 8
RECTANGLE1
 10
0
 20
0
 30
0
 70
128
 71
44
 72
117
 73
116
 74
116
 0
VERTEX
 8
RECTANGLE1
 10
0
 20
0
 30
0
 70
128
 71
45
 72
44
 73
116
 74
116
 0
VERTEX
 8
RECTANGLE1
 10
0
 20
0
 30
0
 70
128
 71
45
 72
116
 73
115
 74
115
 0
VERTEX
 8
RECTANGLE1
 10
0
 20
0
 30
0
 70
128
 71
46
 72
45
 73
115
 74
115
 0
VERTEX
 8
RECTANGLE1
 10
0
 20
0
 30
0
 70
128
 71
46
 72
115
 73
114
 74
114
 0
VERTEX
 8
RECTANGLE1
 10
0
 20
0
 30
0
 70
128
 71
47
 72
46
 73
114
 74
114
 0
VERTEX
 8
RECTANGLE1
 10
0
 20
0
 30
0
 70
128
 71
47
 72
114
 73
113
 74
113
 0
VERTEX
 8
RECTANGLE1
 10
0
 20
0
 30
0
 70
128
 71
48
 72
47
 73
113
 74
113
 0
VERTEX
 8
RECTANGLE1
 10
0
 20
0
 30
0
 70
128
 71
48
 72
113
 73
112
 74
112
 0
VERTEX
 8
RECTANGLE1
 10
0
 20
0
 30
0
 70
128
 71
49
 72
48
 73
112
 74
112
 0
VERTEX
 8
RECTANGLE1
 10
0
 20
0
 30
0
 70
128
 71
49
 72
112
 73
111
 74
111
 0
VERTEX
 8
RECTANGLE1
 10
0
 20
0
 30
0
 70
128
 71
50
 72
49
 73
111
 74
111
 0
VERTEX
 8
RECTANGLE1
 10
0
 20
0
 30
0
 70
128
 71
50
 72
111
 73
110
 74
110
 0
VERTEX
 8
RECTANGLE1
 10
0
 20
0
 30
0
 70
128
 71
51
 72
50
 73
110
 74
110
 0
VERTEX
 8
RECTANGLE1
 10
0
 20
0
 30
0
 70
128
 71
51
 72
110
 73
109
 74
109
 0
VERTEX
 8
RECTANGLE1
 10
0
 20
0
 30
0
 70
128
 71
52
 72
51
 73
109
 74
109
 0
VERTEX
 8
RECTANGLE1
 10
0
 20
0
 30
0
 70
128
 71
52
 72
109
 73
108
 74
108
 0
VERTEX
 8
RECTANGLE1
 10
0
 20
0
 30
0
 70
128
 71
53
 72
52
 73
108
 74
108
 0
VERTEX
 8
RECTANGLE1
 10
0
 20
0
 30
0
 70
128
 71
53
 72
108
 73
107
 74
107
 0
VERTEX
 8
RECTANGLE1
 10
0
 20
0
 30
0
 70
128
 71
54
 72
53
 73
107
 74
107
 0
VERTEX
 8
RECTANGLE1
 10
0
 20
0
 30
0
 70
128
 71
54
 72
107
 73
106
 74
106
 0
VERTEX
 8
RECTANGLE1
 10
0
 20
0
 30
0
 70
128
 71
55
 72
54
 73
106
 74
106
 0
VERTEX
 8
RECTANGLE1
 10
0
 20
0
 30
0
 70
128
 71
55
 72
106
 73
105
 74
105
 0
VERTEX
 8
RECTANGLE1
 10
0
 20
0
 30
0
 70
128
 71
56
 72
55
 73
105
 74
105
 0
VERTEX
 8
RECTANGLE1
 10
0
 20
0
 30
0
 70
128
 71
56
 72
105
 73
104
 74
104
 0
VERTEX
 8
RECTANGLE1
 10
0
 20
0
 30
0
 70
128
 71
57
 72
56
 73
104
 74
104
 0
VERTEX
 8
RECTANGLE1
 10
0
 20
0
 30
0
 70
128
 71
57
 72
104
 73
103
 74
103
 0
VERTEX
 8
RECTANGLE1
 10
0
 20
0
 30
0
 70
128
 71
58
 72
57
 73
103
 74
103
 0
VERTEX
 8
RECTANGLE1
 10
0
 20
0
 30
0
 70
128
 71
58
 72
103
 73
102
 74
102
 0
VERTEX
 8
RECTANGLE1
 10
0
 20
0
 30
0
 70
128
 71
59
 72
58
 73
102
 74
102
 0
VERTEX
 8
RECTANGLE1
 10
0
 20
0
 30
0
 70
128
 71
59
 72
102
 73
101
 74
101
 0
VERTEX
 8
RECTANGLE1
 10
0
 20
0
 30
0
 70
128
 71
60
 72
59
 73
101
 74
101
 0
VERTEX
 8
RECTANGLE1
 10
0
 20
0
 30
0
 70
128
 71
60
 72
101
 73
100
 74
100
 0
VERTEX
 8
RECTANGLE1
 10
0
 20
0
 30
0
 70
128
 71
61
 72
60
 73
100
 74
100
 0
VERTEX
 8
RECTANGLE1
 10
0
 20
0
 30
0
 70
128
 71
61
 72
100
 73
99
 74
99
 0
VERTEX
 8
RECTANGLE1
 10
0
 20
0
 30
0
 70
128
 71
62
 72
61
 73
99
 74
99
 0
VERTEX
 8
RECTANGLE1
 10
0
 20
0
 30
0
 70
128
 71
62
 72
99
 73
98
 74
98
 0
VERTEX
 8
RECTANGLE1
 10
0
 20
0
 30
0
 70
128
 71
63
 72
62
 73
98
 74
98
 0
VERTEX
 8
RECTANGLE1
 10
0
 20
0
 30
0
 70
128
 71
63
 72
98
 73
97
 74
97
 0
VERTEX
 8
RECTANGLE1
 10
0
 20
0
 30
0
 70
128
 71
64
 72
63
 73
97
 74
97
 0
VERTEX
 8
RECTANGLE1
 10
0
 20
0
 30
0
 70
128
 71
64
 72
97
 73
128
 74
128
 0
VERTEX
 8
RECTANGLE1
 10
0
 20
0
 30
0
 70
128
 71
33
 72
64
 73
128
 74
128
 0
VERTEX
 8
RECTANGLE1
 10
0
 20
0
 30
0
 70
128
 71
33
 72
128
 73
127
 74
127
 0
VERTEX
 8
RECTANGLE1
 10
0
 20
0
 30
0
 70
128
 71
34
 72
33
 73
127
 74
127
 0
VERTEX
 8
RECTANGLE1
 10
0
 20
0
 30
0
 70
128
 71
35
 72
34
 73
127
 74
127
 0
VERTEX
 8
RECTANGLE1
 10
0
 20
0
 30
0
 70
128
 71
120
 72
119
 73
41
 74
41
 0
VERTEX
 8
RECTANGLE1
 10
0
 20
0
 30
0
 70
128
 71
121
 72
120
 73
41
 74
41
 0
VERTEX
 8
RECTANGLE1
 10
0
 20
0
 30
0
 70
128
 71
121
 72
41
 73
40
 74
40
 0
VERTEX
 8
RECTANGLE1
 10
0
 20
0
 30
0
 70
128
 71
122
 72
121
 73
40
 74
40
 0
VERTEX
 8
RECTANGLE1
 10
0
 20
0
 30
0
 70
128
 71
122
 72
40
 73
39
 74
39
 0
VERTEX
 8
RECTANGLE1
 10
0
 20
0
 30
0
 70
128
 71
123
 72
122
 73
39
 74
39
 0
VERTEX
 8
RECTANGLE1
 10
0
 20
0
 30
0
 70
128
 71
123
 72
39
 73
38
 74
38
 0
VERTEX
 8
RECTANGLE1
 10
0
 20
0
 30
0
 70
128
 71
124
 72
123
 73
38
 74
38
 0
VERTEX
 8
RECTANGLE1
 10
0
 20
0
 30
0
 70
128
 71
124
 72
38
 73
37
 74
37
 0
VERTEX
 8
RECTANGLE1
 10
0
 20
0
 30
0
 70
128
 71
125
 72
124
 73
37
 74
37
 0
VERTEX
 8
RECTANGLE1
 10
0
 20
0
 30
0
 70
128
 71
125
 72
37
 73
36
 74
36
 0
VERTEX
 8
RECTANGLE1
 10
0
 20
0
 30
0
 70
128
 71
126
 72
125
 73
36
 74
36
 0
VERTEX
 8
RECTANGLE1
 10
0
 20
0
 30
0
 70
128
 71
126
 72
36
 73
35
 74
35
 0
VERTEX
 8
RECTANGLE1
 10
0
 20
0
 30
0
 70
128
 71
126
 72
35
 73
127
 74
127
 0
VERTEX
 8
RECTANGLE1
 10
0
 20
0
 30
0
 70
128
 71
193
 72
129
 73
145
 74
145
 0
VERTEX
 8
RECTANGLE1
 10
0
 20
0
 30
0
 70
128
 71
145
 72
194
 73
193
 74
193
 0
VERTEX
 8
RECTANGLE1
 10
0
 20
0
 30
0
 70
128
 71
130
 72
196
 73
195
 74
195
 0
VERTEX
 8
RECTANGLE1
 10
0
 20
0
 30
0
 70
128
 71
195
 72
146
 73
130
 74
130
 0
VERTEX
 8
RECTANGLE1
 10
0
 20
0
 30
0
 70
128
 71
147
 72
131
 73
130
 74
130
 0
VERTEX
 8
RECTANGLE1
 10
0
 20
0
 30
0
 70
128
 71
130
 72
146
 73
147
 74
147
 0
VERTEX
 8
RECTANGLE1
 10
0
 20
0
 30
0
 70
128
 71
148
 72
132
 73
131
 74
131
 0
VERTEX
 8
RECTANGLE1
 10
0
 20
0
 30
0
 70
128
 71
131
 72
147
 73
148
 74
148
 0
VERTEX
 8
RECTANGLE1
 10
0
 20
0
 30
0
 70
128
 71
149
 72
133
 73
132
 74
132
 0
VERTEX
 8
RECTANGLE1
 10
0
 20
0
 30
0
 70
128
 71
132
 72
148
 73
149
 74
149
 0
VERTEX
 8
RECTANGLE1
 10
0
 20
0
 30
0
 70
128
 71
150
 72
134
 73
133
 74
133
 0
VERTEX
 8
RECTANGLE1
 10
0
 20
0
 30
0
 70
128
 71
133
 72
149
 73
150
 74
150
 0
VERTEX
 8
RECTANGLE1
 10
0
 20
0
 30
0
 70
128
 71
151
 72
135
 73
134
 74
134
 0
VERTEX
 8
RECTANGLE1
 10
0
 20
0
 30
0
 70
128
 71
134
 72
150
 73
151
 74
151
 0
VERTEX
 8
RECTANGLE1
 10
0
 20
0
 30
0
 70
128
 71
152
 72
136
 73
135
 74
135
 0
VERTEX
 8
RECTANGLE1
 10
0
 20
0
 30
0
 70
128
 71
135
 72
151
 73
152
 74
152
 0
VERTEX
 8
RECTANGLE1
 10
0
 20
0
 30
0
 70
128
 71
153
 72
137
 73
136
 74
136
 0
VERTEX
 8
RECTANGLE1
 10
0
 20
0
 30
0
 70
128
 71
136
 72
152
 73
153
 74
153
 0
VERTEX
 8
RECTANGLE1
 10
0
 20
0
 30
0
 70
128
 71
154
 72
138
 73
137
 74
137
 0
VERTEX
 8
RECTANGLE1
 10
0
 20
0
 30
0
 70
128
 71
137
 72
153
 73
154
 74
154
 0
VERTEX
 8
RECTANGLE1
 10
0
 20
0
 30
0
 70
128
 71
155
 72
139
 73
138
 74
138
 0
VERTEX
 8
RECTANGLE1
 10
0
 20
0
 30
0
 70
128
 71
138
 72
154
 73
155
 74
155
 0
VERTEX
 8
RECTANGLE1
 10
0
 20
0
 30
0
 70
128
 71
156
 72
140
 73
139
 74
139
 0
VERTEX
 8
RECTANGLE1
 10
0
 20
0
 30
0
 70
128
 71
139
 72
155
 73
156
 74
156
 0
VERTEX
 8
RECTANGLE1
 10
0
 20
0
 30
0
 70
128
 71
157
 72
141
 73
140
 74
140
 0
VERTEX
 8
RECTANGLE1
 10
0
 20
0
 30
0
 70
128
 71
140
 72
156
 73
157
 74
157
 0
VERTEX
 8
RECTANGLE1
 10
0
 20
0
 30
0
 70
128
 71
158
 72
142
 73
141
 74
141
 0
VERTEX
 8
RECTANGLE1
 10
0
 20
0
 30
0
 70
128
 71
141
 72
157
 73
158
 74
158
 0
VERTEX
 8
RECTANGLE1
 10
0
 20
0
 30
0
 70
128
 71
159
 72
143
 73
142
 74
142
 0
VERTEX
 8
RECTANGLE1
 10
0
 20
0
 30
0
 70
128
 71
142
 72
158
 73
159
 74
159
 0
VERTEX
 8
RECTANGLE1
 10
0
 20
0
 30
0
 70
128
 71
160
 72
144
 73
143
 74
143
 0
VERTEX
 8
RECTANGLE1
 10
0
 20
0
 30
0
 70
128
 71
143
 72
159
 73
160
 74
160
 0
VERTEX
 8
RECTANGLE1
 10
0
 20
0
 30
0
 70
128
 71
145
 72
129
 73
144
 74
144
 0
VERTEX
 8
RECTANGLE1
 10
0
 20
0
 30
0
 70
128
 71
144
 72
160
 73
145
 74
145
 0
VERTEX
 8
RECTANGLE1
 10
0
 20
0
 30
0
 70
128
 71
178
 72
162
 73
161
 74
161
 0
VERTEX
 8
RECTANGLE1
 10
0
 20
0
 30
0
 70
128
 71
161
 72
177
 73
178
 74
178
 0
VERTEX
 8
RECTANGLE1
 10
0
 20
0
 30
0
 70
128
 71
179
 72
163
 73
162
 74
162
 0
VERTEX
 8
RECTANGLE1
 10
0
 20
0
 30
0
 70
128
 71
162
 72
178
 73
179
 74
179
 0
VERTEX
 8
RECTANGLE1
 10
0
 20
0
 30
0
 70
128
 71
180
 72
164
 73
163
 74
163
 0
VERTEX
 8
RECTANGLE1
 10
0
 20
0
 30
0
 70
128
 71
163
 72
179
 73
180
 74
180
 0
VERTEX
 8
RECTANGLE1
 10
0
 20
0
 30
0
 70
128
 71
181
 72
165
 73
164
 74
164
 0
VERTEX
 8
RECTANGLE1
 10
0
 20
0
 30
0
 70
128
 71
164
 72
180
 73
181
 74
181
 0
VERTEX
 8
RECTANGLE1
 10
0
 20
0
 30
0
 70
128
 71
182
 72
166
 73
165
 74
165
 0
VERTEX
 8
RECTANGLE1
 10
0
 20
0
 30
0
 70
128
 71
165
 72
181
 73
182
 74
182
 0
VERTEX
 8
RECTANGLE1
 10
0
 20
0
 30
0
 70
128
 71
183
 72
167
 73
166
 74
166
 0
VERTEX
 8
RECTANGLE1
 10
0
 20
0
 30
0
 70
128
 71
166
 72
182
 73
183
 74
183
 0
VERTEX
 8
RECTANGLE1
 10
0
 20
0
 30
0
 70
128
 71
184
 72
168
 73
167
 74
167
 0
VERTEX
 8
RECTANGLE1
 10
0
 20
0
 30
0
 70
128
 71
167
 72
183
 73
184
 74
184
 0
VERTEX
 8
RECTANGLE1
 10
0
 20
0
 30
0
 70
128
 71
185
 72
169
 73
168
 74
168
 0
VERTEX
 8
RECTANGLE1
 10
0
 20
0
 30
0
 70
128
 71
168
 72
184
 73
185
 74
185
 0
VERTEX
 8
RECTANGLE1
 10
0
 20
0
 30
0
 70
128
 71
186
 72
170
 73
169
 74
169
 0
VERTEX
 8
RECTANGLE1
 10
0
 20
0
 30
0
 70
128
 71
169
 72
185
 73
186
 74
186
 0
VERTEX
 8
RECTANGLE1
 10
0
 20
0
 30
0
 70
128
 71
187
 72
171
 73
170
 74
170
 0
VERTEX
 8
RECTANGLE1
 10
0
 20
0
 30
0
 70
128
 71
170
 72
186
 73
187
 74
187
 0
VERTEX
 8
RECTANGLE1
 10
0
 20
0
 30
0
 70
128
 71
188
 72
172
 73
171
 74
171
 0
VERTEX
 8
RECTANGLE1
 10
0
 20
0
 30
0
 70
128
 71
171
 72
187
 73
188
 74
188
 0
VERTEX
 8
RECTANGLE1
 10
0
 20
0
 30
0
 70
128
 71
189
 72
173
 73
172
 74
172
 0
VERTEX
 8
RECTANGLE1
 10
0
 20
0
 30
0
 70
128
 71
172
 72
188
 73
189
 74
189
 0
VERTEX
 8
RECTANGLE1
 10
0
 20
0
 30
0
 70
128
 71
190
 72
174
 73
173
 74
173
 0
VERTEX
 8
RECTANGLE1
 10
0
 20
0
 30
0
 70
128
 71
173
 72
189
 73
190
 74
190
 0
VERTEX
 8
RECTANGLE1
 10
0
 20
0
 30
0
 70
128
 71
191
 72
175
 73
174
 74
174
 0
VERTEX
 8
RECTANGLE1
 10
0
 20
0
 30
0
 70
128
 71
174
 72
190
 73
191
 74
191
 0
VERTEX
 8
RECTANGLE1
 10
0
 20
0
 30
0
 70
128
 71
197
 72
175
 73
191
 74
191
 0
VERTEX
 8
RECTANGLE1
 10
0
 20
0
 30
0
 70
128
 71
191
 72
198
 73
197
 74
197
 0
VERTEX
 8
RECTANGLE1
 10
0
 20
0
 30
0
 70
128
 71
176
 72
200
 73
199
 74
199
 0
VERTEX
 8
RECTANGLE1
 10
0
 20
0
 30
0
 70
128
 71
199
 72
192
 73
176
 74
176
 0
VERTEX
 8
RECTANGLE1
 10
0
 20
0
 30
0
 70
128
 71
177
 72
161
 73
176
 74
176
 0
VERTEX
 8
RECTANGLE1
 10
0
 20
0
 30
0
 70
128
 71
176
 72
192
 73
177
 74
177
 0
VERTEX
 8
RECTANGLE1
 10
0
 20
0
 30
0
 70
128
 71
137
 72
138
 73
167
 74
167
 0
VERTEX
 8
RECTANGLE1
 10
0
 20
0
 30
0
 70
128
 71
167
 72
168
 73
137
 74
137
 0
VERTEX
 8
RECTANGLE1
 10
0
 20
0
 30
0
 70
128
 71
138
 72
139
 73
166
 74
166
 0
VERTEX
 8
RECTANGLE1
 10
0
 20
0
 30
0
 70
128
 71
166
 72
167
 73
138
 74
138
 0
VERTEX
 8
RECTANGLE1
 10
0
 20
0
 30
0
 70
128
 71
139
 72
140
 73
165
 74
165
 0
VERTEX
 8
RECTANGLE1
 10
0
 20
0
 30
0
 70
128
 71
165
 72
166
 73
139
 74
139
 0
VERTEX
 8
RECTANGLE1
 10
0
 20
0
 30
0
 70
128
 71
140
 72
141
 73
164
 74
164
 0
VERTEX
 8
RECTANGLE1
 10
0
 20
0
 30
0
 70
128
 71
164
 72
165
 73
140
 74
140
 0
VERTEX
 8
RECTANGLE1
 10
0
 20
0
 30
0
 70
128
 71
141
 72
142
 73
163
 74
163
 0
VERTEX
 8
RECTANGLE1
 10
0
 20
0
 30
0
 70
128
 71
163
 72
164
 73
141
 74
141
 0
VERTEX
 8
RECTANGLE1
 10
0
 20
0
 30
0
 70
128
 71
142
 72
143
 73
162
 74
162
 0
VERTEX
 8
RECTANGLE1
 10
0
 20
0
 30
0
 70
128
 71
162
 72
163
 73
142
 74
142
 0
VERTEX
 8
RECTANGLE1
 10
0
 20
0
 30
0
 70
128
 71
143
 72
144
 73
161
 74
161
 0
VERTEX
 8
RECTANGLE1
 10
0
 20
0
 30
0
 70
128
 71
161
 72
162
 73
143
 74
143
 0
VERTEX
 8
RECTANGLE1
 10
0
 20
0
 30
0
 70
128
 71
144
 72
129
 73
176
 74
176
 0
VERTEX
 8
RECTANGLE1
 10
0
 20
0
 30
0
 70
128
 71
176
 72
161
 73
144
 74
144
 0
VERTEX
 8
RECTANGLE1
 10
0
 20
0
 30
0
 70
128
 71
193
 72
200
 73
176
 74
176
 0
VERTEX
 8
RECTANGLE1
 10
0
 20
0
 30
0
 70
128
 71
176
 72
129
 73
193
 74
193
 0
VERTEX
 8
RECTANGLE1
 10
0
 20
0
 30
0
 70
128
 71
196
 72
130
 73
175
 74
175
 0
VERTEX
 8
RECTANGLE1
 10
0
 20
0
 30
0
 70
128
 71
175
 72
197
 73
196
 74
196
 0
VERTEX
 8
RECTANGLE1
 10
0
 20
0
 30
0
 70
128
 71
130
 72
131
 73
174
 74
174
 0
VERTEX
 8
RECTANGLE1
 10
0
 20
0
 30
0
 70
128
 71
174
 72
175
 73
130
 74
130
 0
VERTEX
 8
RECTANGLE1
 10
0
 20
0
 30
0
 70
128
 71
131
 72
132
 73
173
 74
173
 0
VERTEX
 8
RECTANGLE1
 10
0
 20
0
 30
0
 70
128
 71
173
 72
174
 73
131
 74
131
 0
VERTEX
 8
RECTANGLE1
 10
0
 20
0
 30
0
 70
128
 71
132
 72
133
 73
172
 74
172
 0
VERTEX
 8
RECTANGLE1
 10
0
 20
0
 30
0
 70
128
 71
172
 72
173
 73
132
 74
132
 0
VERTEX
 8
RECTANGLE1
 10
0
 20
0
 30
0
 70
128
 71
133
 72
134
 73
171
 74
171
 0
VERTEX
 8
RECTANGLE1
 10
0
 20
0
 30
0
 70
128
 71
171
 72
172
 73
133
 74
133
 0
VERTEX
 8
RECTANGLE1
 10
0
 20
0
 30
0
 70
128
 71
134
 72
135
 73
170
 74
170
 0
VERTEX
 8
RECTANGLE1
 10
0
 20
0
 30
0
 70
128
 71
170
 72
171
 73
134
 74
134
 0
VERTEX
 8
RECTANGLE1
 10
0
 20
0
 30
0
 70
128
 71
135
 72
136
 73
169
 74
169
 0
VERTEX
 8
RECTANGLE1
 10
0
 20
0
 30
0
 70
128
 71
169
 72
170
 73
135
 74
135
 0
VERTEX
 8
RECTANGLE1
 10
0
 20
0
 30
0
 70
128
 71
136
 72
137
 73
168
 74
168
 0
VERTEX
 8
RECTANGLE1
 10
0
 20
0
 30
0
 70
128
 71
168
 72
169
 73
136
 74
136
 0
VERTEX
 8
RECTANGLE1
 10
0
 20
0
 30
0
 70
128
 71
194
 72
145
 73
192
 74
192
 0
VERTEX
 8
RECTANGLE1
 10
0
 20
0
 30
0
 70
128
 71
192
 72
199
 73
194
 74
194
 0
VERTEX
 8
RECTANGLE1
 10
0
 20
0
 30
0
 70
128
 71
192
 72
145
 73
160
 74
160
 0
VERTEX
 8
RECTANGLE1
 10
0
 20
0
 30
0
 70
128
 71
160
 72
177
 73
192
 74
192
 0
VERTEX
 8
RECTANGLE1
 10
0
 20
0
 30
0
 70
128
 71
177
 72
160
 73
159
 74
159
 0
VERTEX
 8
RECTANGLE1
 10
0
 20
0
 30
0
 70
128
 71
159
 72
178
 73
177
 74
177
 0
VERTEX
 8
RECTANGLE1
 10
0
 20
0
 30
0
 70
128
 71
178
 72
159
 73
158
 74
158
 0
VERTEX
 8
RECTANGLE1
 10
0
 20
0
 30
0
 70
128
 71
158
 72
179
 73
178
 74
178
 0
VERTEX
 8
RECTANGLE1
 10
0
 20
0
 30
0
 70
128
 71
179
 72
158
 73
157
 74
157
 0
VERTEX
 8
RECTANGLE1
 10
0
 20
0
 30
0
 70
128
 71
157
 72
180
 73
179
 74
179
 0
VERTEX
 8
RECTANGLE1
 10
0
 20
0
 30
0
 70
128
 71
180
 72
157
 73
156
 74
156
 0
VERTEX
 8
RECTANGLE1
 10
0
 20
0
 30
0
 70
128
 71
156
 72
181
 73
180
 74
180
 0
VERTEX
 8
RECTANGLE1
 10
0
 20
0
 30
0
 70
128
 71
181
 72
156
 73
155
 74
155
 0
VERTEX
 8
RECTANGLE1
 10
0
 20
0
 30
0
 70
128
 71
155
 72
182
 73
181
 74
181
 0
VERTEX
 8
RECTANGLE1
 10
0
 20
0
 30
0
 70
128
 71
182
 72
155
 73
154
 74
154
 0
VERTEX
 8
RECTANGLE1
 10
0
 20
0
 30
0
 70
128
 71
154
 72
183
 73
182
 74
182
 0
VERTEX
 8
RECTANGLE1
 10
0
 20
0
 30
0
 70
128
 71
184
 72
153
 73
152
 74
152
 0
VERTEX
 8
RECTANGLE1
 10
0
 20
0
 30
0
 70
128
 71
152
 72
185
 73
184
 74
184
 0
VERTEX
 8
RECTANGLE1
 10
0
 20
0
 30
0
 70
128
 71
185
 72
152
 73
151
 74
151
 0
VERTEX
 8
RECTANGLE1
 10
0
 20
0
 30
0
 70
128
 71
151
 72
186
 73
185
 74
185
 0
VERTEX
 8
RECTANGLE1
 10
0
 20
0
 30
0
 70
128
 71
183
 72
154
 73
153
 74
153
 0
VERTEX
 8
RECTANGLE1
 10
0
 20
0
 30
0
 70
128
 71
153
 72
184
 73
183
 74
183
 0
VERTEX
 8
RECTANGLE1
 10
0
 20
0
 30
0
 70
128
 71
186
 72
151
 73
150
 74
150
 0
VERTEX
 8
RECTANGLE1
 10
0
 20
0
 30
0
 70
128
 71
150
 72
187
 73
186
 74
186
 0
VERTEX
 8
RECTANGLE1
 10
0
 20
0
 30
0
 70
128
 71
187
 72
150
 73
149
 74
149
 0
VERTEX
 8
RECTANGLE1
 10
0
 20
0
 30
0
 70
128
 71
149
 72
188
 73
187
 74
187
 0
VERTEX
 8
RECTANGLE1
 10
0
 20
0
 30
0
 70
128
 71
188
 72
149
 73
148
 74
148
 0
VERTEX
 8
RECTANGLE1
 10
0
 20
0
 30
0
 70
128
 71
148
 72
189
 73
188
 74
188
 0
VERTEX
 8
RECTANGLE1
 10
0
 20
0
 30
0
 70
128
 71
189
 72
148
 73
147
 74
147
 0
VERTEX
 8
RECTANGLE1
 10
0
 20
0
 30
0
 70
128
 71
147
 72
190
 73
189
 74
189
 0
VERTEX
 8
RECTANGLE1
 10
0
 20
0
 30
0
 70
128
 71
190
 72
147
 73
146
 74
146
 0
VERTEX
 8
RECTANGLE1
 10
0
 20
0
 30
0
 70
128
 71
146
 72
191
 73
190
 74
190
 0
VERTEX
 8
RECTANGLE1
 10
0
 20
0
 30
0
 70
128
 71
195
 72
198
 73
191
 74
191
 0
VERTEX
 8
RECTANGLE1
 10
0
 20
0
 30
0
 70
128
 71
191
 72
146
 73
195
 74
195
 0
VERTEX
 8
RECTANGLE1
 10
0
 20
0
 30
0
 70
128
 71
403
 72
402
 73
401
 74
401
 0
VERTEX
 8
RECTANGLE1
 10
0
 20
0
 30
0
 70
128
 71
406
 72
405
 73
404
 74
404
 0
VERTEX
 8
RECTANGLE1
 10
0
 20
0
 30
0
 70
128
 71
409
 72
408
 73
407
 74
407
 0
VERTEX
 8
RECTANGLE1
 10
0
 20
0
 30
0
 70
128
 71
412
 72
411
 73
410
 74
410
 0
VERTEX
 8
RECTANGLE1
 10
0
 20
0
 30
0
 70
128
 71
201
 72
202
 73
234
 74
234
 0
VERTEX
 8
RECTANGLE1
 10
0
 20
0
 30
0
 70
128
 71
234
 72
233
 73
201
 74
201
 0
VERTEX
 8
RECTANGLE1
 10
0
 20
0
 30
0
 70
128
 71
202
 72
203
 73
235
 74
235
 0
VERTEX
 8
RECTANGLE1
 10
0
 20
0
 30
0
 70
128
 71
235
 72
234
 73
202
 74
202
 0
VERTEX
 8
RECTANGLE1
 10
0
 20
0
 30
0
 70
128
 71
203
 72
204
 73
236
 74
236
 0
VERTEX
 8
RECTANGLE1
 10
0
 20
0
 30
0
 70
128
 71
236
 72
235
 73
203
 74
203
 0
VERTEX
 8
RECTANGLE1
 10
0
 20
0
 30
0
 70
128
 71
204
 72
205
 73
237
 74
237
 0
VERTEX
 8
RECTANGLE1
 10
0
 20
0
 30
0
 70
128
 71
237
 72
236
 73
204
 74
204
 0
VERTEX
 8
RECTANGLE1
 10
0
 20
0
 30
0
 70
128
 71
205
 72
206
 73
238
 74
238
 0
VERTEX
 8
RECTANGLE1
 10
0
 20
0
 30
0
 70
128
 71
238
 72
237
 73
205
 74
205
 0
VERTEX
 8
RECTANGLE1
 10
0
 20
0
 30
0
 70
128
 71
206
 72
207
 73
239
 74
239
 0
VERTEX
 8
RECTANGLE1
 10
0
 20
0
 30
0
 70
128
 71
239
 72
238
 73
206
 74
206
 0
VERTEX
 8
RECTANGLE1
 10
0
 20
0
 30
0
 70
128
 71
207
 72
208
 73
240
 74
240
 0
VERTEX
 8
RECTANGLE1
 10
0
 20
0
 30
0
 70
128
 71
240
 72
239
 73
207
 74
207
 0
VERTEX
 8
RECTANGLE1
 10
0
 20
0
 30
0
 70
128
 71
208
 72
209
 73
241
 74
241
 0
VERTEX
 8
RECTANGLE1
 10
0
 20
0
 30
0
 70
128
 71
241
 72
240
 73
208
 74
208
 0
VERTEX
 8
RECTANGLE1
 10
0
 20
0
 30
0
 70
128
 71
209
 72
210
 73
242
 74
242
 0
VERTEX
 8
RECTANGLE1
 10
0
 20
0
 30
0
 70
128
 71
242
 72
241
 73
209
 74
209
 0
VERTEX
 8
RECTANGLE1
 10
0
 20
0
 30
0
 70
128
 71
210
 72
211
 73
243
 74
243
 0
VERTEX
 8
RECTANGLE1
 10
0
 20
0
 30
0
 70
128
 71
243
 72
242
 73
210
 74
210
 0
VERTEX
 8
RECTANGLE1
 10
0
 20
0
 30
0
 70
128
 71
211
 72
212
 73
244
 74
244
 0
VERTEX
 8
RECTANGLE1
 10
0
 20
0
 30
0
 70
128
 71
244
 72
243
 73
211
 74
211
 0
VERTEX
 8
RECTANGLE1
 10
0
 20
0
 30
0
 70
128
 71
212
 72
213
 73
245
 74
245
 0
VERTEX
 8
RECTANGLE1
 10
0
 20
0
 30
0
 70
128
 71
245
 72
244
 73
212
 74
212
 0
VERTEX
 8
RECTANGLE1
 10
0
 20
0
 30
0
 70
128
 71
213
 72
214
 73
246
 74
246
 0
VERTEX
 8
RECTANGLE1
 10
0
 20
0
 30
0
 70
128
 71
246
 72
245
 73
213
 74
213
 0
VERTEX
 8
RECTANGLE1
 10
0
 20
0
 30
0
 70
128
 71
214
 72
215
 73
247
 74
247
 0
VERTEX
 8
RECTANGLE1
 10
0
 20
0
 30
0
 70
128
 71
247
 72
246
 73
214
 74
214
 0
VERTEX
 8
RECTANGLE1
 10
0
 20
0
 30
0
 70
128
 71
215
 72
216
 73
248
 74
248
 0
VERTEX
 8
RECTANGLE1
 10
0
 20
0
 30
0
 70
128
 71
248
 72
247
 73
215
 74
215
 0
VERTEX
 8
RECTANGLE1
 10
0
 20
0
 30
0
 70
128
 71
216
 72
217
 73
249
 74
249
 0
VERTEX
 8
RECTANGLE1
 10
0
 20
0
 30
0
 70
128
 71
249
 72
248
 73
216
 74
216
 0
VERTEX
 8
RECTANGLE1
 10
0
 20
0
 30
0
 70
128
 71
217
 72
218
 73
250
 74
250
 0
VERTEX
 8
RECTANGLE1
 10
0
 20
0
 30
0
 70
128
 71
250
 72
249
 73
217
 74
217
 0
VERTEX
 8
RECTANGLE1
 10
0
 20
0
 30
0
 70
128
 71
218
 72
219
 73
251
 74
251
 0
VERTEX
 8
RECTANGLE1
 10
0
 20
0
 30
0
 70
128
 71
251
 72
250
 73
218
 74
218
 0
VERTEX
 8
RECTANGLE1
 10
0
 20
0
 30
0
 70
128
 71
219
 72
220
 73
252
 74
252
 0
VERTEX
 8
RECTANGLE1
 10
0
 20
0
 30
0
 70
128
 71
252
 72
251
 73
219
 74
219
 0
VERTEX
 8
RECTANGLE1
 10
0
 20
0
 30
0
 70
128
 71
220
 72
221
 73
253
 74
253
 0
VERTEX
 8
RECTANGLE1
 10
0
 20
0
 30
0
 70
128
 71
253
 72
252
 73
220
 74
220
 0
VERTEX
 8
RECTANGLE1
 10
0
 20
0
 30
0
 70
128
 71
221
 72
222
 73
254
 74
254
 0
VERTEX
 8
RECTANGLE1
 10
0
 20
0
 30
0
 70
128
 71
254
 72
253
 73
221
 74
221
 0
VERTEX
 8
RECTANGLE1
 10
0
 20
0
 30
0
 70
128
 71
222
 72
223
 73
255
 74
255
 0
VERTEX
 8
RECTANGLE1
 10
0
 20
0
 30
0
 70
128
 71
255
 72
254
 73
222
 74
222
 0
VERTEX
 8
RECTANGLE1
 10
0
 20
0
 30
0
 70
128
 71
223
 72
224
 73
256
 74
256
 0
VERTEX
 8
RECTANGLE1
 10
0
 20
0
 30
0
 70
128
 71
256
 72
255
 73
223
 74
223
 0
VERTEX
 8
RECTANGLE1
 10
0
 20
0
 30
0
 70
128
 71
224
 72
225
 73
257
 74
257
 0
VERTEX
 8
RECTANGLE1
 10
0
 20
0
 30
0
 70
128
 71
257
 72
256
 73
224
 74
224
 0
VERTEX
 8
RECTANGLE1
 10
0
 20
0
 30
0
 70
128
 71
225
 72
226
 73
258
 74
258
 0
VERTEX
 8
RECTANGLE1
 10
0
 20
0
 30
0
 70
128
 71
258
 72
257
 73
225
 74
225
 0
VERTEX
 8
RECTANGLE1
 10
0
 20
0
 30
0
 70
128
 71
226
 72
227
 73
259
 74
259
 0
VERTEX
 8
RECTANGLE1
 10
0
 20
0
 30
0
 70
128
 71
259
 72
258
 73
226
 74
226
 0
VERTEX
 8
RECTANGLE1
 10
0
 20
0
 30
0
 70
128
 71
227
 72
228
 73
260
 74
260
 0
VERTEX
 8
RECTANGLE1
 10
0
 20
0
 30
0
 70
128
 71
260
 72
259
 73
227
 74
227
 0
VERTEX
 8
RECTANGLE1
 10
0
 20
0
 30
0
 70
128
 71
228
 72
229
 73
261
 74
261
 0
VERTEX
 8
RECTANGLE1
 10
0
 20
0
 30
0
 70
128
 71
261
 72
260
 73
228
 74
228
 0
VERTEX
 8
RECTANGLE1
 10
0
 20
0
 30
0
 70
128
 71
229
 72
230
 73
262
 74
262
 0
VERTEX
 8
RECTANGLE1
 10
0
 20
0
 30
0
 70
128
 71
262
 72
261
 73
229
 74
229
 0
VERTEX
 8
RECTANGLE1
 10
0
 20
0
 30
0
 70
128
 71
230
 72
231
 73
263
 74
263
 0
VERTEX
 8
RECTANGLE1
 10
0
 20
0
 30
0
 70
128
 71
263
 72
262
 73
230
 74
230
 0
VERTEX
 8
RECTANGLE1
 10
0
 20
0
 30
0
 70
128
 71
231
 72
232
 73
264
 74
264
 0
VERTEX
 8
RECTANGLE1
 10
0
 20
0
 30
0
 70
128
 71
264
 72
263
 73
231
 74
231
 0
VERTEX
 8
RECTANGLE1
 10
0
 20
0
 30
0
 70
128
 71
232
 72
201
 73
233
 74
233
 0
VERTEX
 8
RECTANGLE1
 10
0
 20
0
 30
0
 70
128
 71
233
 72
264
 73
232
 74
232
 0
VERTEX
 8
RECTANGLE1
 10
0
 20
0
 30
0
 70
128
 71
265
 72
266
 73
298
 74
298
 0
VERTEX
 8
RECTANGLE1
 10
0
 20
0
 30
0
 70
128
 71
298
 72
297
 73
265
 74
265
 0
VERTEX
 8
RECTANGLE1
 10
0
 20
0
 30
0
 70
128
 71
266
 72
267
 73
299
 74
299
 0
VERTEX
 8
RECTANGLE1
 10
0
 20
0
 30
0
 70
128
 71
299
 72
298
 73
266
 74
266
 0
VERTEX
 8
RECTANGLE1
 10
0
 20
0
 30
0
 70
128
 71
267
 72
268
 73
300
 74
300
 0
VERTEX
 8
RECTANGLE1
 10
0
 20
0
 30
0
 70
128
 71
300
 72
299
 73
267
 74
267
 0
VERTEX
 8
RECTANGLE1
 10
0
 20
0
 30
0
 70
128
 71
268
 72
269
 73
301
 74
301
 0
VERTEX
 8
RECTANGLE1
 10
0
 20
0
 30
0
 70
128
 71
301
 72
300
 73
268
 74
268
 0
VERTEX
 8
RECTANGLE1
 10
0
 20
0
 30
0
 70
128
 71
269
 72
270
 73
302
 74
302
 0
VERTEX
 8
RECTANGLE1
 10
0
 20
0
 30
0
 70
128
 71
302
 72
301
 73
269
 74
269
 0
VERTEX
 8
RECTANGLE1
 10
0
 20
0
 30
0
 70
128
 71
270
 72
271
 73
303
 74
303
 0
VERTEX
 8
RECTANGLE1
 10
0
 20
0
 30
0
 70
128
 71
303
 72
302
 73
270
 74
270
 0
VERTEX
 8
RECTANGLE1
 10
0
 20
0
 30
0
 70
128
 71
271
 72
272
 73
304
 74
304
 0
VERTEX
 8
RECTANGLE1
 10
0
 20
0
 30
0
 70
128
 71
304
 72
303
 73
271
 74
271
 0
VERTEX
 8
RECTANGLE1
 10
0
 20
0
 30
0
 70
128
 71
272
 72
273
 73
305
 74
305
 0
VERTEX
 8
RECTANGLE1
 10
0
 20
0
 30
0
 70
128
 71
305
 72
304
 73
272
 74
272
 0
VERTEX
 8
RECTANGLE1
 10
0
 20
0
 30
0
 70
128
 71
273
 72
274
 73
306
 74
306
 0
VERTEX
 8
RECTANGLE1
 10
0
 20
0
 30
0
 70
128
 71
306
 72
305
 73
273
 74
273
 0
VERTEX
 8
RECTANGLE1
 10
0
 20
0
 30
0
 70
128
 71
274
 72
275
 73
307
 74
307
 0
VERTEX
 8
RECTANGLE1
 10
0
 20
0
 30
0
 70
128
 71
307
 72
306
 73
274
 74
274
 0
VERTEX
 8
RECTANGLE1
 10
0
 20
0
 30
0
 70
128
 71
275
 72
276
 73
308
 74
308
 0
VERTEX
 8
RECTANGLE1
 10
0
 20
0
 30
0
 70
128
 71
308
 72
307
 73
275
 74
275
 0
VERTEX
 8
RECTANGLE1
 10
0
 20
0
 30
0
 70
128
 71
276
 72
277
 73
309
 74
309
 0
VERTEX
 8
RECTANGLE1
 10
0
 20
0
 30
0
 70
128
 71
309
 72
308
 73
276
 74
276
 0
VERTEX
 8
RECTANGLE1
 10
0
 20
0
 30
0
 70
128
 71
277
 72
278
 73
310
 74
310
 0
VERTEX
 8
RECTANGLE1
 10
0
 20
0
 30
0
 70
128
 71
310
 72
309
 73
277
 74
277
 0
VERTEX
 8
RECTANGLE1
 10
0
 20
0
 30
0
 70
128
 71
278
 72
279
 73
311
 74
311
 0
VERTEX
 8
RECTANGLE1
 10
0
 20
0
 30
0
 70
128
 71
311
 72
310
 73
278
 74
278
 0
VERTEX
 8
RECTANGLE1
 10
0
 20
0
 30
0
 70
128
 71
279
 72
280
 73
312
 74
312
 0
VERTEX
 8
RECTANGLE1
 10
0
 20
0
 30
0
 70
128
 71
312
 72
311
 73
279
 74
279
 0
VERTEX
 8
RECTANGLE1
 10
0
 20
0
 30
0
 70
128
 71
280
 72
281
 73
313
 74
313
 0
VERTEX
 8
RECTANGLE1
 10
0
 20
0
 30
0
 70
128
 71
313
 72
312
 73
280
 74
280
 0
VERTEX
 8
RECTANGLE1
 10
0
 20
0
 30
0
 70
128
 71
281
 72
282
 73
314
 74
314
 0
VERTEX
 8
RECTANGLE1
 10
0
 20
0
 30
0
 70
128
 71
314
 72
313
 73
281
 74
281
 0
VERTEX
 8
RECTANGLE1
 10
0
 20
0
 30
0
 70
128
 71
282
 72
283
 73
315
 74
315
 0
VERTEX
 8
RECTANGLE1
 10
0
 20
0
 30
0
 70
128
 71
315
 72
314
 73
282
 74
282
 0
VERTEX
 8
RECTANGLE1
 10
0
 20
0
 30
0
 70
128
 71
283
 72
284
 73
316
 74
316
 0
VERTEX
 8
RECTANGLE1
 10
0
 20
0
 30
0
 70
128
 71
316
 72
315
 73
283
 74
283
 0
VERTEX
 8
RECTANGLE1
 10
0
 20
0
 30
0
 70
128
 71
284
 72
285
 73
317
 74
317
 0
VERTEX
 8
RECTANGLE1
 10
0
 20
0
 30
0
 70
128
 71
317
 72
316
 73
284
 74
284
 0
VERTEX
 8
RECTANGLE1
 10
0
 20
0
 30
0
 70
128
 71
285
 72
286
 73
318
 74
318
 0
VERTEX
 8
RECTANGLE1
 10
0
 20
0
 30
0
 70
128
 71
318
 72
317
 73
285
 74
285
 0
VERTEX
 8
RECTANGLE1
 10
0
 20
0
 30
0
 70
128
 71
286
 72
287
 73
319
 74
319
 0
VERTEX
 8
RECTANGLE1
 10
0
 20
0
 30
0
 70
128
 71
319
 72
318
 73
286
 74
286
 0
VERTEX
 8
RECTANGLE1
 10
0
 20
0
 30
0
 70
128
 71
287
 72
288
 73
320
 74
320
 0
VERTEX
 8
RECTANGLE1
 10
0
 20
0
 30
0
 70
128
 71
320
 72
319
 73
287
 74
287
 0
VERTEX
 8
RECTANGLE1
 10
0
 20
0
 30
0
 70
128
 71
288
 72
289
 73
321
 74
321
 0
VERTEX
 8
RECTANGLE1
 10
0
 20
0
 30
0
 70
128
 71
321
 72
320
 73
288
 74
288
 0
VERTEX
 8
RECTANGLE1
 10
0
 20
0
 30
0
 70
128
 71
289
 72
290
 73
322
 74
322
 0
VERTEX
 8
RECTANGLE1
 10
0
 20
0
 30
0
 70
128
 71
322
 72
321
 73
289
 74
289
 0
VERTEX
 8
RECTANGLE1
 10
0
 20
0
 30
0
 70
128
 71
290
 72
291
 73
323
 74
323
 0
VERTEX
 8
RECTANGLE1
 10
0
 20
0
 30
0
 70
128
 71
323
 72
322
 73
290
 74
290
 0
VERTEX
 8
RECTANGLE1
 10
0
 20
0
 30
0
 70
128
 71
291
 72
292
 73
324
 74
324
 0
VERTEX
 8
RECTANGLE1
 10
0
 20
0
 30
0
 70
128
 71
324
 72
323
 73
291
 74
291
 0
VERTEX
 8
RECTANGLE1
 10
0
 20
0
 30
0
 70
128
 71
292
 72
293
 73
325
 74
325
 0
VERTEX
 8
RECTANGLE1
 10
0
 20
0
 30
0
 70
128
 71
325
 72
324
 73
292
 74
292
 0
VERTEX
 8
RECTANGLE1
 10
0
 20
0
 30
0
 70
128
 71
293
 72
294
 73
326
 74
326
 0
VERTEX
 8
RECTANGLE1
 10
0
 20
0
 30
0
 70
128
 71
326
 72
325
 73
293
 74
293
 0
VERTEX
 8
RECTANGLE1
 10
0
 20
0
 30
0
 70
128
 71
294
 72
295
 73
327
 74
327
 0
VERTEX
 8
RECTANGLE1
 10
0
 20
0
 30
0
 70
128
 71
327
 72
326
 73
294
 74
294
 0
VERTEX
 8
RECTANGLE1
 10
0
 20
0
 30
0
 70
128
 71
295
 72
296
 73
328
 74
328
 0
VERTEX
 8
RECTANGLE1
 10
0
 20
0
 30
0
 70
128
 71
328
 72
327
 73
295
 74
295
 0
VERTEX
 8
RECTANGLE1
 10
0
 20
0
 30
0
 70
128
 71
296
 72
265
 73
297
 74
297
 0
VERTEX
 8
RECTANGLE1
 10
0
 20
0
 30
0
 70
128
 71
297
 72
328
 73
296
 74
296
 0
VERTEX
 8
RECTANGLE1
 10
0
 20
0
 30
0
 70
128
 71
210
 72
209
 73
287
 74
287
 0
VERTEX
 8
RECTANGLE1
 10
0
 20
0
 30
0
 70
128
 71
210
 72
287
 73
286
 74
286
 0
VERTEX
 8
RECTANGLE1
 10
0
 20
0
 30
0
 70
128
 71
211
 72
210
 73
286
 74
286
 0
VERTEX
 8
RECTANGLE1
 10
0
 20
0
 30
0
 70
128
 71
211
 72
286
 73
285
 74
285
 0
VERTEX
 8
RECTANGLE1
 10
0
 20
0
 30
0
 70
128
 71
212
 72
211
 73
285
 74
285
 0
VERTEX
 8
RECTANGLE1
 10
0
 20
0
 30
0
 70
128
 71
212
 72
285
 73
284
 74
284
 0
VERTEX
 8
RECTANGLE1
 10
0
 20
0
 30
0
 70
128
 71
213
 72
212
 73
284
 74
284
 0
VERTEX
 8
RECTANGLE1
 10
0
 20
0
 30
0
 70
128
 71
213
 72
284
 73
283
 74
283
 0
VERTEX
 8
RECTANGLE1
 10
0
 20
0
 30
0
 70
128
 71
214
 72
213
 73
283
 74
283
 0
VERTEX
 8
RECTANGLE1
 10
0
 20
0
 30
0
 70
128
 71
214
 72
283
 73
282
 74
282
 0
VERTEX
 8
RECTANGLE1
 10
0
 20
0
 30
0
 70
128
 71
215
 72
214
 73
282
 74
282
 0
VERTEX
 8
RECTANGLE1
 10
0
 20
0
 30
0
 70
128
 71
215
 72
282
 73
281
 74
281
 0
VERTEX
 8
RECTANGLE1
 10
0
 20
0
 30
0
 70
128
 71
216
 72
215
 73
281
 74
281
 0
VERTEX
 8
RECTANGLE1
 10
0
 20
0
 30
0
 70
128
 71
216
 72
281
 73
280
 74
280
 0
VERTEX
 8
RECTANGLE1
 10
0
 20
0
 30
0
 70
128
 71
217
 72
216
 73
280
 74
280
 0
VERTEX
 8
RECTANGLE1
 10
0
 20
0
 30
0
 70
128
 71
217
 72
280
 73
279
 74
279
 0
VERTEX
 8
RECTANGLE1
 10
0
 20
0
 30
0
 70
128
 71
218
 72
217
 73
279
 74
279
 0
VERTEX
 8
RECTANGLE1
 10
0
 20
0
 30
0
 70
128
 71
218
 72
279
 73
278
 74
278
 0
VERTEX
 8
RECTANGLE1
 10
0
 20
0
 30
0
 70
128
 71
219
 72
218
 73
278
 74
278
 0
VERTEX
 8
RECTANGLE1
 10
0
 20
0
 30
0
 70
128
 71
219
 72
278
 73
277
 74
277
 0
VERTEX
 8
RECTANGLE1
 10
0
 20
0
 30
0
 70
128
 71
220
 72
219
 73
277
 74
277
 0
VERTEX
 8
RECTANGLE1
 10
0
 20
0
 30
0
 70
128
 71
220
 72
277
 73
276
 74
276
 0
VERTEX
 8
RECTANGLE1
 10
0
 20
0
 30
0
 70
128
 71
221
 72
220
 73
276
 74
276
 0
VERTEX
 8
RECTANGLE1
 10
0
 20
0
 30
0
 70
128
 71
221
 72
276
 73
275
 74
275
 0
VERTEX
 8
RECTANGLE1
 10
0
 20
0
 30
0
 70
128
 71
222
 72
221
 73
275
 74
275
 0
VERTEX
 8
RECTANGLE1
 10
0
 20
0
 30
0
 70
128
 71
222
 72
275
 73
274
 74
274
 0
VERTEX
 8
RECTANGLE1
 10
0
 20
0
 30
0
 70
128
 71
223
 72
222
 73
274
 74
274
 0
VERTEX
 8
RECTANGLE1
 10
0
 20
0
 30
0
 70
128
 71
223
 72
274
 73
273
 74
273
 0
VERTEX
 8
RECTANGLE1
 10
0
 20
0
 30
0
 70
128
 71
224
 72
223
 73
273
 74
273
 0
VERTEX
 8
RECTANGLE1
 10
0
 20
0
 30
0
 70
128
 71
224
 72
273
 73
272
 74
272
 0
VERTEX
 8
RECTANGLE1
 10
0
 20
0
 30
0
 70
128
 71
225
 72
224
 73
272
 74
272
 0
VERTEX
 8
RECTANGLE1
 10
0
 20
0
 30
0
 70
128
 71
225
 72
272
 73
271
 74
271
 0
VERTEX
 8
RECTANGLE1
 10
0
 20
0
 30
0
 70
128
 71
226
 72
225
 73
271
 74
271
 0
VERTEX
 8
RECTANGLE1
 10
0
 20
0
 30
0
 70
128
 71
226
 72
271
 73
270
 74
270
 0
VERTEX
 8
RECTANGLE1
 10
0
 20
0
 30
0
 70
128
 71
227
 72
226
 73
270
 74
270
 0
VERTEX
 8
RECTANGLE1
 10
0
 20
0
 30
0
 70
128
 71
227
 72
270
 73
269
 74
269
 0
VERTEX
 8
RECTANGLE1
 10
0
 20
0
 30
0
 70
128
 71
228
 72
227
 73
269
 74
269
 0
VERTEX
 8
RECTANGLE1
 10
0
 20
0
 30
0
 70
128
 71
228
 72
269
 73
268
 74
268
 0
VERTEX
 8
RECTANGLE1
 10
0
 20
0
 30
0
 70
128
 71
229
 72
228
 73
268
 74
268
 0
VERTEX
 8
RECTANGLE1
 10
0
 20
0
 30
0
 70
128
 71
229
 72
268
 73
267
 74
267
 0
VERTEX
 8
RECTANGLE1
 10
0
 20
0
 30
0
 70
128
 71
230
 72
229
 73
267
 74
267
 0
VERTEX
 8
RECTANGLE1
 10
0
 20
0
 30
0
 70
128
 71
230
 72
267
 73
266
 74
266
 0
VERTEX
 8
RECTANGLE1
 10
0
 20
0
 30
0
 70
128
 71
231
 72
230
 73
266
 74
266
 0
VERTEX
 8
RECTANGLE1
 10
0
 20
0
 30
0
 70
128
 71
231
 72
266
 73
265
 74
265
 0
VERTEX
 8
RECTANGLE1
 10
0
 20
0
 30
0
 70
128
 71
232
 72
231
 73
265
 74
265
 0
VERTEX
 8
RECTANGLE1
 10
0
 20
0
 30
0
 70
128
 71
232
 72
265
 73
296
 74
296
 0
VERTEX
 8
RECTANGLE1
 10
0
 20
0
 30
0
 70
128
 71
201
 72
232
 73
296
 74
296
 0
VERTEX
 8
RECTANGLE1
 10
0
 20
0
 30
0
 70
128
 71
201
 72
296
 73
295
 74
295
 0
VERTEX
 8
RECTANGLE1
 10
0
 20
0
 30
0
 70
128
 71
202
 72
201
 73
295
 74
295
 0
VERTEX
 8
RECTANGLE1
 10
0
 20
0
 30
0
 70
128
 71
203
 72
202
 73
295
 74
295
 0
VERTEX
 8
RECTANGLE1
 10
0
 20
0
 30
0
 70
128
 71
288
 72
287
 73
209
 74
209
 0
VERTEX
 8
RECTANGLE1
 10
0
 20
0
 30
0
 70
128
 71
289
 72
288
 73
209
 74
209
 0
VERTEX
 8
RECTANGLE1
 10
0
 20
0
 30
0
 70
128
 71
289
 72
209
 73
208
 74
208
 0
VERTEX
 8
RECTANGLE1
 10
0
 20
0
 30
0
 70
128
 71
290
 72
289
 73
208
 74
208
 0
VERTEX
 8
RECTANGLE1
 10
0
 20
0
 30
0
 70
128
 71
290
 72
208
 73
207
 74
207
 0
VERTEX
 8
RECTANGLE1
 10
0
 20
0
 30
0
 70
128
 71
291
 72
290
 73
207
 74
207
 0
VERTEX
 8
RECTANGLE1
 10
0
 20
0
 30
0
 70
128
 71
291
 72
207
 73
206
 74
206
 0
VERTEX
 8
RECTANGLE1
 10
0
 20
0
 30
0
 70
128
 71
292
 72
291
 73
206
 74
206
 0
VERTEX
 8
RECTANGLE1
 10
0
 20
0
 30
0
 70
128
 71
292
 72
206
 73
205
 74
205
 0
VERTEX
 8
RECTANGLE1
 10
0
 20
0
 30
0
 70
128
 71
293
 72
292
 73
205
 74
205
 0
VERTEX
 8
RECTANGLE1
 10
0
 20
0
 30
0
 70
128
 71
293
 72
205
 73
204
 74
204
 0
VERTEX
 8
RECTANGLE1
 10
0
 20
0
 30
0
 70
128
 71
294
 72
293
 73
204
 74
204
 0
VERTEX
 8
RECTANGLE1
 10
0
 20
0
 30
0
 70
128
 71
294
 72
204
 73
203
 74
203
 0
VERTEX
 8
RECTANGLE1
 10
0
 20
0
 30
0
 70
128
 71
294
 72
203
 73
295
 74
295
 0
VERTEX
 8
RECTANGLE1
 10
0
 20
0
 30
0
 70
128
 71
241
 72
319
 73
320
 74
320
 0
VERTEX
 8
RECTANGLE1
 10
0
 20
0
 30
0
 70
128
 71
241
 72
320
 73
321
 74
321
 0
VERTEX
 8
RECTANGLE1
 10
0
 20
0
 30
0
 70
128
 71
240
 72
241
 73
321
 74
321
 0
VERTEX
 8
RECTANGLE1
 10
0
 20
0
 30
0
 70
128
 71
240
 72
321
 73
322
 74
322
 0
VERTEX
 8
RECTANGLE1
 10
0
 20
0
 30
0
 70
128
 71
239
 72
240
 73
322
 74
322
 0
VERTEX
 8
RECTANGLE1
 10
0
 20
0
 30
0
 70
128
 71
239
 72
322
 73
323
 74
323
 0
VERTEX
 8
RECTANGLE1
 10
0
 20
0
 30
0
 70
128
 71
238
 72
239
 73
323
 74
323
 0
VERTEX
 8
RECTANGLE1
 10
0
 20
0
 30
0
 70
128
 71
238
 72
323
 73
324
 74
324
 0
VERTEX
 8
RECTANGLE1
 10
0
 20
0
 30
0
 70
128
 71
237
 72
238
 73
324
 74
324
 0
VERTEX
 8
RECTANGLE1
 10
0
 20
0
 30
0
 70
128
 71
237
 72
324
 73
325
 74
325
 0
VERTEX
 8
RECTANGLE1
 10
0
 20
0
 30
0
 70
128
 71
236
 72
237
 73
325
 74
325
 0
VERTEX
 8
RECTANGLE1
 10
0
 20
0
 30
0
 70
128
 71
236
 72
325
 73
326
 74
326
 0
VERTEX
 8
RECTANGLE1
 10
0
 20
0
 30
0
 70
128
 71
235
 72
236
 73
326
 74
326
 0
VERTEX
 8
RECTANGLE1
 10
0
 20
0
 30
0
 70
128
 71
235
 72
326
 73
327
 74
327
 0
VERTEX
 8
RECTANGLE1
 10
0
 20
0
 30
0
 70
128
 71
234
 72
235
 73
327
 74
327
 0
VERTEX
 8
RECTANGLE1
 10
0
 20
0
 30
0
 70
128
 71
233
 72
234
 73
327
 74
327
 0
VERTEX
 8
RECTANGLE1
 10
0
 20
0
 30
0
 70
128
 71
319
 72
241
 73
242
 74
242
 0
VERTEX
 8
RECTANGLE1
 10
0
 20
0
 30
0
 70
128
 71
318
 72
319
 73
242
 74
242
 0
VERTEX
 8
RECTANGLE1
 10
0
 20
0
 30
0
 70
128
 71
318
 72
242
 73
243
 74
243
 0
VERTEX
 8
RECTANGLE1
 10
0
 20
0
 30
0
 70
128
 71
317
 72
318
 73
243
 74
243
 0
VERTEX
 8
RECTANGLE1
 10
0
 20
0
 30
0
 70
128
 71
317
 72
243
 73
244
 74
244
 0
VERTEX
 8
RECTANGLE1
 10
0
 20
0
 30
0
 70
128
 71
316
 72
317
 73
244
 74
244
 0
VERTEX
 8
RECTANGLE1
 10
0
 20
0
 30
0
 70
128
 71
316
 72
244
 73
245
 74
245
 0
VERTEX
 8
RECTANGLE1
 10
0
 20
0
 30
0
 70
128
 71
315
 72
316
 73
245
 74
245
 0
VERTEX
 8
RECTANGLE1
 10
0
 20
0
 30
0
 70
128
 71
315
 72
245
 73
246
 74
246
 0
VERTEX
 8
RECTANGLE1
 10
0
 20
0
 30
0
 70
128
 71
314
 72
315
 73
246
 74
246
 0
VERTEX
 8
RECTANGLE1
 10
0
 20
0
 30
0
 70
128
 71
314
 72
246
 73
247
 74
247
 0
VERTEX
 8
RECTANGLE1
 10
0
 20
0
 30
0
 70
128
 71
313
 72
314
 73
247
 74
247
 0
VERTEX
 8
RECTANGLE1
 10
0
 20
0
 30
0
 70
128
 71
313
 72
247
 73
248
 74
248
 0
VERTEX
 8
RECTANGLE1
 10
0
 20
0
 30
0
 70
128
 71
312
 72
313
 73
248
 74
248
 0
VERTEX
 8
RECTANGLE1
 10
0
 20
0
 30
0
 70
128
 71
312
 72
248
 73
249
 74
249
 0
VERTEX
 8
RECTANGLE1
 10
0
 20
0
 30
0
 70
128
 71
311
 72
312
 73
249
 74
249
 0
VERTEX
 8
RECTANGLE1
 10
0
 20
0
 30
0
 70
128
 71
311
 72
249
 73
250
 74
250
 0
VERTEX
 8
RECTANGLE1
 10
0
 20
0
 30
0
 70
128
 71
310
 72
311
 73
250
 74
250
 0
VERTEX
 8
RECTANGLE1
 10
0
 20
0
 30
0
 70
128
 71
310
 72
250
 73
251
 74
251
 0
VERTEX
 8
RECTANGLE1
 10
0
 20
0
 30
0
 70
128
 71
309
 72
310
 73
251
 74
251
 0
VERTEX
 8
RECTANGLE1
 10
0
 20
0
 30
0
 70
128
 71
309
 72
251
 73
252
 74
252
 0
VERTEX
 8
RECTANGLE1
 10
0
 20
0
 30
0
 70
128
 71
308
 72
309
 73
252
 74
252
 0
VERTEX
 8
RECTANGLE1
 10
0
 20
0
 30
0
 70
128
 71
308
 72
252
 73
253
 74
253
 0
VERTEX
 8
RECTANGLE1
 10
0
 20
0
 30
0
 70
128
 71
307
 72
308
 73
253
 74
253
 0
VERTEX
 8
RECTANGLE1
 10
0
 20
0
 30
0
 70
128
 71
307
 72
253
 73
254
 74
254
 0
VERTEX
 8
RECTANGLE1
 10
0
 20
0
 30
0
 70
128
 71
306
 72
307
 73
254
 74
254
 0
VERTEX
 8
RECTANGLE1
 10
0
 20
0
 30
0
 70
128
 71
306
 72
254
 73
255
 74
255
 0
VERTEX
 8
RECTANGLE1
 10
0
 20
0
 30
0
 70
128
 71
305
 72
306
 73
255
 74
255
 0
VERTEX
 8
RECTANGLE1
 10
0
 20
0
 30
0
 70
128
 71
305
 72
255
 73
256
 74
256
 0
VERTEX
 8
RECTANGLE1
 10
0
 20
0
 30
0
 70
128
 71
304
 72
305
 73
256
 74
256
 0
VERTEX
 8
RECTANGLE1
 10
0
 20
0
 30
0
 70
128
 71
304
 72
256
 73
257
 74
257
 0
VERTEX
 8
RECTANGLE1
 10
0
 20
0
 30
0
 70
128
 71
303
 72
304
 73
257
 74
257
 0
VERTEX
 8
RECTANGLE1
 10
0
 20
0
 30
0
 70
128
 71
303
 72
257
 73
258
 74
258
 0
VERTEX
 8
RECTANGLE1
 10
0
 20
0
 30
0
 70
128
 71
302
 72
303
 73
258
 74
258
 0
VERTEX
 8
RECTANGLE1
 10
0
 20
0
 30
0
 70
128
 71
302
 72
258
 73
259
 74
259
 0
VERTEX
 8
RECTANGLE1
 10
0
 20
0
 30
0
 70
128
 71
301
 72
302
 73
259
 74
259
 0
VERTEX
 8
RECTANGLE1
 10
0
 20
0
 30
0
 70
128
 71
301
 72
259
 73
260
 74
260
 0
VERTEX
 8
RECTANGLE1
 10
0
 20
0
 30
0
 70
128
 71
300
 72
301
 73
260
 74
260
 0
VERTEX
 8
RECTANGLE1
 10
0
 20
0
 30
0
 70
128
 71
300
 72
260
 73
261
 74
261
 0
VERTEX
 8
RECTANGLE1
 10
0
 20
0
 30
0
 70
128
 71
299
 72
300
 73
261
 74
261
 0
VERTEX
 8
RECTANGLE1
 10
0
 20
0
 30
0
 70
128
 71
299
 72
261
 73
262
 74
262
 0
VERTEX
 8
RECTANGLE1
 10
0
 20
0
 30
0
 70
128
 71
298
 72
299
 73
262
 74
262
 0
VERTEX
 8
RECTANGLE1
 10
0
 20
0
 30
0
 70
128
 71
298
 72
262
 73
263
 74
263
 0
VERTEX
 8
RECTANGLE1
 10
0
 20
0
 30
0
 70
128
 71
297
 72
298
 73
263
 74
263
 0
VERTEX
 8
RECTANGLE1
 10
0
 20
0
 30
0
 70
128
 71
297
 72
263
 73
264
 74
264
 0
VERTEX
 8
RECTANGLE1
 10
0
 20
0
 30
0
 70
128
 71
328
 72
297
 73
264
 74
264
 0
VERTEX
 8
RECTANGLE1
 10
0
 20
0
 30
0
 70
128
 71
328
 72
264
 73
233
 74
233
 0
VERTEX
 8
RECTANGLE1
 10
0
 20
0
 30
0
 70
128
 71
328
 72
233
 73
327
 74
327
 0
VERTEX
 8
RECTANGLE1
 10
0
 20
0
 30
0
 70
128
 71
393
 72
394
 73
345
 74
345
 0
VERTEX
 8
RECTANGLE1
 10
0
 20
0
 30
0
 70
128
 71
345
 72
329
 73
393
 74
393
 0
VERTEX
 8
RECTANGLE1
 10
0
 20
0
 30
0
 70
128
 71
330
 72
346
 73
395
 74
395
 0
VERTEX
 8
RECTANGLE1
 10
0
 20
0
 30
0
 70
128
 71
395
 72
396
 73
330
 74
330
 0
VERTEX
 8
RECTANGLE1
 10
0
 20
0
 30
0
 70
128
 71
347
 72
346
 73
330
 74
330
 0
VERTEX
 8
RECTANGLE1
 10
0
 20
0
 30
0
 70
128
 71
330
 72
331
 73
347
 74
347
 0
VERTEX
 8
RECTANGLE1
 10
0
 20
0
 30
0
 70
128
 71
348
 72
347
 73
331
 74
331
 0
VERTEX
 8
RECTANGLE1
 10
0
 20
0
 30
0
 70
128
 71
331
 72
332
 73
348
 74
348
 0
VERTEX
 8
RECTANGLE1
 10
0
 20
0
 30
0
 70
128
 71
349
 72
348
 73
332
 74
332
 0
VERTEX
 8
RECTANGLE1
 10
0
 20
0
 30
0
 70
128
 71
332
 72
333
 73
349
 74
349
 0
VERTEX
 8
RECTANGLE1
 10
0
 20
0
 30
0
 70
128
 71
350
 72
349
 73
333
 74
333
 0
VERTEX
 8
RECTANGLE1
 10
0
 20
0
 30
0
 70
128
 71
333
 72
334
 73
350
 74
350
 0
VERTEX
 8
RECTANGLE1
 10
0
 20
0
 30
0
 70
128
 71
351
 72
350
 73
334
 74
334
 0
VERTEX
 8
RECTANGLE1
 10
0
 20
0
 30
0
 70
128
 71
334
 72
335
 73
351
 74
351
 0
VERTEX
 8
RECTANGLE1
 10
0
 20
0
 30
0
 70
128
 71
352
 72
351
 73
335
 74
335
 0
VERTEX
 8
RECTANGLE1
 10
0
 20
0
 30
0
 70
128
 71
335
 72
336
 73
352
 74
352
 0
VERTEX
 8
RECTANGLE1
 10
0
 20
0
 30
0
 70
128
 71
353
 72
352
 73
336
 74
336
 0
VERTEX
 8
RECTANGLE1
 10
0
 20
0
 30
0
 70
128
 71
336
 72
337
 73
353
 74
353
 0
VERTEX
 8
RECTANGLE1
 10
0
 20
0
 30
0
 70
128
 71
354
 72
353
 73
337
 74
337
 0
VERTEX
 8
RECTANGLE1
 10
0
 20
0
 30
0
 70
128
 71
337
 72
338
 73
354
 74
354
 0
VERTEX
 8
RECTANGLE1
 10
0
 20
0
 30
0
 70
128
 71
355
 72
354
 73
338
 74
338
 0
VERTEX
 8
RECTANGLE1
 10
0
 20
0
 30
0
 70
128
 71
338
 72
339
 73
355
 74
355
 0
VERTEX
 8
RECTANGLE1
 10
0
 20
0
 30
0
 70
128
 71
356
 72
355
 73
339
 74
339
 0
VERTEX
 8
RECTANGLE1
 10
0
 20
0
 30
0
 70
128
 71
339
 72
340
 73
356
 74
356
 0
VERTEX
 8
RECTANGLE1
 10
0
 20
0
 30
0
 70
128
 71
357
 72
356
 73
340
 74
340
 0
VERTEX
 8
RECTANGLE1
 10
0
 20
0
 30
0
 70
128
 71
340
 72
341
 73
357
 74
357
 0
VERTEX
 8
RECTANGLE1
 10
0
 20
0
 30
0
 70
128
 71
358
 72
357
 73
341
 74
341
 0
VERTEX
 8
RECTANGLE1
 10
0
 20
0
 30
0
 70
128
 71
341
 72
342
 73
358
 74
358
 0
VERTEX
 8
RECTANGLE1
 10
0
 20
0
 30
0
 70
128
 71
359
 72
358
 73
342
 74
342
 0
VERTEX
 8
RECTANGLE1
 10
0
 20
0
 30
0
 70
128
 71
342
 72
343
 73
359
 74
359
 0
VERTEX
 8
RECTANGLE1
 10
0
 20
0
 30
0
 70
128
 71
360
 72
359
 73
343
 74
343
 0
VERTEX
 8
RECTANGLE1
 10
0
 20
0
 30
0
 70
128
 71
343
 72
344
 73
360
 74
360
 0
VERTEX
 8
RECTANGLE1
 10
0
 20
0
 30
0
 70
128
 71
345
 72
360
 73
344
 74
344
 0
VERTEX
 8
RECTANGLE1
 10
0
 20
0
 30
0
 70
128
 71
344
 72
329
 73
345
 74
345
 0
VERTEX
 8
RECTANGLE1
 10
0
 20
0
 30
0
 70
128
 71
378
 72
377
 73
361
 74
361
 0
VERTEX
 8
RECTANGLE1
 10
0
 20
0
 30
0
 70
128
 71
361
 72
362
 73
378
 74
378
 0
VERTEX
 8
RECTANGLE1
 10
0
 20
0
 30
0
 70
128
 71
379
 72
378
 73
362
 74
362
 0
VERTEX
 8
RECTANGLE1
 10
0
 20
0
 30
0
 70
128
 71
362
 72
363
 73
379
 74
379
 0
VERTEX
 8
RECTANGLE1
 10
0
 20
0
 30
0
 70
128
 71
380
 72
379
 73
363
 74
363
 0
VERTEX
 8
RECTANGLE1
 10
0
 20
0
 30
0
 70
128
 71
363
 72
364
 73
380
 74
380
 0
VERTEX
 8
RECTANGLE1
 10
0
 20
0
 30
0
 70
128
 71
381
 72
380
 73
364
 74
364
 0
VERTEX
 8
RECTANGLE1
 10
0
 20
0
 30
0
 70
128
 71
364
 72
365
 73
381
 74
381
 0
VERTEX
 8
RECTANGLE1
 10
0
 20
0
 30
0
 70
128
 71
382
 72
381
 73
365
 74
365
 0
VERTEX
 8
RECTANGLE1
 10
0
 20
0
 30
0
 70
128
 71
365
 72
366
 73
382
 74
382
 0
VERTEX
 8
RECTANGLE1
 10
0
 20
0
 30
0
 70
128
 71
383
 72
382
 73
366
 74
366
 0
VERTEX
 8
RECTANGLE1
 10
0
 20
0
 30
0
 70
128
 71
366
 72
367
 73
383
 74
383
 0
VERTEX
 8
RECTANGLE1
 10
0
 20
0
 30
0
 70
128
 71
384
 72
383
 73
367
 74
367
 0
VERTEX
 8
RECTANGLE1
 10
0
 20
0
 30
0
 70
128
 71
367
 72
368
 73
384
 74
384
 0
VERTEX
 8
RECTANGLE1
 10
0
 20
0
 30
0
 70
128
 71
385
 72
384
 73
368
 74
368
 0
VERTEX
 8
RECTANGLE1
 10
0
 20
0
 30
0
 70
128
 71
368
 72
369
 73
385
 74
385
 0
VERTEX
 8
RECTANGLE1
 10
0
 20
0
 30
0
 70
128
 71
386
 72
385
 73
369
 74
369
 0
VERTEX
 8
RECTANGLE1
 10
0
 20
0
 30
0
 70
128
 71
369
 72
370
 73
386
 74
386
 0
VERTEX
 8
RECTANGLE1
 10
0
 20
0
 30
0
 70
128
 71
387
 72
386
 73
370
 74
370
 0
VERTEX
 8
RECTANGLE1
 10
0
 20
0
 30
0
 70
128
 71
370
 72
371
 73
387
 74
387
 0
VERTEX
 8
RECTANGLE1
 10
0
 20
0
 30
0
 70
128
 71
388
 72
387
 73
371
 74
371
 0
VERTEX
 8
RECTANGLE1
 10
0
 20
0
 30
0
 70
128
 71
371
 72
372
 73
388
 74
388
 0
VERTEX
 8
RECTANGLE1
 10
0
 20
0
 30
0
 70
128
 71
389
 72
388
 73
372
 74
372
 0
VERTEX
 8
RECTANGLE1
 10
0
 20
0
 30
0
 70
128
 71
372
 72
373
 73
389
 74
389
 0
VERTEX
 8
RECTANGLE1
 10
0
 20
0
 30
0
 70
128
 71
390
 72
389
 73
373
 74
373
 0
VERTEX
 8
RECTANGLE1
 10
0
 20
0
 30
0
 70
128
 71
373
 72
374
 73
390
 74
390
 0
VERTEX
 8
RECTANGLE1
 10
0
 20
0
 30
0
 70
128
 71
391
 72
390
 73
374
 74
374
 0
VERTEX
 8
RECTANGLE1
 10
0
 20
0
 30
0
 70
128
 71
374
 72
375
 73
391
 74
391
 0
VERTEX
 8
RECTANGLE1
 10
0
 20
0
 30
0
 70
128
 71
397
 72
398
 73
391
 74
391
 0
VERTEX
 8
RECTANGLE1
 10
0
 20
0
 30
0
 70
128
 71
391
 72
375
 73
397
 74
397
 0
VERTEX
 8
RECTANGLE1
 10
0
 20
0
 30
0
 70
128
 71
376
 72
392
 73
399
 74
399
 0
VERTEX
 8
RECTANGLE1
 10
0
 20
0
 30
0
 70
128
 71
399
 72
400
 73
376
 74
376
 0
VERTEX
 8
RECTANGLE1
 10
0
 20
0
 30
0
 70
128
 71
377
 72
392
 73
376
 74
376
 0
VERTEX
 8
RECTANGLE1
 10
0
 20
0
 30
0
 70
128
 71
376
 72
361
 73
377
 74
377
 0
VERTEX
 8
RECTANGLE1
 10
0
 20
0
 30
0
 70
128
 71
337
 72
368
 73
367
 74
367
 0
VERTEX
 8
RECTANGLE1
 10
0
 20
0
 30
0
 70
128
 71
367
 72
338
 73
337
 74
337
 0
VERTEX
 8
RECTANGLE1
 10
0
 20
0
 30
0
 70
128
 71
338
 72
367
 73
366
 74
366
 0
VERTEX
 8
RECTANGLE1
 10
0
 20
0
 30
0
 70
128
 71
366
 72
339
 73
338
 74
338
 0
VERTEX
 8
RECTANGLE1
 10
0
 20
0
 30
0
 70
128
 71
339
 72
366
 73
365
 74
365
 0
VERTEX
 8
RECTANGLE1
 10
0
 20
0
 30
0
 70
128
 71
365
 72
340
 73
339
 74
339
 0
VERTEX
 8
RECTANGLE1
 10
0
 20
0
 30
0
 70
128
 71
340
 72
365
 73
364
 74
364
 0
VERTEX
 8
RECTANGLE1
 10
0
 20
0
 30
0
 70
128
 71
364
 72
341
 73
340
 74
340
 0
VERTEX
 8
RECTANGLE1
 10
0
 20
0
 30
0
 70
128
 71
341
 72
364
 73
363
 74
363
 0
VERTEX
 8
RECTANGLE1
 10
0
 20
0
 30
0
 70
128
 71
363
 72
342
 73
341
 74
341
 0
VERTEX
 8
RECTANGLE1
 10
0
 20
0
 30
0
 70
128
 71
342
 72
363
 73
362
 74
362
 0
VERTEX
 8
RECTANGLE1
 10
0
 20
0
 30
0
 70
128
 71
362
 72
343
 73
342
 74
342
 0
VERTEX
 8
RECTANGLE1
 10
0
 20
0
 30
0
 70
128
 71
343
 72
362
 73
361
 74
361
 0
VERTEX
 8
RECTANGLE1
 10
0
 20
0
 30
0
 70
128
 71
361
 72
344
 73
343
 74
343
 0
VERTEX
 8
RECTANGLE1
 10
0
 20
0
 30
0
 70
128
 71
344
 72
361
 73
376
 74
376
 0
VERTEX
 8
RECTANGLE1
 10
0
 20
0
 30
0
 70
128
 71
376
 72
329
 73
344
 74
344
 0
VERTEX
 8
RECTANGLE1
 10
0
 20
0
 30
0
 70
128
 71
393
 72
329
 73
376
 74
376
 0
VERTEX
 8
RECTANGLE1
 10
0
 20
0
 30
0
 70
128
 71
376
 72
400
 73
393
 74
393
 0
VERTEX
 8
RECTANGLE1
 10
0
 20
0
 30
0
 70
128
 71
396
 72
397
 73
375
 74
375
 0
VERTEX
 8
RECTANGLE1
 10
0
 20
0
 30
0
 70
128
 71
375
 72
330
 73
396
 74
396
 0
VERTEX
 8
RECTANGLE1
 10
0
 20
0
 30
0
 70
128
 71
330
 72
375
 73
374
 74
374
 0
VERTEX
 8
RECTANGLE1
 10
0
 20
0
 30
0
 70
128
 71
374
 72
331
 73
330
 74
330
 0
VERTEX
 8
RECTANGLE1
 10
0
 20
0
 30
0
 70
128
 71
331
 72
374
 73
373
 74
373
 0
VERTEX
 8
RECTANGLE1
 10
0
 20
0
 30
0
 70
128
 71
373
 72
332
 73
331
 74
331
 0
VERTEX
 8
RECTANGLE1
 10
0
 20
0
 30
0
 70
128
 71
332
 72
373
 73
372
 74
372
 0
VERTEX
 8
RECTANGLE1
 10
0
 20
0
 30
0
 70
128
 71
372
 72
333
 73
332
 74
332
 0
VERTEX
 8
RECTANGLE1
 10
0
 20
0
 30
0
 70
128
 71
333
 72
372
 73
371
 74
371
 0
VERTEX
 8
RECTANGLE1
 10
0
 20
0
 30
0
 70
128
 71
371
 72
334
 73
333
 74
333
 0
VERTEX
 8
RECTANGLE1
 10
0
 20
0
 30
0
 70
128
 71
334
 72
371
 73
370
 74
370
 0
VERTEX
 8
RECTANGLE1
 10
0
 20
0
 30
0
 70
128
 71
370
 72
335
 73
334
 74
334
 0
VERTEX
 8
RECTANGLE1
 10
0
 20
0
 30
0
 70
128
 71
335
 72
370
 73
369
 74
369
 0
VERTEX
 8
RECTANGLE1
 10
0
 20
0
 30
0
 70
128
 71
369
 72
336
 73
335
 74
335
 0
VERTEX
 8
RECTANGLE1
 10
0
 20
0
 30
0
 70
128
 71
336
 72
369
 73
368
 74
368
 0
VERTEX
 8
RECTANGLE1
 10
0
 20
0
 30
0
 70
128
 71
368
 72
337
 73
336
 74
336
 0
VERTEX
 8
RECTANGLE1
 10
0
 20
0
 30
0
 70
128
 71
394
 72
399
 73
392
 74
392
 0
VERTEX
 8
RECTANGLE1
 10
0
 20
0
 30
0
 70
128
 71
392
 72
345
 73
394
 74
394
 0
VERTEX
 8
RECTANGLE1
 10
0
 20
0
 30
0
 70
128
 71
392
 72
377
 73
360
 74
360
 0
VERTEX
 8
RECTANGLE1
 10
0
 20
0
 30
0
 70
128
 71
360
 72
345
 73
392
 74
392
 0
VERTEX
 8
RECTANGLE1
 10
0
 20
0
 30
0
 70
128
 71
377
 72
378
 73
359
 74
359
 0
VERTEX
 8
RECTANGLE1
 10
0
 20
0
 30
0
 70
128
 71
359
 72
360
 73
377
 74
377
 0
VERTEX
 8
RECTANGLE1
 10
0
 20
0
 30
0
 70
128
 71
378
 72
379
 73
358
 74
358
 0
VERTEX
 8
RECTANGLE1
 10
0
 20
0
 30
0
 70
128
 71
358
 72
359
 73
378
 74
378
 0
VERTEX
 8
RECTANGLE1
 10
0
 20
0
 30
0
 70
128
 71
379
 72
380
 73
357
 74
357
 0
VERTEX
 8
RECTANGLE1
 10
0
 20
0
 30
0
 70
128
 71
357
 72
358
 73
379
 74
379
 0
VERTEX
 8
RECTANGLE1
 10
0
 20
0
 30
0
 70
128
 71
380
 72
381
 73
356
 74
356
 0
VERTEX
 8
RECTANGLE1
 10
0
 20
0
 30
0
 70
128
 71
356
 72
357
 73
380
 74
380
 0
VERTEX
 8
RECTANGLE1
 10
0
 20
0
 30
0
 70
128
 71
381
 72
382
 73
355
 74
355
 0
VERTEX
 8
RECTANGLE1
 10
0
 20
0
 30
0
 70
128
 71
355
 72
356
 73
381
 74
381
 0
VERTEX
 8
RECTANGLE1
 10
0
 20
0
 30
0
 70
128
 71
382
 72
383
 73
354
 74
354
 0
VERTEX
 8
RECTANGLE1
 10
0
 20
0
 30
0
 70
128
 71
354
 72
355
 73
382
 74
382
 0
VERTEX
 8
RECTANGLE1
 10
0
 20
0
 30
0
 70
128
 71
384
 72
385
 73
352
 74
352
 0
VERTEX
 8
RECTANGLE1
 10
0
 20
0
 30
0
 70
128
 71
352
 72
353
 73
384
 74
384
 0
VERTEX
 8
RECTANGLE1
 10
0
 20
0
 30
0
 70
128
 71
385
 72
386
 73
351
 74
351
 0
VERTEX
 8
RECTANGLE1
 10
0
 20
0
 30
0
 70
128
 71
351
 72
352
 73
385
 74
385
 0
VERTEX
 8
RECTANGLE1
 10
0
 20
0
 30
0
 70
128
 71
383
 72
384
 73
353
 74
353
 0
VERTEX
 8
RECTANGLE1
 10
0
 20
0
 30
0
 70
128
 71
353
 72
354
 73
383
 74
383
 0
VERTEX
 8
RECTANGLE1
 10
0
 20
0
 30
0
 70
128
 71
386
 72
387
 73
350
 74
350
 0
VERTEX
 8
RECTANGLE1
 10
0
 20
0
 30
0
 70
128
 71
350
 72
351
 73
386
 74
386
 0
VERTEX
 8
RECTANGLE1
 10
0
 20
0
 30
0
 70
128
 71
387
 72
388
 73
349
 74
349
 0
VERTEX
 8
RECTANGLE1
 10
0
 20
0
 30
0
 70
128
 71
349
 72
350
 73
387
 74
387
 0
VERTEX
 8
RECTANGLE1
 10
0
 20
0
 30
0
 70
128
 71
388
 72
389
 73
348
 74
348
 0
VERTEX
 8
RECTANGLE1
 10
0
 20
0
 30
0
 70
128
 71
348
 72
349
 73
388
 74
388
 0
VERTEX
 8
RECTANGLE1
 10
0
 20
0
 30
0
 70
128
 71
389
 72
390
 73
347
 74
347
 0
VERTEX
 8
RECTANGLE1
 10
0
 20
0
 30
0
 70
128
 71
347
 72
348
 73
389
 74
389
 0
VERTEX
 8
RECTANGLE1
 10
0
 20
0
 30
0
 70
128
 71
390
 72
391
 73
346
 74
346
 0
VERTEX
 8
RECTANGLE1
 10
0
 20
0
 30
0
 70
128
 71
346
 72
347
 73
390
 74
390
 0
VERTEX
 8
RECTANGLE1
 10
0
 20
0
 30
0
 70
128
 71
395
 72
346
 73
391
 74
391
 0
VERTEX
 8
RECTANGLE1
 10
0
 20
0
 30
0
 70
128
 71
391
 72
398
 73
395
 74
395
 0
VERTEX
 8
RECTANGLE1
 10
0
 20
0
 30
0
 70
128
 71
415
 72
414
 73
413
 74
413
 0
VERTEX
 8
RECTANGLE1
 10
0
 20
0
 30
0
 70
128
 71
418
 72
417
 73
416
 74
416
 0
VERTEX
 8
RECTANGLE1
 10
0
 20
0
 30
0
 70
128
 71
421
 72
420
 73
419
 74
419
 0
VERTEX
 8
RECTANGLE1
 10
0
 20
0
 30
0
 70
128
 71
424
 72
423
 73
422
 74
422
 0
SEQEND
 0
POLYLINE
 8
RECTANGLE2
 66
1
 10
0.0
 20
0.0
 30
0.0
 70
64
 71
127
 72
48
 0
VERTEX
 8
RECTANGLE2
 10
175.8639
 20
51.1773
 30
51.1187
 70
192
 0
VERTEX
 8
RECTANGLE2
 10
175.8639
 20
106.1093
 30
51.1187
 70
192
 0
VERTEX
 8
RECTANGLE2
 10
175.8639
 20
106.1093
 30
49.1187
 70
192
 0
VERTEX
 8
RECTANGLE2
 10
175.8639
 20
51.1773
 30
49.1187
 70
192
 0
VERTEX
 8
RECTANGLE2
 10
173.8639
 20
51.1773
 30
51.1187
 70
192
 0
VERTEX
 8
RECTANGLE2
 10
173.8639
 20
106.1093
 30
51.1187
 70
192
 0
VERTEX
 8
RECTANGLE2
 10
173.8639
 20
106.1093
 30
49.1187
 70
192
 0
VERTEX
 8
RECTANGLE2
 10
173.8639
 20
51.1773
 30
49.1187
 70
192
 0
VERTEX
 8
RECTANGLE2
 10
59.4068
 20
51.1773
 30
51.1187
 70
192
 0
VERTEX
 8
RECTANGLE2
 10
59.4068
 20
106.1093
 30
51.1187
 70
192
 0
VERTEX
 8
RECTANGLE2
 10
59.4068
 20
106.1093
 30
49.1187
 70
192
 0
VERTEX
 8
RECTANGLE2
 10
59.4068
 20
51.1773
 30
49.1187
 70
192
 0
VERTEX
 8
RECTANGLE2
 10
57.4068
 20
51.1773
 30
51.1187
 70
192
 0
VERTEX
 8
RECTANGLE2
 10
57.4068
 20
106.1093
 30
51.1187
 70
192
 0
VERTEX
 8
RECTANGLE2
 10
57.4068
 20
106.1093
 30
49.1187
 70
192
 0
VERTEX
 8
RECTANGLE2
 10
57.4068
 20
51.1773
 30
49.1187
 70
192
 0
VERTEX
 8
RECTANGLE2
 10
56.6354
 20
51.1773
 30
48.1187
 70
192
 0
VERTEX
 8
RECTANGLE2
 10
176.6354
 20
51.1773
 30
48.1187
 70
192
 0
VERTEX
 8
RECTANGLE2
 10
56.6354
 20
51.1773
 30
51.1187
 70
192
 0
VERTEX
 8
RECTANGLE2
 10
176.6354
 20
51.1773
 30
51.1187
 70
192
 0
VERTEX
 8
RECTANGLE2
 10
56.6354
 20
49.1773
 30
48.1187
 70
192
 0
VERTEX
 8
RECTANGLE2
 10
176.6354
 20
49.1773
 30
48.1187
 70
192
 0
VERTEX
 8
RECTANGLE2
 10
56.6354
 20
49.1773
 30
51.1187
 70
192
 0
VERTEX
 8
RECTANGLE2
 10
176.6354
 20
49.1773
 30
51.1187
 70
192
 0
VERTEX
 8
RECTANGLE2
 10
56.6354
 20
108.1093
 30
48.1187
 70
192
 0
VERTEX
 8
RECTANGLE2
 10
176.6354
 20
108.1093
 30
48.1187
 70
192
 0
VERTEX
 8
RECTANGLE2
 10
56.6354
 20
108.1093
 30
51.1187
 70
192
 0
VERTEX
 8
RECTANGLE2
 10
176.6354
 20
108.1093
 30
51.1187
 70
192
 0
VERTEX
 8
RECTANGLE2
 10
56.6354
 20
106.1093
 30
48.1187
 70
192
 0
VERTEX
 8
RECTANGLE2
 10
176.6354
 20
106.1092
 30
48.1187
 70
192
 0
VERTEX
 8
RECTANGLE2
 10
56.6354
 20
106.1093
 30
51.1187
 70
192
 0
VERTEX
 8
RECTANGLE2
 10
176.6354
 20
106.1092
 30
51.1187
 70
192
 0
VERTEX
 8
RECTANGLE2
 10
173.8639
 20
106.1093
 30
51.1187
 70
192
 0
VERTEX
 8
RECTANGLE2
 10
175.8639
 20
106.1093
 30
51.1187
 70
192
 0
VERTEX
 8
RECTANGLE2
 10
175.8639
 20
106.1093
 30
51.1187
 70
192
 0
VERTEX
 8
RECTANGLE2
 10
173.8639
 20
106.1093
 30
49.1187
 70
192
 0
VERTEX
 8
RECTANGLE2
 10
175.8639
 20
106.1093
 30
49.1187
 70
192
 0
VERTEX
 8
RECTANGLE2
 10
175.8639
 20
106.1093
 30
49.1187
 70
192
 0
VERTEX
 8
RECTANGLE2
 10
173.8639
 20
51.1773
 30
51.1187
 70
192
 0
VERTEX
 8
RECTANGLE2
 10
173.8639
 20
51.1773
 30
49.1187
 70
192
 0
VERTEX
 8
RECTANGLE2
 10
175.8639
 20
51.1773
 30
49.1187
 70
192
 0
VERTEX
 8
RECTANGLE2
 10
175.8639
 20
51.1773
 30
49.1187
 70
192
 0
VERTEX
 8
RECTANGLE2
 10
175.8639
 20
51.1773
 30
51.1187
 70
192
 0
VERTEX
 8
RECTANGLE2
 10
173.8639
 20
51.1773
 30
51.1187
 70
192
 0
VERTEX
 8
RECTANGLE2
 10
175.8639
 20
106.1093
 30
49.1187
 70
192
 0
VERTEX
 8
RECTANGLE2
 10
175.8639
 20
106.1093
 30
51.1187
 70
192
 0
VERTEX
 8
RECTANGLE2
 10
175.8639
 20
51.1773
 30
51.1187
 70
192
 0
VERTEX
 8
RECTANGLE2
 10
175.8639
 20
51.1773
 30
51.1187
 70
192
 0
VERTEX
 8
RECTANGLE2
 10
175.8639
 20
51.1773
 30
49.1187
 70
192
 0
VERTEX
 8
RECTANGLE2
 10
175.8639
 20
106.1093
 30
49.1187
 70
192
 0
VERTEX
 8
RECTANGLE2
 10
173.8639
 20
51.1773
 30
51.1187
 70
192
 0
VERTEX
 8
RECTANGLE2
 10
173.8639
 20
106.1093
 30
51.1187
 70
192
 0
VERTEX
 8
RECTANGLE2
 10
173.8639
 20
106.1093
 30
49.1187
 70
192
 0
VERTEX
 8
RECTANGLE2
 10
173.8639
 20
106.1093
 30
49.1187
 70
192
 0
VERTEX
 8
RECTANGLE2
 10
173.8639
 20
51.1773
 30
49.1187
 70
192
 0
VERTEX
 8
RECTANGLE2
 10
173.8639
 20
51.1773
 30
51.1187
 70
192
 0
VERTEX
 8
RECTANGLE2
 10
57.4068
 20
106.1093
 30
51.1187
 70
192
 0
VERTEX
 8
RECTANGLE2
 10
59.4068
 20
106.1093
 30
51.1187
 70
192
 0
VERTEX
 8
RECTANGLE2
 10
59.4068
 20
106.1093
 30
51.1187
 70
192
 0
VERTEX
 8
RECTANGLE2
 10
57.4068
 20
106.1093
 30
49.1187
 70
192
 0
VERTEX
 8
RECTANGLE2
 10
59.4068
 20
106.1093
 30
49.1187
 70
192
 0
VERTEX
 8
RECTANGLE2
 10
59.4068
 20
106.1093
 30
49.1187
 70
192
 0
VERTEX
 8
RECTANGLE2
 10
57.4068
 20
51.1773
 30
51.1187
 70
192
 0
VERTEX
 8
RECTANGLE2
 10
57.4068
 20
51.1773
 30
49.1187
 70
192
 0
VERTEX
 8
RECTANGLE2
 10
59.4068
 20
51.1773
 30
49.1187
 70
192
 0
VERTEX
 8
RECTANGLE2
 10
59.4068
 20
51.1773
 30
49.1187
 70
192
 0
VERTEX
 8
RECTANGLE2
 10
59.4068
 20
51.1773
 30
51.1187
 70
192
 0
VERTEX
 8
RECTANGLE2
 10
57.4068
 20
51.1773
 30
51.1187
 70
192
 0
VERTEX
 8
RECTANGLE2
 10
59.4068
 20
106.1093
 30
49.1187
 70
192
 0
VERTEX
 8
RECTANGLE2
 10
59.4068
 20
106.1093
 30
51.1187
 70
192
 0
VERTEX
 8
RECTANGLE2
 10
59.4068
 20
51.1773
 30
51.1187
 70
192
 0
VERTEX
 8
RECTANGLE2
 10
59.4068
 20
51.1773
 30
51.1187
 70
192
 0
VERTEX
 8
RECTANGLE2
 10
59.4068
 20
51.1773
 30
49.1187
 70
192
 0
VERTEX
 8
RECTANGLE2
 10
59.4068
 20
106.1093
 30
49.1187
 70
192
 0
VERTEX
 8
RECTANGLE2
 10
57.4068
 20
51.1773
 30
51.1187
 70
192
 0
VERTEX
 8
RECTANGLE2
 10
57.4068
 20
106.1093
 30
51.1187
 70
192
 0
VERTEX
 8
RECTANGLE2
 10
57.4068
 20
106.1093
 30
49.1187
 70
192
 0
VERTEX
 8
RECTANGLE2
 10
57.4068
 20
106.1093
 30
49.1187
 70
192
 0
VERTEX
 8
RECTANGLE2
 10
57.4068
 20
51.1773
 30
49.1187
 70
192
 0
VERTEX
 8
RECTANGLE2
 10
57.4068
 20
51.1773
 30
51.1187
 70
192
 0
VERTEX
 8
RECTANGLE2
 10
56.6354
 20
51.1773
 30
48.1187
 70
192
 0
VERTEX
 8
RECTANGLE2
 10
176.6354
 20
51.1773
 30
48.1187
 70
192
 0
VERTEX
 8
RECTANGLE2
 10
176.6354
 20
49.1773
 30
48.1187
 70
192
 0
VERTEX
 8
RECTANGLE2
 10
176.6354
 20
49.1773
 30
48.1187
 70
192
 0
VERTEX
 8
RECTANGLE2
 10
56.6354
 20
49.1773
 30
48.1187
 70
192
 0
VERTEX
 8
RECTANGLE2
 10
56.6354
 20
51.1773
 30
48.1187
 70
192
 0
VERTEX
 8
RECTANGLE2
 10
176.6354
 20
51.1773
 30
48.1187
 70
192
 0
VERTEX
 8
RECTANGLE2
 10
176.6354
 20
51.1773
 30
51.1187
 70
192
 0
VERTEX
 8
RECTANGLE2
 10
176.6354
 20
49.1773
 30
51.1187
 70
192
 0
VERTEX
 8
RECTANGLE2
 10
176.6354
 20
49.1773
 30
51.1187
 70
192
 0
VERTEX
 8
RECTANGLE2
 10
176.6354
 20
51.1773
 30
48.1187
 70
192
 0
VERTEX
 8
RECTANGLE2
 10
176.6354
 20
51.1773
 30
51.1187
 70
192
 0
VERTEX
 8
RECTANGLE2
 10
56.6354
 20
51.1773
 30
51.1187
 70
192
 0
VERTEX
 8
RECTANGLE2
 10
56.6354
 20
49.1773
 30
51.1187
 70
192
 0
VERTEX
 8
RECTANGLE2
 10
56.6354
 20
49.1773
 30
51.1187
 70
192
 0
VERTEX
 8
RECTANGLE2
 10
176.6354
 20
49.1773
 30
51.1187
 70
192
 0
VERTEX
 8
RECTANGLE2
 10
176.6354
 20
51.1773
 30
51.1187
 70
192
 0
VERTEX
 8
RECTANGLE2
 10
56.6354
 20
51.1773
 30
51.1187
 70
192
 0
VERTEX
 8
RECTANGLE2
 10
56.6354
 20
51.1773
 30
48.1187
 70
192
 0
VERTEX
 8
RECTANGLE2
 10
56.6354
 20
49.1773
 30
48.1187
 70
192
 0
VERTEX
 8
RECTANGLE2
 10
56.6354
 20
49.1773
 30
48.1187
 70
192
 0
VERTEX
 8
RECTANGLE2
 10
56.6354
 20
49.1773
 30
51.1187
 70
192
 0
VERTEX
 8
RECTANGLE2
 10
56.6354
 20
51.1773
 30
51.1187
 70
192
 0
VERTEX
 8
RECTANGLE2
 10
56.6354
 20
108.1093
 30
48.1187
 70
192
 0
VERTEX
 8
RECTANGLE2
 10
176.6354
 20
108.1093
 30
48.1187
 70
192
 0
VERTEX
 8
RECTANGLE2
 10
176.6354
 20
106.1092
 30
48.1187
 70
192
 0
VERTEX
 8
RECTANGLE2
 10
176.6354
 20
106.1092
 30
48.1187
 70
192
 0
VERTEX
 8
RECTANGLE2
 10
56.6354
 20
106.1093
 30
48.1187
 70
192
 0
VERTEX
 8
RECTANGLE2
 10
56.6354
 20
108.1093
 30
48.1187
 70
192
 0
VERTEX
 8
RECTANGLE2
 10
176.6354
 20
108.1093
 30
48.1187
 70
192
 0
VERTEX
 8
RECTANGLE2
 10
176.6354
 20
108.1093
 30
51.1187
 70
192
 0
VERTEX
 8
RECTANGLE2
 10
176.6354
 20
106.1092
 30
51.1187
 70
192
 0
VERTEX
 8
RECTANGLE2
 10
176.6354
 20
106.1092
 30
51.1187
 70
192
 0
VERTEX
 8
RECTANGLE2
 10
176.6354
 20
106.1092
 30
48.1187
 70
192
 0
VERTEX
 8
RECTANGLE2
 10
176.6354
 20
108.1093
 30
48.1187
 70
192
 0
VERTEX
 8
RECTANGLE2
 10
176.6354
 20
108.1093
 30
51.1187
 70
192
 0
VERTEX
 8
RECTANGLE2
 10
56.6354
 20
108.1093
 30
51.1187
 70
192
 0
VERTEX
 8
RECTANGLE2
 10
56.6354
 20
106.1093
 30
51.1187
 70
192
 0
VERTEX
 8
RECTANGLE2
 10
56.6354
 20
106.1093
 30
51.1187
 70
192
 0
VERTEX
 8
RECTANGLE2
 10
176.6354
 20
106.1092
 30
51.1187
 70
192
 0
VERTEX
 8
RECTANGLE2
 10
176.6354
 20
108.1093
 30
51.1187
 70
192
 0
VERTEX
 8
RECTANGLE2
 10
56.6354
 20
108.1093
 30
51.1187
 70
192
 0
VERTEX
 8
RECTANGLE2
 10
56.6354
 20
108.1093
 30
48.1187
 70
192
 0
VERTEX
 8
RECTANGLE2
 10
56.6354
 20
106.1093
 30
48.1187
 70
192
 0
VERTEX
 8
RECTANGLE2
 10
56.6354
 20
106.1093
 30
48.1187
 70
192
 0
VERTEX
 8
RECTANGLE2
 10
56.6354
 20
106.1093
 30
51.1187
 70
192
 0
VERTEX
 8
RECTANGLE2
 10
56.6354
 20
108.1093
 30
51.1187
 70
192
 0
VERTEX
 8
RECTANGLE2
 10
0
 20
0
 30
0
 70
128
 71
1
 72
5
 73
6
 74
6
 0
VERTEX
 8
RECTANGLE2
 10
0
 20
0
 30
0
 70
128
 71
6
 72
2
 73
1
 74
1
 0
VERTEX
 8
RECTANGLE2
 10
0
 20
0
 30
0
 70
128
 71
34
 72
33
 73
7
 74
7
 0
VERTEX
 8
RECTANGLE2
 10
0
 20
0
 30
0
 70
128
 71
7
 72
3
 73
35
 74
35
 0
VERTEX
 8
RECTANGLE2
 10
0
 20
0
 30
0
 70
128
 71
37
 72
36
 73
8
 74
8
 0
VERTEX
 8
RECTANGLE2
 10
0
 20
0
 30
0
 70
128
 71
8
 72
4
 73
38
 74
38
 0
VERTEX
 8
RECTANGLE2
 10
0
 20
0
 30
0
 70
128
 71
41
 72
40
 73
39
 74
39
 0
VERTEX
 8
RECTANGLE2
 10
0
 20
0
 30
0
 70
128
 71
44
 72
43
 73
42
 74
42
 0
VERTEX
 8
RECTANGLE2
 10
0
 20
0
 30
0
 70
128
 71
47
 72
46
 73
45
 74
45
 0
VERTEX
 8
RECTANGLE2
 10
0
 20
0
 30
0
 70
128
 71
50
 72
49
 73
48
 74
48
 0
VERTEX
 8
RECTANGLE2
 10
0
 20
0
 30
0
 70
128
 71
53
 72
52
 73
51
 74
51
 0
VERTEX
 8
RECTANGLE2
 10
0
 20
0
 30
0
 70
128
 71
56
 72
55
 73
54
 74
54
 0
VERTEX
 8
RECTANGLE2
 10
0
 20
0
 30
0
 70
128
 71
9
 72
13
 73
14
 74
14
 0
VERTEX
 8
RECTANGLE2
 10
0
 20
0
 30
0
 70
128
 71
14
 72
10
 73
9
 74
9
 0
VERTEX
 8
RECTANGLE2
 10
0
 20
0
 30
0
 70
128
 71
58
 72
57
 73
15
 74
15
 0
VERTEX
 8
RECTANGLE2
 10
0
 20
0
 30
0
 70
128
 71
15
 72
11
 73
59
 74
59
 0
VERTEX
 8
RECTANGLE2
 10
0
 20
0
 30
0
 70
128
 71
61
 72
60
 73
16
 74
16
 0
VERTEX
 8
RECTANGLE2
 10
0
 20
0
 30
0
 70
128
 71
16
 72
12
 73
62
 74
62
 0
VERTEX
 8
RECTANGLE2
 10
0
 20
0
 30
0
 70
128
 71
65
 72
64
 73
63
 74
63
 0
VERTEX
 8
RECTANGLE2
 10
0
 20
0
 30
0
 70
128
 71
68
 72
67
 73
66
 74
66
 0
VERTEX
 8
RECTANGLE2
 10
0
 20
0
 30
0
 70
128
 71
71
 72
70
 73
69
 74
69
 0
VERTEX
 8
RECTANGLE2
 10
0
 20
0
 30
0
 70
128
 71
74
 72
73
 73
72
 74
72
 0
VERTEX
 8
RECTANGLE2
 10
0
 20
0
 30
0
 70
128
 71
77
 72
76
 73
75
 74
75
 0
VERTEX
 8
RECTANGLE2
 10
0
 20
0
 30
0
 70
128
 71
80
 72
79
 73
78
 74
78
 0
VERTEX
 8
RECTANGLE2
 10
0
 20
0
 30
0
 70
128
 71
20
 72
19
 73
17
 74
17
 0
VERTEX
 8
RECTANGLE2
 10
0
 20
0
 30
0
 70
128
 71
17
 72
18
 73
20
 74
20
 0
VERTEX
 8
RECTANGLE2
 10
0
 20
0
 30
0
 70
128
 71
24
 72
22
 73
21
 74
21
 0
VERTEX
 8
RECTANGLE2
 10
0
 20
0
 30
0
 70
128
 71
21
 72
23
 73
24
 74
24
 0
VERTEX
 8
RECTANGLE2
 10
0
 20
0
 30
0
 70
128
 71
83
 72
82
 73
81
 74
81
 0
VERTEX
 8
RECTANGLE2
 10
0
 20
0
 30
0
 70
128
 71
86
 72
85
 73
84
 74
84
 0
VERTEX
 8
RECTANGLE2
 10
0
 20
0
 30
0
 70
128
 71
89
 72
88
 73
87
 74
87
 0
VERTEX
 8
RECTANGLE2
 10
0
 20
0
 30
0
 70
128
 71
91
 72
22
 73
90
 74
90
 0
VERTEX
 8
RECTANGLE2
 10
0
 20
0
 30
0
 70
128
 71
94
 72
93
 73
92
 74
92
 0
VERTEX
 8
RECTANGLE2
 10
0
 20
0
 30
0
 70
128
 71
97
 72
96
 73
95
 74
95
 0
VERTEX
 8
RECTANGLE2
 10
0
 20
0
 30
0
 70
128
 71
100
 72
99
 73
98
 74
98
 0
VERTEX
 8
RECTANGLE2
 10
0
 20
0
 30
0
 70
128
 71
103
 72
102
 73
101
 74
101
 0
VERTEX
 8
RECTANGLE2
 10
0
 20
0
 30
0
 70
128
 71
28
 72
27
 73
25
 74
25
 0
VERTEX
 8
RECTANGLE2
 10
0
 20
0
 30
0
 70
128
 71
25
 72
26
 73
28
 74
28
 0
VERTEX
 8
RECTANGLE2
 10
0
 20
0
 30
0
 70
128
 71
32
 72
30
 73
29
 74
29
 0
VERTEX
 8
RECTANGLE2
 10
0
 20
0
 30
0
 70
128
 71
29
 72
31
 73
32
 74
32
 0
VERTEX
 8
RECTANGLE2
 10
0
 20
0
 30
0
 70
128
 71
106
 72
105
 73
104
 74
104
 0
VERTEX
 8
RECTANGLE2
 10
0
 20
0
 30
0
 70
128
 71
109
 72
108
 73
107
 74
107
 0
VERTEX
 8
RECTANGLE2
 10
0
 20
0
 30
0
 70
128
 71
112
 72
111
 73
110
 74
110
 0
VERTEX
 8
RECTANGLE2
 10
0
 20
0
 30
0
 70
128
 71
115
 72
114
 73
113
 74
113
 0
VERTEX
 8
RECTANGLE2
 10
0
 20
0
 30
0
 70
128
 71
118
 72
117
 73
116
 74
116
 0
VERTEX
 8
RECTANGLE2
 10
0
 20
0
 30
0
 70
128
 71
121
 72
120
 73
119
 74
119
 0
VERTEX
 8
RECTANGLE2
 10
0
 20
0
 30
0
 70
128
 71
124
 72
123
 73
122
 74
122
 0
VERTEX
 8
RECTANGLE2
 10
0
 20
0
 30
0
 70
128
 71
127
 72
126
 73
125
 74
125
 0
SEQEND
 0
ENDSEC
 0
EOF
